<?xml version="1.0" encoding="UTF-8" standalone="no"?>
<!-- Created with Inkscape (http://www.inkscape.org/) -->

<svg
   version="1.1"
   id="svg1"
   width="415.07068"
   height="208.40533"
   viewBox="0 0 415.07068 208.40533"
   xmlns="http://www.w3.org/2000/svg"
   xmlns:svg="http://www.w3.org/2000/svg">
  <defs
     id="defs1" />
  <g
     id="g1">
    <path
       id="path1"
       d="M 0,0 H 311.303 V 156.304 H 0 Z"
       style="fill:#121212;fill-opacity:1;fill-rule:nonzero;stroke:none"
       transform="matrix(1.3333333,0,0,-1.3333333,0,208.40533)" />
    <path
       id="path2"
       d="m 14.17339,63.7803 c 0,7.82785 -6.34555,14.1734 -14.17339,14.1734 -7.82784,0 -14.17339,-6.34555 -14.17339,-14.1734 0,-7.82785 6.34555,-14.1734 14.17339,-14.1734 7.82784,0 14.17339,6.34555 14.17339,14.1734 z"
       style="fill:none;stroke:#ffffff;stroke-width:0.3985;stroke-linecap:butt;stroke-linejoin:miter;stroke-miterlimit:10;stroke-dasharray:none;stroke-opacity:1"
       transform="matrix(1.3333333,0,0,-1.3333333,19.162667,104.20267)" />
    <g
       id="g2"
       aria-label="a&#10;11"
       transform="matrix(1.3333333,0,0,1.3333333,10.025333,21.026667)">
      <path
         id="path3"
         d="m 3.7134219,-3.7612109 c -0.1757813,-0.375 -0.46875,-0.6445313 -0.9140625,-0.6445313 -1.171875,0 -2.40234378,1.4648438 -2.40234378,2.9179688 0,0.93749996 0.55078125,1.59374996 1.32421878,1.59374996 0.1992187,0 0.703125,-0.03515625 1.3007812,-0.73828125 0.070312,0.41015625 0.421875,0.73828125 0.9023438,0.73828125 0.3515625,0 0.5742187,-0.22265625 0.7382812,-0.5390625 0.1640625,-0.36328125 0.2929688,-0.97265626 0.2929688,-0.99609376 0,-0.09375 -0.082031,-0.09375 -0.1171875,-0.09375 -0.09375,0 -0.1054688,0.035156 -0.140625,0.1757813 -0.1640625,0.64453121 -0.3515625,1.24218746 -0.75,1.24218746 -0.2695313,0 -0.3046875,-0.2578125 -0.3046875,-0.45703125 0,-0.22265625 0.023437,-0.3046875 0.1289062,-0.73828121 0.1171875,-0.421875 0.1289063,-0.5273438 0.2226563,-0.9023438 l 0.3515625,-1.3945312 c 0.070312,-0.28125 0.070312,-0.2929688 0.070312,-0.3398438 0,-0.1640625 -0.1171875,-0.2695312 -0.28125,-0.2695312 -0.2460938,0 -0.3867188,0.2226562 -0.4218745,0.4453125 z m -0.6445313,2.578125 c -0.046875,0.1757812 -0.046875,0.19921871 -0.1992187,0.36328121 -0.4453125,0.55078125 -0.84375,0.71484375 -1.125,0.71484375 -0.5039063,0 -0.6445313,-0.55078125 -0.6445313,-0.93749996 0,-0.5039063 0.328125,-1.7226563 0.5507813,-2.1796875 0.3046875,-0.5976563 0.7617187,-0.9609375 1.1601562,-0.9609375 0.6445313,0 0.7851563,0.8203125 0.7851563,0.8789062 0,0.058594 -0.023437,0.1171875 -0.035156,0.1640625 z m 0,0"
         style="fill:#ffffff;fill-opacity:1;fill-rule:nonzero;stroke:none" />
      <path
         id="path4"
         d="m 7.5981875,-2.9350391 c 0,-0.1875 -0.011719,-0.1992187 -0.2109375,-0.1992187 -0.4453125,0.4335937 -1.078125,0.4453125 -1.359375,0.4453125 v 0.2460937 c 0.1640625,0 0.6210937,0 1.0078125,-0.1875 v 3.55078129 c 0,0.23437501 0,0.32812501 -0.6914063,0.32812501 H 6.07475 v 0.2460937 c 0.1289062,-0.011719 0.984375,-0.023437 1.2421875,-0.023437 0.2109375,0 1.0898438,0.011719 1.2421875,0.023437 V 1.2485547 H 8.3013125 c -0.703125,0 -0.703125,-0.09375 -0.703125,-0.32812501 z m 3.9726565,0 c 0,-0.1875 -0.01172,-0.1992187 -0.210938,-0.1992187 -0.445312,0.4335937 -1.078125,0.4453125 -1.359375,0.4453125 v 0.2460937 c 0.164063,0 0.621094,0 1.007813,-0.1875 v 3.55078129 c 0,0.23437501 0,0.32812501 -0.691406,0.32812501 h -0.269532 v 0.2460937 c 0.128907,-0.011719 0.984375,-0.023437 1.242188,-0.023437 0.210937,0 1.089844,0.011719 1.242187,0.023437 V 1.2485547 h -0.257812 c -0.703125,0 -0.703125,-0.09375 -0.703125,-0.32812501 z m 0,0"
         style="fill:#ffffff;fill-opacity:1;fill-rule:nonzero;stroke:none" />
    </g>
    <path
       id="path5"
       d="m 14.17339,21.2601 c 0,7.82785 -6.34555,14.17339 -14.17339,14.17339 -7.82784,0 -14.17339,-6.34554 -14.17339,-14.17339 0,-7.82785 6.34555,-14.1734 14.17339,-14.1734 7.82784,0 14.17339,6.34555 14.17339,14.1734 z"
       style="fill:none;stroke:#ffffff;stroke-width:0.3985;stroke-linecap:butt;stroke-linejoin:miter;stroke-miterlimit:10;stroke-dasharray:none;stroke-opacity:1"
       transform="matrix(1.3333333,0,0,-1.3333333,19.162667,104.20267)" />
    <g
       id="g5"
       aria-label="a&#10;12"
       transform="matrix(1.3333333,0,0,1.3333333,10.025333,77.72)">
      <path
         id="path6"
         d="m 3.7134219,-3.7626563 c -0.1757813,-0.375 -0.46875,-0.6445312 -0.9140625,-0.6445312 -1.171875,0 -2.40234378,1.4648437 -2.40234378,2.9179687 0,0.93750005 0.55078125,1.59375005 1.32421878,1.59375005 0.1992187,0 0.703125,-0.03515625 1.3007812,-0.73828125 0.070312,0.41015625 0.421875,0.73828125 0.9023438,0.73828125 0.3515625,0 0.5742187,-0.22265625 0.7382812,-0.5390625 0.1640625,-0.36328125 0.2929688,-0.97265625 0.2929688,-0.99609375 0,-0.09375 -0.082031,-0.09375 -0.1171875,-0.09375 -0.09375,0 -0.1054688,0.035156 -0.140625,0.1757812 -0.1640625,0.6445313 -0.3515625,1.24218755 -0.75,1.24218755 -0.2695313,0 -0.3046875,-0.2578125 -0.3046875,-0.45703125 0,-0.22265625 0.023437,-0.3046875 0.1289062,-0.7382813 0.1171875,-0.421875 0.1289063,-0.5273437 0.2226563,-0.9023437 l 0.3515625,-1.3945313 c 0.070312,-0.28125 0.070312,-0.2929687 0.070312,-0.3398437 0,-0.1640625 -0.1171875,-0.2695313 -0.28125,-0.2695313 -0.2460938,0 -0.3867188,0.2226563 -0.4218745,0.4453125 z m -0.6445313,2.578125 c -0.046875,0.1757813 -0.046875,0.1992188 -0.1992187,0.3632813 -0.4453125,0.55078125 -0.84375,0.71484375 -1.125,0.71484375 -0.5039063,0 -0.6445313,-0.55078125 -0.6445313,-0.93750005 0,-0.5039062 0.328125,-1.7226562 0.5507813,-2.1796875 0.3046875,-0.5976562 0.7617187,-0.9609375 1.1601562,-0.9609375 0.6445313,0 0.7851563,0.8203125 0.7851563,0.8789063 0,0.058594 -0.023437,0.1171875 -0.035156,0.1640625 z m 0,0"
         style="fill:#ffffff;fill-opacity:1;fill-rule:nonzero;stroke:none" />
      <path
         id="path7"
         d="m 7.5981875,-2.9364844 c 0,-0.1875 -0.011719,-0.1992187 -0.2109375,-0.1992187 -0.4453125,0.4335937 -1.078125,0.4453125 -1.359375,0.4453125 v 0.2460937 c 0.1640625,0 0.6210937,0 1.0078125,-0.1875 v 3.55078127 c 0,0.23437503 0,0.32812503 -0.6914063,0.32812503 H 6.07475 v 0.2460937 c 0.1289062,-0.011719 0.984375,-0.023437 1.2421875,-0.023437 0.2109375,0 1.0898438,0.011719 1.2421875,0.023437 V 1.2471094 H 8.3013125 c -0.703125,0 -0.703125,-0.09375 -0.703125,-0.32812503 z m 5.1562505,3.16406252 h -0.234375 c -0.02344,0.15234375 -0.08203,0.5625 -0.175782,0.6328125 -0.05859,0.0351563 -0.597656,0.0351563 -0.691406,0.0351563 h -1.289062 c 0.738281,-0.64453125 0.984375,-0.84375 1.394531,-1.171875 0.515625,-0.41015625 0.996094,-0.84374992 0.996094,-1.49999992 0,-0.8437501 -0.738282,-1.3593751 -1.628907,-1.3593751 -0.867187,0 -1.4531247,0.609375 -1.4531247,1.2421876 0,0.3632812 0.3046875,0.3984375 0.3749997,0.3984375 0.164063,0 0.375,-0.1171875 0.375,-0.375 0,-0.1289063 -0.05859,-0.3632814 -0.421875,-0.3632814 0.222657,-0.5039062 0.691407,-0.65625 1.019532,-0.65625 0.703125,0 1.066406,0.5507813 1.066406,1.1132813 0,0.609375 -0.433594,1.08984377 -0.65625,1.33593752 L 9.7427188,1.2236719 c -0.070312,0.058594 -0.070312,0.070312 -0.070312,0.2695312 H 12.55522 Z m 0,0"
         style="fill:#ffffff;fill-opacity:1;fill-rule:nonzero;stroke:none" />
    </g>
    <path
       id="path8"
       d="m 14.17339,-21.2601 c 0,7.82785 -6.34555,14.1734 -14.17339,14.1734 -7.82784,0 -14.17339,-6.34555 -14.17339,-14.1734 0,-7.82785 6.34555,-14.17339 14.17339,-14.17339 7.82784,0 14.17339,6.34554 14.17339,14.17339 z"
       style="fill:none;stroke:#ffffff;stroke-width:0.3985;stroke-linecap:butt;stroke-linejoin:miter;stroke-miterlimit:10;stroke-dasharray:none;stroke-opacity:1"
       transform="matrix(1.3333333,0,0,-1.3333333,19.162667,104.20267)" />
    <g
       id="g8"
       aria-label="a&#10;13"
       transform="matrix(1.3333333,0,0,1.3333333,10.025333,134.412)">
      <path
         id="path9"
         d="m 3.7134219,-3.7631016 c -0.1757813,-0.375 -0.46875,-0.6445312 -0.9140625,-0.6445312 -1.171875,0 -2.40234378,1.4648437 -2.40234378,2.9179687 0,0.93750004 0.55078125,1.59375004 1.32421878,1.59375004 0.1992187,0 0.703125,-0.03515625 1.3007812,-0.73828125 0.070312,0.41015625 0.421875,0.73828125 0.9023438,0.73828125 0.3515625,0 0.5742187,-0.22265625 0.7382812,-0.5390625 0.1640625,-0.36328125 0.2929688,-0.97265624 0.2929688,-0.99609374 0,-0.09375 -0.082031,-0.09375 -0.1171875,-0.09375 -0.09375,0 -0.1054688,0.035156 -0.140625,0.1757812 -0.1640625,0.64453129 -0.3515625,1.24218754 -0.75,1.24218754 -0.2695313,0 -0.3046875,-0.2578125 -0.3046875,-0.45703125 0,-0.22265625 0.023437,-0.3046875 0.1289062,-0.73828129 0.1171875,-0.421875 0.1289063,-0.5273437 0.2226563,-0.9023437 l 0.3515625,-1.3945313 c 0.070312,-0.28125 0.070312,-0.2929687 0.070312,-0.3398437 0,-0.1640625 -0.1171875,-0.2695313 -0.28125,-0.2695313 -0.2460938,0 -0.3867188,0.2226563 -0.4218745,0.4453125 z m -0.6445313,2.578125 c -0.046875,0.1757813 -0.046875,0.19921879 -0.1992187,0.36328129 -0.4453125,0.55078125 -0.84375,0.71484375 -1.125,0.71484375 -0.5039063,0 -0.6445313,-0.55078125 -0.6445313,-0.93750004 0,-0.5039062 0.328125,-1.7226562 0.5507813,-2.1796875 0.3046875,-0.5976562 0.7617187,-0.9609375 1.1601562,-0.9609375 0.6445313,0 0.7851563,0.8203125 0.7851563,0.8789063 0,0.058594 -0.023437,0.1171875 -0.035156,0.1640625 z m 0,0"
         style="fill:#ffffff;fill-opacity:1;fill-rule:nonzero;stroke:none" />
      <path
         id="path10"
         d="m 7.5981875,-2.934 c 0,-0.1875 -0.011719,-0.1992187 -0.2109375,-0.1992187 -0.4453125,0.4335937 -1.078125,0.4453125 -1.359375,0.4453125 v 0.2460937 c 0.1640625,0 0.6210937,0 1.0078125,-0.1875 v 3.55078125 c 0,0.23437505 0,0.32812505 -0.6914063,0.32812505 H 6.07475 V 1.4956875 C 6.2036562,1.4839688 7.059125,1.47225 7.3169375,1.47225 c 0.2109375,0 1.0898438,0.011719 1.2421875,0.023437 V 1.2495938 H 8.3013125 c -0.703125,0 -0.703125,-0.09375 -0.703125,-0.32812505 z m 3.5390625,2.09765625 c 0.550781,0 0.9375,0.375 0.9375,1.125 0,0.86718755 -0.503906,1.12500005 -0.902344,1.12500005 -0.28125,0 -0.890625,-0.082031 -1.1835935,-0.49218755 C 10.316938,0.90975 10.38725,0.675375 10.38725,0.53475 c 0,-0.22265625 -0.164062,-0.38671875 -0.386719,-0.38671875 -0.1874997,0 -0.3867185,0.1171875 -0.3867185,0.41015625 0,0.65625 0.7265625,1.078125 1.5703125,1.078125 0.972656,0 1.640625,-0.64453125 1.640625,-1.34765625 0,-0.5390625 -0.445312,-1.08984375 -1.21875,-1.2421875 0.738281,-0.26953125 0.996094,-0.79687495 0.996094,-1.21874995 0,-0.5507813 -0.632813,-0.9609375 -1.40625,-0.9609375 -0.773438,0 -1.3593752,0.375 -1.3593752,0.9375 0,0.234375 0.1523437,0.3632812 0.3632812,0.3632812 0.210938,0 0.351563,-0.1640625 0.351563,-0.3515625 0,-0.1992187 -0.140625,-0.3515625 -0.351563,-0.3632812 C 10.434125,-2.8519687 10.914594,-2.934 11.172406,-2.934 c 0.316407,0 0.761719,0.1523438 0.761719,0.7617188 0,0.2929687 -0.105469,0.609375 -0.28125,0.8320312 -0.234375,0.2578125 -0.421875,0.28125 -0.773437,0.2929688 -0.175782,0.023437 -0.1875,0.023437 -0.222657,0.023437 -0.01172,0 -0.07031,0.011719 -0.07031,0.0937499 0,0.09375 0.05859,0.09375 0.175781,0.09375 z m 0,0"
         style="fill:#ffffff;fill-opacity:1;fill-rule:nonzero;stroke:none" />
    </g>
    <path
       id="path11"
       d="m 14.17339,-63.7803 c 0,7.82785 -6.34555,14.1734 -14.17339,14.1734 -7.82784,0 -14.17339,-6.34555 -14.17339,-14.1734 0,-7.82785 6.34555,-14.1734 14.17339,-14.1734 7.82784,0 14.17339,6.34555 14.17339,14.1734 z"
       style="fill:none;stroke:#ffffff;stroke-width:0.3985;stroke-linecap:butt;stroke-linejoin:miter;stroke-miterlimit:10;stroke-dasharray:none;stroke-opacity:1"
       transform="matrix(1.3333333,0,0,-1.3333333,19.162667,104.20267)" />
    <g
       id="g11"
       aria-label="a&#10;14"
       transform="matrix(1.3333333,0,0,1.3333333,10.025333,191.10533)">
      <path
         id="path12"
         d="m 3.7134219,-3.7616172 c -0.1757813,-0.375 -0.46875,-0.6445312 -0.9140625,-0.6445312 -1.171875,0 -2.40234378,1.4648437 -2.40234378,2.9179687 0,0.93750001 0.55078125,1.59375001 1.32421878,1.59375001 0.1992187,0 0.703125,-0.03515625 1.3007812,-0.73828125 0.070312,0.41015625 0.421875,0.73828125 0.9023438,0.73828125 0.3515625,0 0.5742187,-0.22265625 0.7382812,-0.5390625 0.1640625,-0.36328125 0.2929688,-0.97265621 0.2929688,-0.99609371 0,-0.09375 -0.082031,-0.09375 -0.1171875,-0.09375 -0.09375,0 -0.1054688,0.035156 -0.140625,0.1757812 -0.1640625,0.64453126 -0.3515625,1.24218751 -0.75,1.24218751 -0.2695313,0 -0.3046875,-0.2578125 -0.3046875,-0.45703125 0,-0.22265625 0.023437,-0.3046875 0.1289062,-0.73828126 0.1171875,-0.421875 0.1289063,-0.5273437 0.2226563,-0.9023437 l 0.3515625,-1.3945313 c 0.070312,-0.28125 0.070312,-0.2929687 0.070312,-0.3398437 0,-0.1640625 -0.1171875,-0.2695313 -0.28125,-0.2695313 -0.2460938,0 -0.3867188,0.2226563 -0.4218745,0.4453125 z m -0.6445313,2.578125 c -0.046875,0.1757813 -0.046875,0.19921876 -0.1992187,0.36328126 -0.4453125,0.55078125 -0.84375,0.71484375 -1.125,0.71484375 -0.5039063,0 -0.6445313,-0.55078125 -0.6445313,-0.93750001 0,-0.5039062 0.328125,-1.7226562 0.5507813,-2.1796875 0.3046875,-0.5976562 0.7617187,-0.9609375 1.1601562,-0.9609375 0.6445313,0 0.7851563,0.8203125 0.7851563,0.8789063 0,0.058594 -0.023437,0.1171875 -0.035156,0.1640625 z m 0,0"
         style="fill:#ffffff;fill-opacity:1;fill-rule:nonzero;stroke:none" />
      <path
         id="path13"
         d="m 7.5981875,-2.9354453 c 0,-0.1875 -0.011719,-0.1992188 -0.2109375,-0.1992188 -0.4453125,0.4335938 -1.078125,0.4453125 -1.359375,0.4453125 v 0.2460938 c 0.1640625,0 0.6210937,0 1.0078125,-0.1875 v 3.55078124 c 0,0.23437496 0,0.32812496 -0.6914063,0.32812496 H 6.07475 v 0.2460938 c 0.1289062,-0.011719 0.984375,-0.023437 1.2421875,-0.023437 0.2109375,0 1.0898438,0.011719 1.2421875,0.023437 V 1.2481484 H 8.3013125 c -0.703125,0 -0.703125,-0.09375 -0.703125,-0.32812496 z M 12.930219,0.34580469 V 0.09971094 H 12.156781 V -3.0057578 c 0,-0.1523438 0,-0.1992188 -0.152343,-0.1992188 -0.09375,0 -0.117188,0 -0.1875,0.09375 L 9.5083438,0.09971094 v 0.24609375 h 2.0507812 v 0.57421875 c 0,0.23437496 0,0.32812496 -0.5625,0.32812496 h -0.1875 v 0.2460938 c 0.351563,-0.011719 0.796875,-0.023437 1.042969,-0.023437 0.257812,0 0.703125,0.011719 1.054687,0.023437 V 1.2481484 h -0.1875 c -0.5625,0 -0.5625,-0.09375 -0.5625,-0.32812496 V 0.34580469 Z M 11.606,-2.4549766 V 0.09971094 H 9.7661563 Z m 0,0"
         style="fill:#ffffff;fill-opacity:1;fill-rule:nonzero;stroke:none" />
    </g>
    <path
       id="path14"
       d="m 71.0663,-17.00804 h 76.61751 v 34.0161 H 71.0663 Z"
       style="fill:none;stroke:#ffffff;stroke-width:0.3985;stroke-linecap:butt;stroke-linejoin:miter;stroke-miterlimit:10;stroke-dasharray:none;stroke-opacity:1"
       transform="matrix(1.3333333,0,0,-1.3333333,19.162667,104.20267)" />
    <g
       id="g14"
       aria-label="P&#10;w&#10;(2)&#10;i3&#10;a&#10;1i&#10;+b&#10;(2)&#10;3"
       transform="matrix(1.3333333,0,0,1.3333333,118.344,99.325333)">
      <path
         id="path15"
         d="M 4.195125,5.3194766 0.6560625,9.6905703 c -0.0820313,0.1054688 -0.09375,0.1171875 -0.09375,0.1640625 0,0.1054688 0.09375,0.1054688 0.26953125,0.1054688 H 9.0935625 L 9.9490313,7.4757266 H 9.7029375 c -0.2460937,0.75 -0.9140625,1.359375 -1.7695312,1.6523437 -0.1523438,0.046875 -0.84375,0.28125 -2.3085938,0.28125 H 1.3943438 L 4.851375,5.1436953 c 0.070312,-0.09375 0.09375,-0.1289062 0.09375,-0.1640625 0,-0.035156 -0.011719,-0.046875 -0.070312,-0.140625 L 1.6287188,0.39760156 h 3.9492187 c 1.1367188,0 3.421875,0.0703125 4.125,1.93359374 H 9.9490313 L 9.0935625,-8.359375e-4 H 0.83184375 c -0.26953125,0 -0.26953125,0.0117187475 -0.26953125,0.3164062475 z m 0,0"
         style="fill:#ffffff;fill-opacity:1;fill-rule:nonzero;stroke:none" />
      <path
         id="path16"
         d="m 16.781063,4.0977969 c 0.04687,-0.2226563 0.140625,-0.5859375 0.140625,-0.6445313 0,-0.1875 -0.128907,-0.2695312 -0.28125,-0.2695312 -0.117188,0 -0.304688,0.070312 -0.375,0.2695312 -0.02344,0.070312 -0.492188,1.9804688 -0.5625,2.2382813 -0.07031,0.2929687 -0.09375,0.4804687 -0.09375,0.65625 0,0.1054687 0,0.1289062 0.01172,0.1757812 -0.222656,0.5273438 -0.527343,0.84375 -0.914062,0.84375 -0.796875,0 -0.796875,-0.7382812 -0.796875,-0.9140625 0,-0.3164062 0.04687,-0.703125 0.515625,-1.9335937 0.105469,-0.2929688 0.175781,-0.4335938 0.175781,-0.6328125 0,-0.4453125 -0.328125,-0.8203125 -0.820312,-0.8203125 -0.949219,0 -1.3125,1.453125 -1.3125,1.5351562 0,0.1054688 0.09375,0.1054688 0.117187,0.1054688 0.09375,0 0.105469,-0.023437 0.152344,-0.1875 0.269531,-0.9257813 0.667969,-1.2304688 1.007812,-1.2304688 0.09375,0 0.257813,0.011719 0.257813,0.328125 0,0.2460938 -0.117188,0.5273438 -0.1875,0.703125 -0.433594,1.171875 -0.550781,1.6289063 -0.550781,2.0039063 0,0.9140625 0.667968,1.2539062 1.40625,1.2539062 0.175781,0 0.644531,0 1.042968,-0.6914062 0.257813,0.6328125 0.949219,0.6914062 1.242188,0.6914062 0.75,0 1.183594,-0.6210937 1.441406,-1.21875 0.339844,-0.7851562 0.65625,-2.109375 0.65625,-2.5898437 0,-0.5507813 -0.269531,-0.703125 -0.433594,-0.703125 -0.246093,0 -0.503906,0.2578125 -0.503906,0.4804687 0,0.1289063 0.07031,0.1875 0.152344,0.2695313 0.117187,0.1054687 0.363281,0.3632812 0.363281,0.84375 0,0.3398437 -0.292969,1.3125 -0.550781,1.828125 -0.257813,0.5273437 -0.609375,0.8789062 -1.089844,0.8789062 -0.46875,0 -0.738281,-0.3046875 -0.738281,-0.8671875 0,-0.28125 0.07031,-0.5859375 0.105469,-0.7265625 z m 0,0"
         style="fill:#ffffff;fill-opacity:1;fill-rule:nonzero;stroke:none" />
      <path
         id="path17"
         d="m 22.048641,-2.9305234 c -1.324219,0.9257812 -1.675782,2.41406246 -1.675782,3.48046871 0,0.98437499 0.292969,2.50781249 1.675782,3.48046879 0.05859,0 0.140625,0 0.140625,-0.082031 0,-0.046875 -0.02344,-0.058594 -0.07031,-0.1054687 -0.925781,-0.8320313 -1.265625,-2.015625 -1.265625,-3.29296879 0,-1.87500001 0.714844,-2.80078121 1.289063,-3.31640621 0.02344,-0.023437 0.04687,-0.046875 0.04687,-0.082031 0,-0.082031 -0.08203,-0.082031 -0.140625,-0.082031 z m 4.157226,3.9609375 h -0.234375 c -0.02344,0.1523437 -0.08203,0.5625 -0.175781,0.6328125 -0.05859,0.035156 -0.597656,0.035156 -0.691406,0.035156 h -1.289063 c 0.738281,-0.6445312 0.984375,-0.84374999 1.394531,-1.17187499 0.515625,-0.41015625 0.996094,-0.84375 0.996094,-1.5 0,-0.84375001 -0.738281,-1.35937501 -1.628906,-1.35937501 -0.867188,0 -1.453125,0.609375 -1.453125,1.2421875 0,0.36328126 0.304687,0.39843751 0.375,0.39843751 0.164062,0 0.375,-0.1171875 0.375,-0.37500001 0,-0.1289062 -0.05859,-0.3632812 -0.421875,-0.3632812 0.222656,-0.5039063 0.691406,-0.65625 1.019531,-0.65625 0.703125,0 1.066406,0.5507812 1.066406,1.11328121 0,0.609375 -0.433593,1.08984375 -0.65625,1.3359375 l -1.6875,1.66406249 c -0.07031,0.058594 -0.07031,0.070312 -0.07031,0.2695313 h 2.882812 z m 1.089844,-3.9609375 c -0.05859,0 -0.140625,0 -0.140625,0.082031 0,0.035156 0.02344,0.058594 0.07031,0.1054688 0.597657,0.5507812 1.265625,1.4882812 1.265625,3.29296871 0,1.45312499 -0.457031,2.55468749 -1.207031,3.23437499 -0.117187,0.1171875 -0.128906,0.1289063 -0.128906,0.1640625 0,0.035156 0.02344,0.082031 0.09375,0.082031 0.08203,0 0.75,-0.4570313 1.207031,-1.3242188 0.304688,-0.5859375 0.503906,-1.3359375 0.503906,-2.15624999 0,-0.984375 -0.292968,-2.50781251 -1.664062,-3.48046871 z m 0,0"
         style="fill:#ffffff;fill-opacity:1;fill-rule:nonzero;stroke:none" />
      <path
         id="path18"
         d="m 21.571102,5.8907656 c 0,-0.1054687 -0.08203,-0.2578125 -0.28125,-0.2578125 -0.1875,0 -0.386719,0.1757813 -0.386719,0.375 0,0.1171875 0.08203,0.2695313 0.269531,0.2695313 0.210938,0 0.398438,-0.1992188 0.398438,-0.3867188 z m -1.429688,3.5390625 c -0.02344,0.09375 -0.05859,0.1757813 -0.05859,0.2929688 0,0.3281251 0.28125,0.5976561 0.667969,0.5976561 0.691406,0 0.996094,-0.9609374 0.996094,-1.0664061 0,-0.09375 -0.08203,-0.09375 -0.105469,-0.09375 -0.105469,0 -0.105469,0.046875 -0.140625,0.1171875 -0.152344,0.5625 -0.457031,0.8437496 -0.738281,0.8437496 -0.140625,0 -0.175781,-0.08203 -0.175781,-0.2460934 0,-0.1523437 0.05859,-0.2929687 0.117187,-0.4453125 0.07031,-0.1875 0.140625,-0.375 0.222656,-0.5507812 0.05859,-0.1640625 0.316407,-0.8085938 0.339844,-0.890625 0.02344,-0.070312 0.04687,-0.1523438 0.04687,-0.2226563 0,-0.328125 -0.28125,-0.5859375 -0.667969,-0.5859375 -0.691406,0 -1.007812,0.9492188 -1.007812,1.0664063 0,0.082031 0.09375,0.082031 0.117187,0.082031 0.09375,0 0.105469,-0.035156 0.128907,-0.1054687 0.175781,-0.5976563 0.480468,-0.8554688 0.738281,-0.8554688 0.117187,0 0.175781,0.058594 0.175781,0.2460938 0,0.1640625 -0.03516,0.2695312 -0.210937,0.703125 z m 0,0"
         style="fill:#ffffff;fill-opacity:1;fill-rule:nonzero;stroke:none" />
      <path
         id="path19"
         d="m 24.02618,7.9181094 c 0.550781,0 0.9375,0.375 0.9375,1.125 0,0.8671875 -0.503907,1.1249996 -0.902344,1.1249996 -0.28125,0 -0.890625,-0.08203 -1.183594,-0.4921871 0.328125,-0.011719 0.398438,-0.2460938 0.398438,-0.3867188 0,-0.2226562 -0.164063,-0.3867187 -0.386719,-0.3867187 -0.1875,0 -0.386719,0.1171875 -0.386719,0.4101562 0,0.65625 0.726563,1.0781254 1.570313,1.0781254 0.972656,0 1.640625,-0.6445316 1.640625,-1.3476566 0,-0.5390625 -0.445313,-1.0898438 -1.21875,-1.2421875 0.738281,-0.2695313 0.996093,-0.796875 0.996093,-1.21875 0,-0.5507813 -0.632812,-0.9609375 -1.40625,-0.9609375 -0.773437,0 -1.359375,0.375 -1.359375,0.9375 0,0.234375 0.152344,0.3632812 0.363282,0.3632812 0.210937,0 0.351562,-0.1640625 0.351562,-0.3515625 0,-0.1992187 -0.140625,-0.3515625 -0.351562,-0.3632812 0.234375,-0.3046875 0.714843,-0.3867188 0.972656,-0.3867188 0.316406,0 0.761719,0.1523438 0.761719,0.7617188 0,0.2929687 -0.105469,0.609375 -0.28125,0.8320312 -0.234375,0.2578125 -0.421875,0.28125 -0.773438,0.2929688 -0.175781,0.023437 -0.1875,0.023437 -0.222656,0.023437 -0.01172,0 -0.07031,0.011719 -0.07031,0.09375 0,0.09375 0.05859,0.09375 0.175782,0.09375 z m 0,0"
         style="fill:#ffffff;fill-opacity:1;fill-rule:nonzero;stroke:none" />
      <path
         id="path20"
         d="m 33.987117,3.7110781 c -0.175781,-0.375 -0.46875,-0.6445312 -0.914062,-0.6445312 -1.171875,0 -2.402344,1.4648437 -2.402344,2.9179687 0,0.9375 0.550781,1.59375 1.324219,1.59375 0.199218,0 0.703125,-0.035156 1.300781,-0.7382812 0.07031,0.4101562 0.421875,0.7382812 0.902344,0.7382812 0.351562,0 0.574218,-0.2226562 0.738281,-0.5390625 0.164062,-0.3632812 0.292969,-0.9726562 0.292969,-0.9960937 0,-0.09375 -0.08203,-0.09375 -0.117188,-0.09375 -0.09375,0 -0.105469,0.035156 -0.140625,0.1757812 -0.164062,0.6445313 -0.351562,1.2421875 -0.75,1.2421875 -0.269531,0 -0.304687,-0.2578125 -0.304687,-0.4570312 0,-0.2226563 0.02344,-0.3046875 0.128906,-0.7382813 0.117187,-0.421875 0.128906,-0.5273437 0.222656,-0.9023437 L 34.61993,3.8751406 c 0.07031,-0.28125 0.07031,-0.2929687 0.07031,-0.3398437 0,-0.1640625 -0.117187,-0.2695313 -0.28125,-0.2695313 -0.246094,0 -0.386719,0.2226563 -0.421875,0.4453125 z m -0.644531,2.578125 c -0.04687,0.1757813 -0.04687,0.1992188 -0.199219,0.3632813 -0.445312,0.5507812 -0.84375,0.7148437 -1.125,0.7148437 -0.503906,0 -0.644531,-0.5507812 -0.644531,-0.9375 0,-0.5039062 0.328125,-1.7226562 0.550781,-2.1796875 0.304688,-0.5976562 0.761719,-0.9609375 1.160156,-0.9609375 0.644532,0 0.785157,0.8203125 0.785157,0.8789063 0,0.058594 -0.02344,0.1171875 -0.03516,0.1640625 z m 0,0"
         style="fill:#ffffff;fill-opacity:1;fill-rule:nonzero;stroke:none" />
      <path
         id="path21"
         d="m 37.871883,4.53725 c 0,-0.1875 -0.01172,-0.1992187 -0.210938,-0.1992187 C 37.215633,4.771625 36.58282,4.7833438 36.30157,4.7833438 v 0.2460937 c 0.164063,0 0.621094,0 1.007813,-0.1875 v 3.5507813 c 0,0.234375 0,0.328125 -0.691406,0.328125 H 36.348445 V 8.9669375 C 36.477352,8.9552188 37.33282,8.9435 37.590633,8.9435 c 0.210937,0 1.089844,0.011719 1.242187,0.023437 V 8.7208438 h -0.257812 c -0.703125,0 -0.703125,-0.09375 -0.703125,-0.328125 z m 0,0"
         style="fill:#ffffff;fill-opacity:1;fill-rule:nonzero;stroke:none" />
      <path
         id="path22"
         d="m 41.771297,4.6075625 c 0,-0.1054687 -0.08203,-0.2578125 -0.28125,-0.2578125 -0.1875,0 -0.386719,0.1757813 -0.386719,0.375 0,0.1171875 0.08203,0.2695313 0.269531,0.2695313 0.210938,0 0.398438,-0.1992188 0.398438,-0.3867188 z M 40.341609,8.146625 c -0.02344,0.09375 -0.05859,0.1757813 -0.05859,0.2929688 0,0.328125 0.28125,0.5976562 0.667968,0.5976562 0.691407,0 0.996094,-0.9609375 0.996094,-1.0664062 0,-0.09375 -0.08203,-0.09375 -0.105469,-0.09375 -0.105468,0 -0.105468,0.046875 -0.140625,0.1171875 -0.152343,0.5625 -0.457031,0.84375 -0.738281,0.84375 -0.140625,0 -0.175781,-0.082031 -0.175781,-0.2460938 0,-0.1523437 0.05859,-0.2929687 0.117187,-0.4453125 0.07031,-0.1875 0.140625,-0.375 0.222657,-0.5507812 0.05859,-0.1640625 0.316406,-0.8085938 0.339843,-0.890625 0.02344,-0.070312 0.04687,-0.1523438 0.04687,-0.2226563 0,-0.328125 -0.28125,-0.5859375 -0.667968,-0.5859375 -0.691407,0 -1.007813,0.9492188 -1.007813,1.0664063 0,0.082031 0.09375,0.082031 0.117188,0.082031 0.09375,0 0.105468,-0.035156 0.128906,-0.1054687 0.175781,-0.5976563 0.480469,-0.8554688 0.738281,-0.8554688 0.117188,0 0.175781,0.058594 0.175781,0.2460938 0,0.1640625 -0.03516,0.2695312 -0.210937,0.703125 z m 0,0"
         style="fill:#ffffff;fill-opacity:1;fill-rule:nonzero;stroke:none" />
      <path
         id="path23"
         d="m 49.118953,5.1759219 h 2.777344 c 0.140625,0 0.328125,0 0.328125,-0.1992188 0,-0.1992187 -0.1875,-0.1992187 -0.328125,-0.1992187 H 49.118953 V 1.9884219 c 0,-0.1289063 0,-0.328125 -0.199219,-0.328125 -0.199218,0 -0.199218,0.1992187 -0.199218,0.328125 v 2.7890625 h -2.789063 c -0.140625,0 -0.328125,0 -0.328125,0.1992187 0,0.1992188 0.1875,0.1992188 0.328125,0.1992188 h 2.789063 v 2.8007812 c 0,0.1289063 0,0.328125 0.199218,0.328125 0.199219,0 0.199219,-0.1992187 0.199219,-0.328125 z m 0,0"
         style="fill:#ffffff;fill-opacity:1;fill-rule:nonzero;stroke:none" />
      <path
         id="path24"
         d="m 57.383602,0.66420313 c 0,0 0,-0.10546875 -0.128907,-0.10546875 -0.222656,0 -0.949218,0.0820313 -1.21875,0.10546875 -0.07031,0 -0.1875,0.0117188 -0.1875,0.19921875 0,0.1171875 0.09375,0.1171875 0.246094,0.1171875 0.46875,0 0.492188,0.0703125 0.492188,0.16406252 0,0.070312 -0.08203,0.4101562 -0.140625,0.6210937 l -0.808594,3.2460938 c -0.128906,0.5039062 -0.164063,0.65625 -0.164063,1.0078125 0,0.9492187 0.527344,1.5585937 1.265625,1.5585937 1.171875,0 2.402344,-1.4765625 2.402344,-2.9179687 0,-0.9023438 -0.527344,-1.59375 -1.324219,-1.59375 -0.457031,0 -0.867187,0.2929687 -1.171875,0.5976562 z m -0.9375,3.77343747 c 0.05859,-0.2226562 0.05859,-0.2460937 0.152343,-0.3515625 0.492188,-0.6445312 0.9375,-0.796875 1.195313,-0.796875 0.363281,0 0.632812,0.2929688 0.632812,0.9375 0,0.5859375 -0.328125,1.734375 -0.515625,2.109375 -0.328125,0.6679688 -0.785156,1.03125 -1.171875,1.03125 -0.339843,0 -0.667968,-0.2695312 -0.667968,-1.0078125 0,-0.1875 0,-0.3867187 0.164062,-1.0078125 z m 0,0"
         style="fill:#ffffff;fill-opacity:1;fill-rule:nonzero;stroke:none" />
      <path
         id="path25"
         d="m 61.751766,-2.9305234 c -1.324219,0.9257812 -1.675782,2.41406246 -1.675782,3.48046871 0,0.98437499 0.292969,2.50781249 1.675782,3.48046879 0.05859,0 0.140625,0 0.140625,-0.082031 0,-0.046875 -0.02344,-0.058594 -0.07031,-0.1054687 -0.925781,-0.8320313 -1.265625,-2.015625 -1.265625,-3.29296879 0,-1.87500001 0.714844,-2.80078121 1.289063,-3.31640621 0.02344,-0.023437 0.04687,-0.046875 0.04687,-0.082031 0,-0.082031 -0.08203,-0.082031 -0.140625,-0.082031 z m 4.157226,3.9609375 h -0.234375 c -0.02344,0.1523437 -0.08203,0.5625 -0.175781,0.6328125 -0.05859,0.035156 -0.597656,0.035156 -0.691406,0.035156 h -1.289063 c 0.738281,-0.6445312 0.984375,-0.84374999 1.394531,-1.17187499 0.515625,-0.41015625 0.996094,-0.84375 0.996094,-1.5 0,-0.84375001 -0.738281,-1.35937501 -1.628906,-1.35937501 -0.867188,0 -1.453125,0.609375 -1.453125,1.2421875 0,0.36328126 0.304687,0.39843751 0.375,0.39843751 0.164062,0 0.375,-0.1171875 0.375,-0.37500001 0,-0.1289062 -0.05859,-0.3632812 -0.421875,-0.3632812 0.222656,-0.5039063 0.691406,-0.65625 1.019531,-0.65625 0.703125,0 1.066406,0.5507812 1.066406,1.11328121 0,0.609375 -0.433593,1.08984375 -0.65625,1.3359375 l -1.6875,1.66406249 c -0.07031,0.058594 -0.07031,0.070312 -0.07031,0.2695313 h 2.882812 z m 1.089844,-3.9609375 c -0.05859,0 -0.140625,0 -0.140625,0.082031 0,0.035156 0.02344,0.058594 0.07031,0.1054688 0.597657,0.5507812 1.265625,1.4882812 1.265625,3.29296871 0,1.45312499 -0.457031,2.55468749 -1.207031,3.23437499 -0.117187,0.1171875 -0.128906,0.1289063 -0.128906,0.1640625 0,0.035156 0.02344,0.082031 0.09375,0.082031 0.08203,0 0.75,-0.4570313 1.207031,-1.3242188 0.304688,-0.5859375 0.503906,-1.3359375 0.503906,-2.15624999 0,-0.984375 -0.292968,-2.50781251 -1.664062,-3.48046871 z M 61.177547,7.7979922 c 0.550781,0 0.9375,0.375 0.9375,1.125 0,0.8671875 -0.503906,1.1249998 -0.902344,1.1249998 -0.28125,0 -0.890625,-0.082031 -1.183594,-0.4921873 0.328125,-0.011719 0.398438,-0.2460938 0.398438,-0.3867188 0,-0.2226562 -0.164063,-0.3867187 -0.386719,-0.3867187 -0.1875,0 -0.386719,0.1171875 -0.386719,0.4101562 0,0.65625 0.726563,1.0781246 1.570313,1.0781246 0.972656,0 1.640625,-0.6445308 1.640625,-1.3476558 0,-0.5390625 -0.445313,-1.0898438 -1.21875,-1.2421875 0.738281,-0.2695313 0.996094,-0.796875 0.996094,-1.21875 0,-0.5507813 -0.632813,-0.9609375 -1.40625,-0.9609375 -0.773438,0 -1.359375,0.375 -1.359375,0.9375 0,0.234375 0.152343,0.3632812 0.363281,0.3632812 0.210937,0 0.351562,-0.1640625 0.351562,-0.3515625 0,-0.1992187 -0.140625,-0.3515625 -0.351562,-0.3632812 0.234375,-0.3046875 0.714844,-0.3867188 0.972656,-0.3867188 0.316406,0 0.761719,0.1523438 0.761719,0.7617188 0,0.2929687 -0.105469,0.609375 -0.28125,0.8320312 -0.234375,0.2578125 -0.421875,0.28125 -0.773438,0.2929688 -0.175781,0.023437 -0.1875,0.023437 -0.222656,0.023437 -0.01172,0 -0.07031,0.011719 -0.07031,0.09375 0,0.09375 0.05859,0.09375 0.175781,0.09375 z m 0,0"
         style="fill:#ffffff;fill-opacity:1;fill-rule:nonzero;stroke:none" />
    </g>
    <path
       id="path26"
       d="m 233.9734,0 c 0,14.32504 -11.61244,25.93748 -25.9375,25.93748 -14.32505,0 -25.9375,-11.61244 -25.9375,-25.93748 0,-14.32504 11.61245,-25.93748 25.9375,-25.93748 14.32506,0 25.9375,11.61244 25.9375,25.93748 z"
       style="fill:none;stroke:#ffffff;stroke-width:0.3985;stroke-linecap:butt;stroke-linejoin:miter;stroke-miterlimit:10;stroke-dasharray:none;stroke-opacity:1"
       transform="matrix(1.3333333,0,0,-1.3333333,19.162667,104.20267)" />
    <path
       id="path27"
       d="M -5.66925,0 H 13.2077"
       style="fill:none;stroke:#ffffff;stroke-width:0.3985;stroke-linecap:butt;stroke-linejoin:miter;stroke-miterlimit:10;stroke-dasharray:none;stroke-opacity:1"
       transform="matrix(1.3333333,0,0,-1.3333333,295.48533,111.364)" />
    <path
       id="path28"
       d="M -2.07224,2.39104 C -1.69365,0.95639 -0.84999,0.27895 0,0 -0.84999,-0.27895 -1.69365,-0.95639 -2.07224,-2.39104"
       style="fill:none;stroke:#ffffff;stroke-width:0.3985;stroke-linecap:round;stroke-linejoin:round;stroke-miterlimit:10;stroke-dasharray:none;stroke-opacity:1"
       transform="matrix(1.3333333,0,0,-1.3333333,313.36127,111.364)" />
    <path
       id="path29"
       d="M 0,-2.26765 V 17.74323"
       style="fill:none;stroke:#ffffff;stroke-width:0.3985;stroke-linecap:butt;stroke-linejoin:miter;stroke-miterlimit:10;stroke-dasharray:none;stroke-opacity:1"
       transform="matrix(1.3333333,0,0,-1.3333333,295.48533,111.364)" />
    <path
       id="path30"
       d="M -2.07224,2.39104 C -1.69365,0.95639 -0.84999,0.27895 0,0 -0.84999,-0.27895 -1.69365,-0.95639 -2.07224,-2.39104"
       style="fill:none;stroke:#ffffff;stroke-width:0.3985;stroke-linecap:round;stroke-linejoin:round;stroke-miterlimit:10;stroke-dasharray:none;stroke-opacity:1"
       transform="matrix(0,-1.3333333,-1.3333333,0,295.48533,87.440707)" />
    <path
       id="path31"
       d="M -11.33855,0 H 0"
       style="fill:none;stroke:#ff0000;stroke-width:0.79701;stroke-linecap:butt;stroke-linejoin:miter;stroke-miterlimit:10;stroke-dasharray:none;stroke-opacity:1"
       transform="matrix(1.3333333,0,0,-1.3333333,295.48533,111.364)" />
    <path
       id="path32"
       d="M 0,11.33855 H 11.33855"
       style="fill:none;stroke:#ff0000;stroke-width:0.79701;stroke-linecap:butt;stroke-linejoin:miter;stroke-miterlimit:10;stroke-dasharray:none;stroke-opacity:1"
       transform="matrix(1.3333333,0,0,-1.3333333,295.48533,111.364)" />
    <path
       id="path33"
       d="m 2.3317891,-4.4300469 c 0,-0.1875 -0.011719,-0.1992187 -0.2109375,-0.1992187 -0.4453125,0.4335937 -1.078125,0.4453125 -1.35937504,0.4453125 v 0.2460937 c 0.1640625,0 0.62109374,0 1.00781254,-0.1875 v 3.55078127 c 0,0.234375 0,0.328125 -0.6914063,0.328125 H 0.80835156 V -3.59375e-4 C 0.93725781,-0.01207813 1.7927266,-0.02379688 2.0505391,-0.02379688 c 0.2109375,0 1.0898437,0.01171875 1.2421875,0.023437505 V -0.24645313 H 3.0349141 c -0.703125,0 -0.703125,-0.09375 -0.703125,-0.328125 z m 0,0"
       style="fill:#ffffff;fill-opacity:1;fill-rule:nonzero;stroke:none"
       aria-label="1"
       transform="matrix(1.3333333,0,0,1.3333333,288.40267,99.242667)" />
    <path
       id="path34"
       d="m 296.7348,0 c 0,7.82784 -6.34555,14.17339 -14.1734,14.17339 -7.82785,0 -14.1734,-6.34555 -14.1734,-14.17339 0,-7.82784 6.34555,-14.17339 14.1734,-14.17339 7.82785,0 14.1734,6.34555 14.1734,14.17339 z"
       style="fill:none;stroke:#ffffff;stroke-width:0.3985;stroke-linecap:butt;stroke-linejoin:miter;stroke-miterlimit:10;stroke-dasharray:none;stroke-opacity:1"
       transform="matrix(1.3333333,0,0,-1.3333333,19.162667,104.20267)" />
    <g
       id="g34"
       aria-label="a&#10;23"
       transform="matrix(1.3333333,0,0,1.3333333,386.76933,106.06667)">
      <path
         id="path35"
         d="m 3.7149922,-3.7619141 c -0.1757813,-0.375 -0.46875,-0.6445312 -0.9140625,-0.6445312 -1.171875,0 -2.40234376,1.4648437 -2.40234376,2.9179687 0,0.93750004 0.55078125,1.59375004 1.32421876,1.59375004 0.1992187,0 0.703125,-0.03515625 1.3007812,-0.73828125 0.070312,0.41015625 0.421875,0.73828125 0.9023438,0.73828125 0.3515625,0 0.5742187,-0.22265625 0.7382812,-0.5390625 0.1640625,-0.36328125 0.2929688,-0.97265624 0.2929688,-0.99609374 0,-0.09375 -0.082031,-0.09375 -0.1171875,-0.09375 -0.09375,0 -0.1054688,0.035156 -0.140625,0.1757812 -0.1640625,0.64453129 -0.3515625,1.24218754 -0.75,1.24218754 -0.2695313,0 -0.3046875,-0.2578125 -0.3046875,-0.45703125 0,-0.22265625 0.023437,-0.3046875 0.1289062,-0.73828129 0.1171875,-0.421875 0.1289063,-0.5273437 0.2226563,-0.9023437 l 0.3515625,-1.3945313 c 0.070312,-0.28125 0.070312,-0.2929687 0.070312,-0.3398437 0,-0.1640625 -0.1171875,-0.2695313 -0.28125,-0.2695313 -0.2460938,0 -0.3867188,0.2226563 -0.4218745,0.4453125 z m -0.6445313,2.578125 c -0.046875,0.1757813 -0.046875,0.19921879 -0.1992187,0.36328129 -0.4453125,0.55078125 -0.84375,0.71484375 -1.125,0.71484375 -0.5039063,0 -0.6445313,-0.55078125 -0.6445313,-0.93750004 0,-0.5039062 0.328125,-1.7226562 0.5507813,-2.1796875 0.3046875,-0.5976562 0.7617187,-0.9609375 1.1601562,-0.9609375 0.6445313,0 0.7851563,0.8203125 0.7851563,0.8789063 0,0.058594 -0.023437,0.1171875 -0.035156,0.1640625 z m 0,0"
         style="fill:#ffffff;fill-opacity:1;fill-rule:nonzero;stroke:none" />
      <path
         id="path36"
         d="m 8.7804219,0.22832031 h -0.234375 c -0.023437,0.15234375 -0.082031,0.5625 -0.1757813,0.6328125 -0.058594,0.0351563 -0.5976562,0.0351563 -0.6914062,0.0351563 H 6.3897969 c 0.7382812,-0.64453125 0.984375,-0.84375 1.3945312,-1.171875 0.515625,-0.41015625 0.9960938,-0.84375001 0.9960938,-1.50000001 0,-0.84375 -0.7382813,-1.359375 -1.6289063,-1.359375 -0.8671875,0 -1.453125,0.609375 -1.453125,1.2421875 0,0.3632813 0.3046875,0.3984375 0.375,0.3984375 0.1640625,0 0.375,-0.1171875 0.375,-0.375 0,-0.1289062 -0.058594,-0.3632813 -0.421875,-0.3632813 0.2226563,-0.5039062 0.6914063,-0.65625 1.0195313,-0.65625 0.703125,0 1.0664062,0.5507813 1.0664062,1.1132813 0,0.609375 -0.4335937,1.08984376 -0.65625,1.33593751 l -1.6875,1.66406249 c -0.070312,0.058594 -0.070312,0.070312 -0.070312,0.2695312 h 2.8828125 z m 2.3554691,-1.06640625 c 0.550781,0 0.9375,0.375 0.9375,1.125 0,0.86718754 -0.503907,1.12500004 -0.902344,1.12500004 -0.28125,0 -0.890625,-0.082031 -1.1835939,-0.49218754 0.3281249,-0.0117188 0.3984379,-0.24609375 0.3984379,-0.38671875 0,-0.22265625 -0.164063,-0.38671875 -0.3867191,-0.38671875 -0.1875,0 -0.3867188,0.1171875 -0.3867188,0.41015625 0,0.65624999 0.7265629,1.07812499 1.5703129,1.07812499 0.972656,0 1.640625,-0.64453124 1.640625,-1.34765624 0,-0.5390625 -0.445313,-1.08984375 -1.21875,-1.2421875 0.738281,-0.26953126 0.996093,-0.79687496 0.996093,-1.21874996 0,-0.5507813 -0.632812,-0.9609375 -1.40625,-0.9609375 -0.773437,0 -1.3593746,0.375 -1.3593746,0.9375 0,0.234375 0.1523437,0.3632812 0.3632816,0.3632812 0.210937,0 0.351562,-0.1640625 0.351562,-0.3515625 0,-0.1992187 -0.140625,-0.3515625 -0.351562,-0.3632812 0.234375,-0.3046875 0.714843,-0.3867188 0.972656,-0.3867188 0.316406,0 0.761719,0.1523438 0.761719,0.7617188 0,0.2929687 -0.105469,0.609375 -0.28125,0.8320312 -0.234375,0.2578125 -0.421875,0.28125 -0.773438,0.2929688 -0.175781,0.023437 -0.1875,0.023437 -0.222656,0.023437 -0.01172,0 -0.07031,0.011719 -0.07031,0.09375 0,0.09375 0.05859,0.09375 0.175782,0.09375 z m 0,0"
         style="fill:#ffffff;fill-opacity:1;fill-rule:nonzero;stroke:none" />
    </g>
    <path
       id="path37"
       d="M 12.41597,56.5418 74.55109,20.31808"
       style="fill:none;stroke:#ffffff;stroke-width:0.79701;stroke-linecap:butt;stroke-linejoin:miter;stroke-miterlimit:10;stroke-dasharray:none;stroke-opacity:1"
       transform="matrix(1.3333333,0,0,-1.3333333,19.162667,104.20267)" />
    <path
       id="path38"
       d="M 4.53381,0 C 3.97704,0.13808 1.52963,0.92049 0,1.77196 V -1.77196 C 1.52963,-0.92049 3.97704,-0.13808 4.53381,0 Z"
       style="fill:#ffffff;fill-opacity:1;fill-rule:nonzero;stroke:#ffffff;stroke-width:0.79701;stroke-linecap:butt;stroke-linejoin:miter;stroke-miterlimit:10;stroke-dasharray:none;stroke-opacity:1"
       transform="matrix(1.15184,0.67149333,0.67149333,-1.15184,118.56409,77.111867)" />
    <path
       id="path39"
       d="M 37.5373,37.27306 H 54.76585 V 48.81205 H 37.5373 Z"
       style="fill:#121212;fill-opacity:1;fill-rule:nonzero;stroke:none"
       transform="matrix(1.3333333,0,0,-1.3333333,19.162667,104.20267)" />
    <g
       id="g39"
       aria-label="w&#10;(2)&#10;13"
       transform="matrix(1.3333333,0,0,1.3333333,70.54,50.293333)">
      <path
         id="path40"
         d="m 3.6672656,-2.2268359 c 0.046875,-0.1875 0.1289063,-0.515625 0.1289063,-0.5507813 0,-0.140625 -0.1054688,-0.2226562 -0.2226563,-0.2226562 -0.140625,0 -0.2578125,0.082031 -0.3046875,0.1992187 -0.023437,0.058594 -0.09375,0.3515625 -0.140625,0.515625 -0.09375,0.3984375 -0.09375,0.421875 -0.1992187,0.8085938 -0.09375,0.3867187 -0.1054688,0.4335937 -0.1171875,0.64453121 0.035156,0.12890625 -0.023437,0.26953125 -0.1875,0.48046875 -0.09375,0.10546875 -0.234375,0.22265625 -0.46875,0.22265625 -0.2695313,0 -0.6328125,-0.09375 -0.6328125,-0.6328125 0,-0.36328121 0.1992187,-0.87890621 0.3398437,-1.23046871 0.1171875,-0.3046875 0.140625,-0.375 0.140625,-0.4921875 0,-0.328125 -0.28125,-0.5859375 -0.65625,-0.5859375 -0.70312497,0 -1.01953122,0.9492187 -1.01953122,1.0664062 0,0.082031 0.09375,0.082031 0.1171875,0.082031 0.09375,0 0.10546875,-0.035156 0.12890625,-0.1054688 0.17578125,-0.5859375 0.46874997,-0.8554687 0.74999997,-0.8554687 0.1171875,0 0.1757813,0.082031 0.1757813,0.2460937 0,0.1640625 -0.058594,0.3164063 -0.09375,0.4101563 -0.3984375,1.0078125 -0.3984375,1.1484375 -0.3984375,1.37109371 0,0.8203125 0.7382812,0.92578125 1.1132812,0.92578125 0.140625,0 0.4804688,0 0.796875,-0.46875 0.1523438,0.31640625 0.5390625,0.46875 0.9609375,0.46875 0.6210938,0 0.9375,-0.5390625 1.0664063,-0.8203125 0.3046875,-0.58593746 0.4921875,-1.46484376 0.4921875,-1.78124996 0,-0.5273438 -0.2929688,-0.5507813 -0.3515625,-0.5507813 -0.1757813,0 -0.375,0.1875 -0.375,0.375 0,0.1171875 0.070312,0.1640625 0.1171875,0.2109375 0.1757812,0.140625 0.2578125,0.3398438 0.2578125,0.5625 0,0.082031 -0.2929688,1.80468751 -1.171875,1.80468751 -0.5625,0 -0.5625,-0.50390625 -0.5625,-0.62109375 0,-0.1875 0.023437,-0.29296876 0.1171875,-0.69140626 z m 0,0"
         style="fill:#ffffff;fill-opacity:1;fill-rule:nonzero;stroke:none" />
      <path
         id="path41"
         d="m 8.1438281,-7.2688281 c 0,0 0.023437,-0.023437 0.023437,-0.046875 0,-0.023437 -0.011719,-0.070312 -0.09375,-0.070312 -0.09375,0 -1.3710937,0.796875 -1.3710937,2.4960937 0,1.6875 1.2773437,2.484375 1.3710937,2.484375 0.082031,0 0.09375,-0.046875 0.09375,-0.070312 0,-0.035156 -0.023437,-0.046875 -0.046875,-0.058594 -0.8789062,-0.703125 -1.0429687,-1.7109375 -1.0429687,-2.3554688 0,-1.21875 0.5742187,-2.0273437 1.0664067,-2.3789069 z m 3.4365239,2.6601562 h -0.210938 c -0.01172,0.09375 -0.05859,0.3984375 -0.140625,0.4570313 -0.03516,0.023437 -0.457031,0.023437 -0.527344,0.023437 H 9.7170703 c 0.3281247,-0.2460938 0.7031247,-0.515625 0.9960937,-0.7148438 0.457031,-0.3164062 0.867188,-0.5976562 0.867188,-1.125 0,-0.6445312 -0.597657,-0.9960937 -1.3125,-0.9960937 -0.6679692,0 -1.1601567,0.3867187 -1.1601567,0.8789062 0,0.2578125 0.2109375,0.3046875 0.28125,0.3046875 0.140625,0 0.2929688,-0.09375 0.2929688,-0.2929687 0,-0.1875 -0.1289063,-0.28125 -0.28125,-0.2929688 0.140625,-0.234375 0.4335937,-0.375 0.7617189,-0.375 0.480469,0 0.890625,0.28125 0.890625,0.7734375 0,0.421875 -0.292969,0.7382813 -0.679688,1.0546875 l -1.2070309,1.03125 c -0.046875,0.046875 -0.058594,0.046875 -0.058594,0.082031 v 0.1523437 h 2.3085939 z m 2.405273,-0.28125 c 0,-1.6875 -1.277344,-2.4960937 -1.382812,-2.4960937 -0.07031,0 -0.07031,0.058594 -0.07031,0.070312 0,0.011719 0,0.035156 0.02344,0.070312 0.75,0.5859375 1.042968,1.453125 1.042968,2.3554687 0,0.4453125 -0.08203,0.9140625 -0.246093,1.3242188 -0.246094,0.5625 -0.550782,0.84375 -0.796875,1.0429687 -0.01172,0 -0.02344,0.035156 -0.02344,0.046875 0,0.011719 0,0.070312 0.07031,0.070312 0.105468,0 1.382812,-0.796875 1.382812,-2.484375 z m -6.2402344,3.8876953 c 0,-0.1523437 -0.011719,-0.1523437 -0.1757812,-0.1523437 -0.3515625,0.31640624 -0.9023438,0.31640624 -1.0078125,0.31640624 h -0.082031 v 0.22265625 h 0.082031 c 0.1171875,0 0.4335937,-0.0117188 0.7265625,-0.140625 V 1.7282422 c 0,0.1640625 0,0.2109375 -0.5273438,0.2109375 H 6.5149219 v 0.2226562 c 0.2695312,-0.023437 0.7148437,-0.023437 1.0078125,-0.023437 0.28125,0 0.7265625,0 0.9960937,0.023437 V 1.9391797 H 8.2727344 c -0.5273438,0 -0.5273438,-0.046875 -0.5273438,-0.2109375 z m 3.0498044,1.51171879 c 0.457032,0 0.761719,0.29296875 0.761719,0.78515621 0,0.5039063 -0.304687,0.7734375 -0.75,0.7734375 -0.05859,0 -0.65625,0 -0.9023437,-0.2578125 0.1992187,-0.035156 0.2578127,-0.1875 0.2578127,-0.3046875 0,-0.1875 -0.140625,-0.3046875 -0.3046877,-0.3046875 -0.1523437,0 -0.3046875,0.1054688 -0.3046875,0.3164063 0,0.515625 0.5859372,0.75 1.2656252,0.75 0.820312,0 1.324219,-0.4921875 1.324219,-0.9726563 0,-0.41015621 -0.363282,-0.76171871 -0.925782,-0.89062496 0.597657,-0.1875 0.75,-0.5625 0.75,-0.84375 0,-0.41015625 -0.503906,-0.71484374 -1.136718,-0.71484374 -0.609375,0 -1.1015629,0.25781249 -1.1015629,0.70312499 0,0.234375 0.1875,0.29296875 0.2812499,0.29296875 0.140625,0 0.28125,-0.10546875 0.28125,-0.28125 0,-0.1171875 -0.05859,-0.2578125 -0.234375,-0.28125 0.210938,-0.234375 0.65625,-0.24609375 0.761719,-0.24609375 0.363281,0 0.621094,0.1875 0.621094,0.52734375 0,0.28125 -0.1875,0.73828125 -0.714844,0.7734375 -0.140625,0 -0.152344,0 -0.28125,0.0117188 -0.05859,0 -0.117188,0.0117188 -0.117188,0.0820313 0,0.0820313 0.05859,0.0820313 0.140625,0.0820313 z m 0,0"
         style="fill:#ffffff;fill-opacity:1;fill-rule:nonzero;stroke:none" />
    </g>
    <path
       id="path42"
       d="M 14.10793,18.51546 64.80388,8.65247"
       style="fill:none;stroke:#ffffff;stroke-width:0.79701;stroke-linecap:butt;stroke-linejoin:miter;stroke-miterlimit:10;stroke-dasharray:none;stroke-opacity:1"
       transform="matrix(1.3333333,0,0,-1.3333333,19.162667,104.20267)" />
    <path
       id="path43"
       d="M 4.53381,0 C 3.97704,0.13808 1.52963,0.92049 0,1.77196 V -1.77196 C 1.52963,-0.92049 3.97704,-0.13808 4.53381,0 Z"
       style="fill:#ffffff;fill-opacity:1;fill-rule:nonzero;stroke:#ffffff;stroke-width:0.79701;stroke-linecap:butt;stroke-linejoin:miter;stroke-miterlimit:10;stroke-dasharray:none;stroke-opacity:1"
       transform="matrix(1.3087733,0.25461333,0.25461333,-1.3087733,105.56784,92.666027)" />
    <path
       id="path44"
       d="M 33.87321,13.39268 H 51.10176 V 24.93167 H 33.87321 Z"
       style="fill:#121212;fill-opacity:1;fill-rule:nonzero;stroke:none"
       transform="matrix(1.3333333,0,0,-1.3333333,19.162667,104.20267)" />
    <g
       id="g44"
       aria-label="w&#10;(2)&#10;23"
       transform="matrix(1.3333333,0,0,1.3333333,65.654667,82.133333)">
      <path
         id="path45"
         d="m 3.6691563,-2.2269531 c 0.046875,-0.1875 0.1289062,-0.515625 0.1289062,-0.5507813 0,-0.140625 -0.1054687,-0.2226562 -0.2226562,-0.2226562 -0.140625,0 -0.2578125,0.082031 -0.3046875,0.1992187 -0.023437,0.058594 -0.09375,0.3515625 -0.140625,0.515625 -0.09375,0.3984375 -0.09375,0.421875 -0.1992188,0.8085938 -0.09375,0.3867187 -0.1054687,0.4335937 -0.1171875,0.64453122 0.035156,0.12890625 -0.023437,0.26953125 -0.1875,0.48046875 -0.09375,0.10546875 -0.234375,0.22265625 -0.46875,0.22265625 -0.2695312,0 -0.6328125,-0.09375 -0.6328125,-0.6328125 0,-0.36328122 0.1992188,-0.87890622 0.3398438,-1.23046872 0.1171875,-0.3046875 0.140625,-0.375 0.140625,-0.4921875 0,-0.328125 -0.28125,-0.5859375 -0.65625,-0.5859375 -0.70312505,0 -1.0195313,0.9492187 -1.0195313,1.0664062 0,0.082031 0.09375,0.082031 0.1171875,0.082031 0.09375,0 0.10546875,-0.035156 0.12890625,-0.1054688 0.17578125,-0.5859375 0.46875005,-0.8554687 0.75000005,-0.8554687 0.1171875,0 0.1757812,0.082031 0.1757812,0.2460937 0,0.1640625 -0.058594,0.3164063 -0.09375,0.4101563 C 1.009,-1.2191406 1.009,-1.0785156 1.009,-0.85585938 c 0,0.8203125 0.7382813,0.92578125 1.1132813,0.92578125 0.140625,0 0.4804687,0 0.796875,-0.46875 0.1523437,0.31640625 0.5390625,0.46875 0.9609375,0.46875 0.6210937,0 0.9375,-0.5390625 1.0664062,-0.8203125 0.3046875,-0.58593747 0.4921875,-1.46484377 0.4921875,-1.78124997 0,-0.5273438 -0.2929687,-0.5507813 -0.3515625,-0.5507813 -0.1757812,0 -0.375,0.1875 -0.375,0.375 0,0.1171875 0.070312,0.1640625 0.1171875,0.2109375 0.1757813,0.140625 0.2578125,0.3398438 0.2578125,0.5625 0,0.082031 -0.2929687,1.80468752 -1.171875,1.80468752 -0.5625,0 -0.5625,-0.50390625 -0.5625,-0.62109375 0,-0.1875 0.023437,-0.29296877 0.1171875,-0.69140627 z m 0,0"
         style="fill:#ffffff;fill-opacity:1;fill-rule:nonzero;stroke:none" />
      <path
         id="path46"
         d="m 8.1427891,-7.2689453 c 0,0 0.023437,-0.023437 0.023437,-0.046875 0,-0.023437 -0.011719,-0.070312 -0.09375,-0.070312 -0.09375,0 -1.3710938,0.796875 -1.3710938,2.4960937 0,1.6875 1.2773438,2.484375 1.3710938,2.484375 0.082031,0 0.09375,-0.046875 0.09375,-0.070312 0,-0.035156 -0.023437,-0.046875 -0.046875,-0.058594 -0.8789063,-0.703125 -1.0429688,-1.7109375 -1.0429688,-2.3554688 0,-1.21875 0.5742188,-2.0273437 1.0664068,-2.3789069 z m 3.4365239,2.6601562 h -0.210938 c -0.01172,0.09375 -0.05859,0.3984375 -0.140625,0.4570313 -0.03516,0.023437 -0.457031,0.023437 -0.527344,0.023437 H 9.7160313 c 0.3281247,-0.2460938 0.7031247,-0.515625 0.9960937,-0.7148438 0.457031,-0.3164062 0.867188,-0.5976562 0.867188,-1.125 0,-0.6445312 -0.597657,-0.9960937 -1.3125,-0.9960937 -0.6679692,0 -1.1601567,0.3867187 -1.1601567,0.8789062 0,0.2578125 0.2109375,0.3046875 0.28125,0.3046875 0.140625,0 0.2929687,-0.09375 0.2929687,-0.2929687 0,-0.1875 -0.1289062,-0.28125 -0.28125,-0.2929688 0.140625,-0.234375 0.4335938,-0.375 0.761719,-0.375 0.480469,0 0.890625,0.28125 0.890625,0.7734375 0,0.421875 -0.292969,0.7382813 -0.679688,1.0546875 l -1.207031,1.03125 c -0.046875,0.046875 -0.058594,0.046875 -0.058594,0.082031 v 0.1523437 h 2.308594 z m 2.405273,-0.28125 c 0,-1.6875 -1.277344,-2.4960937 -1.382813,-2.4960937 -0.07031,0 -0.07031,0.058594 -0.07031,0.070312 0,0.011719 0,0.035156 0.02344,0.070312 0.75,0.5859375 1.042969,1.453125 1.042969,2.3554687 0,0.4453125 -0.08203,0.9140625 -0.246094,1.3242188 -0.246093,0.5625 -0.550781,0.84375 -0.796875,1.0429687 -0.01172,0 -0.02344,0.035156 -0.02344,0.046875 0,0.011719 0,0.070312 0.07031,0.070312 0.105469,0 1.382813,-0.796875 1.382813,-2.484375 z M 8.6935703,1.2007812 H 8.4826328 C 8.4709141,1.2945312 8.4240391,1.5992187 8.3420078,1.6578125 8.3068516,1.68125 7.8849766,1.68125 7.8146641,1.68125 H 6.8302891 C 7.1584141,1.4351562 7.5334141,1.165625 7.8263828,0.96640625 8.2834141,0.65 8.6935703,0.36875 8.6935703,-0.15859375 c 0,-0.64453125 -0.5976562,-0.99609375 -1.3125,-0.99609375 -0.6679687,0 -1.1601562,0.38671875 -1.1601562,0.87890625 0,0.2578125 0.2109375,0.3046875 0.28125,0.3046875 0.140625,0 0.2929687,-0.09375 0.2929687,-0.29296875 0,-0.1875 -0.1289062,-0.28125 -0.28125,-0.29296875 0.140625,-0.234375 0.4335938,-0.375 0.7617188,-0.375 0.4804687,0 0.890625,0.28125 0.890625,0.7734375 0,0.421875 -0.2929688,0.73828125 -0.6796875,1.0546875 L 6.2795078,1.9273437 c -0.046875,0.046875 -0.058594,0.046875 -0.058594,0.082031 v 0.152344 h 2.308594 z M 10.794156,0.509375 c 0.457032,0 0.761719,0.29296875 0.761719,0.7851562 0,0.5039063 -0.304687,0.7734375 -0.75,0.7734375 -0.05859,0 -0.65625,0 -0.9023437,-0.2578125 0.1992187,-0.035156 0.2578127,-0.1875 0.2578127,-0.3046875 0,-0.1875 -0.140625,-0.3046875 -0.3046877,-0.3046875 -0.1523438,0 -0.3046875,0.1054688 -0.3046875,0.3164063 0,0.515625 0.5859372,0.75 1.2656252,0.75 0.820312,0 1.324219,-0.4921875 1.324219,-0.9726563 0,-0.4101562 -0.363282,-0.7617187 -0.925782,-0.89062495 0.597657,-0.1875 0.75,-0.5625 0.75,-0.84375 0,-0.41015625 -0.503906,-0.71484375 -1.136718,-0.71484375 -0.609375,0 -1.101563,0.2578125 -1.101563,0.703125 0,0.234375 0.1875,0.29296875 0.28125,0.29296875 0.140625,0 0.28125,-0.10546875 0.28125,-0.28125 0,-0.1171875 -0.05859,-0.2578125 -0.234375,-0.28125 0.210938,-0.234375 0.65625,-0.24609375 0.761719,-0.24609375 0.363281,0 0.621094,0.1875 0.621094,0.52734375 0,0.28125 -0.1875,0.73828125 -0.714844,0.7734375 -0.140625,0 -0.152344,0 -0.28125,0.0117188 -0.05859,0 -0.117188,0.0117188 -0.117188,0.0820313 0,0.0820313 0.05859,0.0820313 0.140625,0.0820313 z m 0,0"
         style="fill:#ffffff;fill-opacity:1;fill-rule:nonzero;stroke:none" />
    </g>
    <path
       id="path47"
       d="m 14.10793,-18.51546 50.69595,9.86299"
       style="fill:none;stroke:#ffffff;stroke-width:0.79701;stroke-linecap:butt;stroke-linejoin:miter;stroke-miterlimit:10;stroke-dasharray:none;stroke-opacity:1"
       transform="matrix(1.3333333,0,0,-1.3333333,19.162667,104.20267)" />
    <path
       id="path48"
       d="M 4.53381,0 C 3.97704,0.13808 1.52963,0.92049 0,1.77196 V -1.77196 C 1.52963,-0.92049 3.97704,-0.13808 4.53381,0 Z"
       style="fill:#ffffff;fill-opacity:1;fill-rule:nonzero;stroke:#ffffff;stroke-width:0.79701;stroke-linecap:butt;stroke-linejoin:miter;stroke-miterlimit:10;stroke-dasharray:none;stroke-opacity:1"
       transform="matrix(1.3087733,-0.25461333,-0.25461333,-1.3087733,105.56784,115.73931)" />
    <path
       id="path49"
       d="M 33.87321,-24.93169 H 51.10176 V -13.3927 H 33.87321 Z"
       style="fill:#121212;fill-opacity:1;fill-rule:nonzero;stroke:none"
       transform="matrix(1.3333333,0,0,-1.3333333,19.162667,104.20267)" />
    <g
       id="g49"
       aria-label="w&#10;(2)&#10;33"
       transform="matrix(1.3333333,0,0,1.3333333,65.654667,133.232)">
      <path
         id="path50"
         d="m 3.6691563,-2.2277109 c 0.046875,-0.1875 0.1289062,-0.515625 0.1289062,-0.5507813 0,-0.140625 -0.1054687,-0.2226562 -0.2226562,-0.2226562 -0.140625,0 -0.2578125,0.082031 -0.3046875,0.1992187 -0.023437,0.058594 -0.09375,0.3515625 -0.140625,0.515625 -0.09375,0.3984375 -0.09375,0.421875 -0.1992188,0.8085938 -0.09375,0.3867187 -0.1054687,0.4335937 -0.1171875,0.64453121 0.035156,0.12890625 -0.023437,0.26953125 -0.1875,0.48046875 -0.09375,0.10546875 -0.234375,0.22265625 -0.46875,0.22265625 -0.2695312,0 -0.6328125,-0.09375 -0.6328125,-0.6328125 0,-0.36328121 0.1992188,-0.87890621 0.3398438,-1.23046871 0.1171875,-0.3046875 0.140625,-0.375 0.140625,-0.4921875 0,-0.328125 -0.28125,-0.5859375 -0.65625,-0.5859375 -0.70312505,0 -1.0195313,0.9492187 -1.0195313,1.0664062 0,0.082031 0.09375,0.082031 0.1171875,0.082031 0.09375,0 0.10546875,-0.035156 0.12890625,-0.1054688 C 0.7511875,-2.61443 1.0441563,-2.8839612 1.3254063,-2.8839612 c 0.1171875,0 0.1757812,0.082031 0.1757812,0.2460937 0,0.1640625 -0.058594,0.3164063 -0.09375,0.4101563 C 1.009,-1.2198984 1.009,-1.0792734 1.009,-0.85661719 c 0,0.8203125 0.7382813,0.92578125 1.1132813,0.92578125 0.140625,0 0.4804687,0 0.796875,-0.46875 0.1523437,0.31640625 0.5390625,0.46875 0.9609375,0.46875 0.6210937,0 0.9375,-0.5390625 1.0664062,-0.8203125 0.3046875,-0.58593746 0.4921875,-1.46484376 0.4921875,-1.78124996 0,-0.5273438 -0.2929687,-0.5507813 -0.3515625,-0.5507813 -0.1757812,0 -0.375,0.1875 -0.375,0.375 0,0.1171875 0.070312,0.1640625 0.1171875,0.2109375 0.1757813,0.140625 0.2578125,0.3398438 0.2578125,0.5625 0,0.082031 -0.2929687,1.80468751 -1.171875,1.80468751 -0.5625,0 -0.5625,-0.50390625 -0.5625,-0.62109375 0,-0.1875 0.023437,-0.29296876 0.1171875,-0.69140626 z m 0,0"
         style="fill:#ffffff;fill-opacity:1;fill-rule:nonzero;stroke:none" />
      <path
         id="path51"
         d="m 8.1427891,-7.2667734 c 0,0 0.023437,-0.023437 0.023437,-0.046875 0,-0.023437 -0.011719,-0.070312 -0.09375,-0.070312 -0.09375,0 -1.3710938,0.796875 -1.3710938,2.4960937 0,1.6875 1.2773438,2.484375 1.3710938,2.484375 0.082031,0 0.09375,-0.046875 0.09375,-0.070312 0,-0.035156 -0.023437,-0.046875 -0.046875,-0.058594 -0.8789063,-0.703125 -1.0429688,-1.7109375 -1.0429688,-2.3554688 0,-1.21875 0.5742188,-2.0273437 1.0664068,-2.3789069 z m 3.4365239,2.6601562 h -0.210938 c -0.01172,0.09375 -0.05859,0.3984375 -0.140625,0.4570313 -0.03516,0.023437 -0.457031,0.023437 -0.527344,0.023437 H 9.7160313 c 0.3281247,-0.2460938 0.7031247,-0.515625 0.9960937,-0.7148438 0.457031,-0.3164062 0.867188,-0.5976562 0.867188,-1.125 0,-0.6445312 -0.597657,-0.9960937 -1.3125,-0.9960937 -0.6679692,0 -1.1601567,0.3867187 -1.1601567,0.8789062 0,0.2578125 0.2109375,0.3046875 0.28125,0.3046875 0.140625,0 0.2929687,-0.09375 0.2929687,-0.2929687 0,-0.1875 -0.1289062,-0.28125 -0.28125,-0.2929688 0.140625,-0.234375 0.4335938,-0.375 0.761719,-0.375 0.480469,0 0.890625,0.28125 0.890625,0.7734375 0,0.421875 -0.292969,0.7382813 -0.679688,1.0546875 l -1.207031,1.03125 c -0.046875,0.046875 -0.058594,0.046875 -0.058594,0.082031 v 0.1523437 h 2.308594 z m 2.405273,-0.28125 c 0,-1.6875 -1.277344,-2.4960937 -1.382813,-2.4960937 -0.07031,0 -0.07031,0.058594 -0.07031,0.070312 0,0.011719 0,0.035156 0.02344,0.070312 0.75,0.5859375 1.042969,1.453125 1.042969,2.3554687 0,0.4453125 -0.08203,0.9140625 -0.246094,1.3242188 -0.246093,0.5625 -0.550781,0.84375 -0.796875,1.0429687 -0.01172,0 -0.02344,0.035156 -0.02344,0.046875 0,0.011719 0,0.070312 0.07031,0.070312 0.105469,0 1.382813,-0.796875 1.382813,-2.484375 z M 7.4045078,0.51154687 c 0.4570313,0 0.7617188,0.29296875 0.7617188,0.78515623 0,0.5039063 -0.3046875,0.7734375 -0.75,0.7734375 -0.058594,0 -0.65625,0 -0.9023438,-0.2578125 0.1992188,-0.035156 0.2578125,-0.1875 0.2578125,-0.3046875 0,-0.1875 -0.140625,-0.3046875 -0.3046875,-0.3046875 -0.1523437,0 -0.3046875,0.1054688 -0.3046875,0.3164063 0,0.515625 0.5859375,0.75 1.265625,0.75 0.8203125,0 1.3242188,-0.4921875 1.3242188,-0.9726563 0,-0.41015623 -0.3632813,-0.76171873 -0.9257813,-0.89062498 0.5976563,-0.1875 0.75,-0.5625 0.75,-0.84375 0,-0.41015625 -0.5039062,-0.71484372 -1.1367187,-0.71484372 -0.609375,0 -1.1015625,0.25781247 -1.1015625,0.70312497 0,0.234375 0.1875,0.29296875 0.28125,0.29296875 0.140625,0 0.28125,-0.10546875 0.28125,-0.28125 0,-0.1171875 -0.058594,-0.2578125 -0.234375,-0.28125 0.2109375,-0.234375 0.65625,-0.24609375 0.7617187,-0.24609375 0.3632813,0 0.6210938,0.1875 0.6210938,0.52734375 0,0.28125 -0.1875,0.73828125 -0.7148438,0.7734375 -0.140625,0 -0.1523437,0 -0.28125,0.0117188 -0.058594,0 -0.1171875,0.0117188 -0.1171875,0.0820313 0,0.0820313 0.058594,0.0820313 0.140625,0.0820313 z m 3.3896482,0 c 0.457032,0 0.761719,0.29296875 0.761719,0.78515623 0,0.5039063 -0.304687,0.7734375 -0.75,0.7734375 -0.05859,0 -0.65625,0 -0.9023437,-0.2578125 0.1992187,-0.035156 0.2578127,-0.1875 0.2578127,-0.3046875 0,-0.1875 -0.140625,-0.3046875 -0.3046877,-0.3046875 -0.1523438,0 -0.3046875,0.1054688 -0.3046875,0.3164063 0,0.515625 0.5859372,0.75 1.2656252,0.75 0.820312,0 1.324219,-0.4921875 1.324219,-0.9726563 0,-0.41015623 -0.363282,-0.76171873 -0.925782,-0.89062498 0.597657,-0.1875 0.75,-0.5625 0.75,-0.84375 0,-0.41015625 -0.503906,-0.71484372 -1.136718,-0.71484372 -0.609375,0 -1.101563,0.25781247 -1.101563,0.70312497 0,0.234375 0.1875,0.29296875 0.28125,0.29296875 0.140625,0 0.28125,-0.10546875 0.28125,-0.28125 0,-0.1171875 -0.05859,-0.2578125 -0.234375,-0.28125 0.210938,-0.234375 0.65625,-0.24609375 0.761719,-0.24609375 0.363281,0 0.621094,0.1875 0.621094,0.52734375 0,0.28125 -0.1875,0.73828125 -0.714844,0.7734375 -0.140625,0 -0.152344,0 -0.28125,0.0117188 -0.05859,0 -0.117188,0.0117188 -0.117188,0.0820313 0,0.0820313 0.05859,0.0820313 0.140625,0.0820313 z m 0,0"
         style="fill:#ffffff;fill-opacity:1;fill-rule:nonzero;stroke:none" />
    </g>
    <path
       id="path52"
       d="m 12.41597,-56.5418 62.13512,36.22372"
       style="fill:none;stroke:#ffffff;stroke-width:0.79701;stroke-linecap:butt;stroke-linejoin:miter;stroke-miterlimit:10;stroke-dasharray:none;stroke-opacity:1"
       transform="matrix(1.3333333,0,0,-1.3333333,19.162667,104.20267)" />
    <path
       id="path53"
       d="M 4.53381,0 C 3.97704,0.13808 1.52963,0.92049 0,1.77196 V -1.77196 C 1.52963,-0.92049 3.97704,-0.13808 4.53381,0 Z"
       style="fill:#ffffff;fill-opacity:1;fill-rule:nonzero;stroke:#ffffff;stroke-width:0.79701;stroke-linecap:butt;stroke-linejoin:miter;stroke-miterlimit:10;stroke-dasharray:none;stroke-opacity:1"
       transform="matrix(1.15184,-0.67149333,-0.67149333,-1.15184,118.56409,131.29347)" />
    <path
       id="path54"
       d="m 37.5373,-48.81206 h 17.22855 v 11.53899 H 37.5373 Z"
       style="fill:#121212;fill-opacity:1;fill-rule:nonzero;stroke:none"
       transform="matrix(1.3333333,0,0,-1.3333333,19.162667,104.20267)" />
    <g
       id="g54"
       aria-label="w&#10;(2)&#10;43"
       transform="matrix(1.3333333,0,0,1.3333333,70.54,165.072)">
      <path
         id="path55"
         d="m 3.6672656,-2.2278281 c 0.046875,-0.1875 0.1289063,-0.515625 0.1289063,-0.5507813 0,-0.140625 -0.1054688,-0.2226562 -0.2226563,-0.2226562 -0.140625,0 -0.2578125,0.082031 -0.3046875,0.1992187 -0.023437,0.058594 -0.09375,0.3515625 -0.140625,0.515625 -0.09375,0.3984375 -0.09375,0.421875 -0.1992187,0.8085938 -0.09375,0.3867187 -0.1054688,0.4335937 -0.1171875,0.64453122 0.035156,0.12890625 -0.023437,0.26953125 -0.1875,0.48046875 -0.09375,0.10546875 -0.234375,0.22265625 -0.46875,0.22265625 -0.2695313,0 -0.6328125,-0.09375 -0.6328125,-0.6328125 0,-0.36328122 0.1992187,-0.87890622 0.3398437,-1.23046872 0.1171875,-0.3046875 0.140625,-0.375 0.140625,-0.4921875 0,-0.328125 -0.28125,-0.5859375 -0.65625,-0.5859375 -0.70312497,0 -1.01953122,0.9492187 -1.01953122,1.0664062 0,0.082031 0.09375,0.082031 0.1171875,0.082031 0.09375,0 0.10546875,-0.035156 0.12890625,-0.1054688 0.17578125,-0.5859375 0.46874997,-0.8554687 0.74999997,-0.8554687 0.1171875,0 0.1757813,0.082031 0.1757813,0.2460937 0,0.1640625 -0.058594,0.3164063 -0.09375,0.4101563 -0.3984375,1.0078125 -0.3984375,1.1484375 -0.3984375,1.37109372 0,0.8203125 0.7382812,0.92578125 1.1132812,0.92578125 0.140625,0 0.4804688,0 0.796875,-0.46875 0.1523438,0.31640625 0.5390625,0.46875 0.9609375,0.46875 0.6210938,0 0.9375,-0.5390625 1.0664063,-0.8203125 0.3046875,-0.58593747 0.4921875,-1.46484377 0.4921875,-1.78124997 0,-0.5273438 -0.2929688,-0.5507813 -0.3515625,-0.5507813 -0.1757813,0 -0.375,0.1875 -0.375,0.375 0,0.1171875 0.070312,0.1640625 0.1171875,0.2109375 0.1757812,0.140625 0.2578125,0.3398438 0.2578125,0.5625 0,0.082031 -0.2929688,1.80468752 -1.171875,1.80468752 -0.5625,0 -0.5625,-0.50390625 -0.5625,-0.62109375 0,-0.1875 0.023437,-0.29296877 0.1171875,-0.69140627 z m 0,0"
         style="fill:#ffffff;fill-opacity:1;fill-rule:nonzero;stroke:none" />
      <path
         id="path56"
         d="m 8.1438281,-7.2668906 c 0,0 0.023437,-0.023437 0.023437,-0.046875 0,-0.023437 -0.011719,-0.070312 -0.09375,-0.070312 -0.09375,0 -1.3710937,0.796875 -1.3710937,2.4960937 0,1.6875 1.2773437,2.484375 1.3710937,2.484375 0.082031,0 0.09375,-0.046875 0.09375,-0.070312 0,-0.035156 -0.023437,-0.046875 -0.046875,-0.058594 -0.8789062,-0.703125 -1.0429687,-1.7109375 -1.0429687,-2.3554688 0,-1.21875 0.5742187,-2.0273437 1.0664067,-2.3789069 z m 3.4365239,2.6601562 h -0.210938 c -0.01172,0.09375 -0.05859,0.3984375 -0.140625,0.4570313 -0.03516,0.023437 -0.457031,0.023437 -0.527344,0.023437 H 9.7170703 c 0.3281247,-0.2460938 0.7031247,-0.515625 0.9960937,-0.7148438 0.457031,-0.3164062 0.867188,-0.5976562 0.867188,-1.125 0,-0.6445312 -0.597657,-0.9960937 -1.3125,-0.9960937 -0.6679692,0 -1.1601567,0.3867187 -1.1601567,0.8789062 0,0.2578125 0.2109375,0.3046875 0.28125,0.3046875 0.140625,0 0.2929688,-0.09375 0.2929688,-0.2929687 0,-0.1875 -0.1289063,-0.28125 -0.28125,-0.2929688 0.140625,-0.234375 0.4335937,-0.375 0.7617189,-0.375 0.480469,0 0.890625,0.28125 0.890625,0.7734375 0,0.421875 -0.292969,0.7382813 -0.679688,1.0546875 l -1.2070309,1.03125 c -0.046875,0.046875 -0.058594,0.046875 -0.058594,0.082031 v 0.1523437 h 2.3085939 z m 2.405273,-0.28125 c 0,-1.6875 -1.277344,-2.4960937 -1.382812,-2.4960937 -0.07031,0 -0.07031,0.058594 -0.07031,0.070312 0,0.011719 0,0.035156 0.02344,0.070312 0.75,0.5859375 1.042968,1.453125 1.042968,2.3554687 0,0.4453125 -0.08203,0.9140625 -0.246093,1.3242188 -0.246094,0.5625 -0.550782,0.84375 -0.796875,1.0429687 -0.01172,0 -0.02344,0.035156 -0.02344,0.046875 0,0.011719 0,0.070312 0.07031,0.070312 0.105468,0 1.382812,-0.796875 1.382812,-2.484375 z M 8.8352344,1.3551797 V 1.1325234 H 8.2141406 v -2.1914062 c 0,-0.1171875 0,-0.1523438 -0.1289062,-0.1523438 -0.1054688,0 -0.1054688,0.011719 -0.1640625,0.082031 l -1.8398438,2.261719 v 0.2226563 h 1.6523438 v 0.3867187 c 0,0.1523438 0,0.1992188 -0.4335938,0.1992188 H 7.1242969 v 0.2226562 c 0.234375,-0.011719 0.5625,-0.023437 0.8554687,-0.023437 0.28125,0 0.609375,0.011719 0.84375,0.023437 V 1.9411172 H 8.6477344 c -0.4335938,0 -0.4335938,-0.046875 -0.4335938,-0.1992188 V 1.3551797 Z M 7.7805469,-0.67216406 V 1.1325234 H 6.3157031 Z m 3.0146481,1.18359375 c 0.457032,0 0.761719,0.29296875 0.761719,0.78515621 0,0.5039063 -0.304687,0.7734375 -0.75,0.7734375 -0.05859,0 -0.65625,0 -0.9023437,-0.2578125 0.1992187,-0.035156 0.2578127,-0.1875 0.2578127,-0.3046875 0,-0.1875 -0.140625,-0.3046875 -0.3046877,-0.3046875 -0.1523437,0 -0.3046875,0.1054688 -0.3046875,0.3164063 0,0.515625 0.5859372,0.75 1.2656252,0.75 0.820312,0 1.324219,-0.4921875 1.324219,-0.9726563 0,-0.41015621 -0.363282,-0.76171871 -0.925782,-0.89062496 0.597657,-0.1875 0.75,-0.5625 0.75,-0.84375 0,-0.41015625 -0.503906,-0.71484374 -1.136718,-0.71484374 -0.609375,0 -1.1015629,0.25781249 -1.1015629,0.70312499 0,0.234375 0.1875,0.29296875 0.2812499,0.29296875 0.140625,0 0.28125,-0.10546875 0.28125,-0.28125 0,-0.1171875 -0.05859,-0.2578125 -0.234375,-0.28125 0.210938,-0.234375 0.65625,-0.24609375 0.761719,-0.24609375 0.363281,0 0.621094,0.1875 0.621094,0.52734375 0,0.28125 -0.1875,0.73828125 -0.714844,0.7734375 -0.140625,0 -0.152344,0 -0.28125,0.0117188 -0.05859,0 -0.117188,0.0117188 -0.117188,0.0820313 0,0.0820313 0.05859,0.0820313 0.140625,0.0820313 z m 0,0"
         style="fill:#ffffff;fill-opacity:1;fill-rule:nonzero;stroke:none" />
    </g>
    <path
       id="path57"
       d="m 147.88306,0 h 27.83917"
       style="fill:none;stroke:#ffffff;stroke-width:0.79701;stroke-linecap:butt;stroke-linejoin:miter;stroke-miterlimit:10;stroke-dasharray:none;stroke-opacity:1"
       transform="matrix(1.3333333,0,0,-1.3333333,19.162667,104.20267)" />
    <path
       id="path58"
       d="M 4.53381,0 C 3.97704,0.13808 1.52963,0.92049 0,1.77196 V -1.77196 C 1.52963,-0.92049 3.97704,-0.13808 4.53381,0 Z"
       style="fill:#ffffff;fill-opacity:1;fill-rule:nonzero;stroke:#ffffff;stroke-width:0.79701;stroke-linecap:butt;stroke-linejoin:miter;stroke-miterlimit:10;stroke-dasharray:none;stroke-opacity:1"
       transform="matrix(1.3333333,0,0,-1.3333333,253.45897,104.20267)" />
    <path
       id="path59"
       d="m 234.17265,0 h 27.83918"
       style="fill:none;stroke:#ffffff;stroke-width:0.79701;stroke-linecap:butt;stroke-linejoin:miter;stroke-miterlimit:10;stroke-dasharray:none;stroke-opacity:1"
       transform="matrix(1.3333333,0,0,-1.3333333,19.162667,104.20267)" />
    <path
       id="path60"
       d="M 4.53381,0 C 3.97704,0.13808 1.52963,0.92049 0,1.77196 V -1.77196 C 1.52963,-0.92049 3.97704,-0.13808 4.53381,0 Z"
       style="fill:#ffffff;fill-opacity:1;fill-rule:nonzero;stroke:#ffffff;stroke-width:0.79701;stroke-linecap:butt;stroke-linejoin:miter;stroke-miterlimit:10;stroke-dasharray:none;stroke-opacity:1"
       transform="matrix(1.3333333,0,0,-1.3333333,368.51177,104.20267)" />
  </g>
</svg>
