<?xml version="1.0" encoding="UTF-8" standalone="no"?>
<!-- Created with Inkscape (http://www.inkscape.org/) -->

<svg
   version="1.1"
   id="svg1"
   width="385.88"
   height="232.54933"
   viewBox="0 0 385.88 232.54933"
   xmlns="http://www.w3.org/2000/svg"
   xmlns:svg="http://www.w3.org/2000/svg">
  <defs
     id="defs1" />
  <g
     id="g1">
    <path
       id="path1"
       d="M 0,0 H 289.41 V 174.412 H 0 Z"
       style="fill:#121212;fill-opacity:1;fill-rule:nonzero;stroke:none"
       transform="matrix(1.3333333,0,0,-1.3333333,0,232.54933)" />
    <path
       id="path2"
       d="M 16.14072,70.867 0,87.00774 -16.14072,70.867 0,54.72627 Z"
       style="fill:none;stroke:#ffffff;stroke-width:0.3985;stroke-linecap:butt;stroke-linejoin:miter;stroke-miterlimit:10;stroke-dasharray:none;stroke-opacity:1"
       transform="matrix(1.3333333,0,0,-1.3333333,31.196,116.27467)" />
    <g
       id="g2"
       aria-label="x&#10;1"
       transform="matrix(1.3333333,0,0,1.3333333,24.42,23.650667)">
      <path
         id="path3"
         d="m 3.3295312,-3.0104609 c 0.058594,-0.2578125 0.2929688,-1.171875 0.984375,-1.171875 0.046875,0 0.2929688,0 0.5039063,0.1289062 -0.28125,0.046875 -0.4804688,0.3046875 -0.4804688,0.5390625 0,0.1640625 0.1054688,0.3515625 0.375,0.3515625 0.2226563,0 0.5390625,-0.1875 0.5390625,-0.5859375 0,-0.515625 -0.5859375,-0.65625 -0.9257812,-0.65625 -0.5742188,0 -0.9257813,0.5273438 -1.0429688,0.7617188 -0.2578125,-0.65625 -0.7851562,-0.7617188 -1.078125,-0.7617188 -1.0429687,0 -1.6054687,1.2890625 -1.6054687,1.5351563 0,0.1054687 0.10546875,0.1054687 0.1171875,0.1054687 0.0820313,0 0.1171875,-0.023437 0.12890625,-0.1171875 C 1.185,-3.9362422 1.84125,-4.1823359 2.1810937,-4.1823359 c 0.1875,0 0.5390625,0.09375 0.5390625,0.6679687 0,0.3046875 -0.1640625,0.9726563 -0.5390625,2.3671875 -0.1523437,0.62109376 -0.5039062,1.04296876 -0.9492187,1.04296876 -0.058594,0 -0.28125,0 -0.4921875,-0.12890625 0.24609375,-0.0585937 0.46875,-0.26953125 0.46875,-0.5390625 0,-0.26953121 -0.22265625,-0.35156251 -0.375,-0.35156251 -0.29296875,0 -0.5390625,0.25781251 -0.5390625,0.57421876 0,0.45703125 0.4921875,0.65625 0.9375,0.65625 0.65625,0 1.0078125,-0.69140625 1.0429687,-0.75 0.1171875,0.36328125 0.4804688,0.75 1.078125,0.75 1.0195313,0 1.59375,-1.27734376 1.59375,-1.53515626 0,-0.09375 -0.09375,-0.09375 -0.1289062,-0.09375 -0.082031,0 -0.1054688,0.035156 -0.1289063,0.1054688 -0.328125,1.06640621 -0.9960937,1.31249996 -1.3242187,1.31249996 -0.3867188,0 -0.5390625,-0.328125 -0.5390625,-0.65625 0,-0.22265625 0.058594,-0.44531246 0.1640625,-0.87890626 z m 0,0"
         style="fill:#ffffff;fill-opacity:1;fill-rule:nonzero;stroke:none" />
      <path
         id="path4"
         d="m 8.0258203,-2.9342891 c 0,-0.1875 -0.011719,-0.1992187 -0.2109375,-0.1992187 -0.4453125,0.4335937 -1.078125,0.4453125 -1.359375,0.4453125 v 0.2460937 c 0.1640625,0 0.6210938,0 1.0078125,-0.1875 v 3.55078129 c 0,0.23437501 0,0.32812501 -0.6914062,0.32812501 H 6.5023828 v 0.2460937 c 0.1289063,-0.011719 0.984375,-0.023437 1.2421875,-0.023437 0.2109375,0 1.0898438,0.011719 1.2421875,0.023437 V 1.2493047 H 8.7289453 c -0.703125,0 -0.703125,-0.09375 -0.703125,-0.32812501 z m 0,0"
         style="fill:#ffffff;fill-opacity:1;fill-rule:nonzero;stroke:none" />
    </g>
    <path
       id="path5"
       d="M 16.14072,34.01608 0,50.15681 -16.14072,34.01608 0,17.87535 Z"
       style="fill:none;stroke:#ffffff;stroke-width:0.3985;stroke-linecap:butt;stroke-linejoin:miter;stroke-miterlimit:10;stroke-dasharray:none;stroke-opacity:1"
       transform="matrix(1.3333333,0,0,-1.3333333,31.196,116.27467)" />
    <g
       id="g5"
       aria-label="x&#10;2"
       transform="matrix(1.3333333,0,0,1.3333333,24.42,72.784)">
      <path
         id="path6"
         d="m 3.3295312,-3.0108516 c 0.058594,-0.2578125 0.2929688,-1.171875 0.984375,-1.171875 0.046875,0 0.2929688,0 0.5039063,0.1289063 -0.28125,0.046875 -0.4804688,0.3046875 -0.4804688,0.5390625 0,0.1640625 0.1054688,0.3515625 0.375,0.3515625 0.2226563,0 0.5390625,-0.1875 0.5390625,-0.5859375 0,-0.515625 -0.5859375,-0.65625 -0.9257812,-0.65625 -0.5742188,0 -0.9257813,0.5273437 -1.0429688,0.7617187 -0.2578125,-0.65625 -0.7851562,-0.7617187 -1.078125,-0.7617187 -1.0429687,0 -1.6054687,1.2890625 -1.6054687,1.5351562 0,0.1054688 0.10546875,0.1054688 0.1171875,0.1054688 0.0820313,0 0.1171875,-0.023437 0.12890625,-0.1171875 C 1.185,-3.9366328 1.84125,-4.1827266 2.1810937,-4.1827266 c 0.1875,0 0.5390625,0.09375 0.5390625,0.6679688 0,0.3046875 -0.1640625,0.9726562 -0.5390625,2.3671875 -0.1523437,0.62109374 -0.5039062,1.04296874 -0.9492187,1.04296874 -0.058594,0 -0.28125,0 -0.4921875,-0.12890625 0.24609375,-0.0585937 0.46875,-0.26953125 0.46875,-0.5390625 0,-0.26953129 -0.22265625,-0.35156249 -0.375,-0.35156249 -0.29296875,0 -0.5390625,0.25781249 -0.5390625,0.57421874 0,0.45703125 0.4921875,0.65625 0.9375,0.65625 0.65625,0 1.0078125,-0.69140625 1.0429687,-0.75 0.1171875,0.36328125 0.4804688,0.75 1.078125,0.75 1.0195313,0 1.59375,-1.27734374 1.59375,-1.53515624 0,-0.09375 -0.09375,-0.09375 -0.1289062,-0.09375 -0.082031,0 -0.1054688,0.035156 -0.1289063,0.1054687 -0.328125,1.06640629 -0.9960937,1.31250004 -1.3242187,1.31250004 -0.3867188,0 -0.5390625,-0.328125 -0.5390625,-0.65625 0,-0.22265625 0.058594,-0.44531254 0.1640625,-0.87890624 z m 0,0"
         style="fill:#ffffff;fill-opacity:1;fill-rule:nonzero;stroke:none" />
      <path
         id="path7"
         d="m 9.2094141,0.22938281 h -0.234375 c -0.023437,0.15234375 -0.082031,0.5625 -0.1757813,0.6328125 -0.058594,0.0351563 -0.5976562,0.0351563 -0.6914062,0.0351563 H 6.8187891 c 0.7382812,-0.64453125 0.984375,-0.84375 1.3945312,-1.171875 0.515625,-0.41015625 0.9960938,-0.84374991 0.9960938,-1.49999991 0,-0.8437501 -0.7382813,-1.3593751 -1.6289063,-1.3593751 -0.8671875,0 -1.453125,0.609375 -1.453125,1.2421876 0,0.3632812 0.3046875,0.3984375 0.375,0.3984375 0.1640625,0 0.375,-0.1171875 0.375,-0.375 0,-0.1289063 -0.058594,-0.3632814 -0.421875,-0.3632814 0.2226563,-0.5039062 0.6914063,-0.65625 1.0195313,-0.65625 0.703125,0 1.0664062,0.5507813 1.0664062,1.1132813 0,0.609375 -0.4335937,1.08984376 -0.65625,1.33593751 l -1.6875,1.66406249 c -0.070312,0.058594 -0.070312,0.070312 -0.070312,0.2695312 h 2.8828125 z m 0,0"
         style="fill:#ffffff;fill-opacity:1;fill-rule:nonzero;stroke:none" />
    </g>
    <path
       id="path8"
       d="m 1.9108281,-0.52596094 c 0,-0.29296875 -0.234375,-0.52734376 -0.5273437,-0.52734376 -0.28125,0 -0.52734378,0.23437501 -0.52734378,0.52734376 0,0.29296875 0.24609378,0.52734375 0.52734378,0.52734375 0.2929687,0 0.5273437,-0.234375 0.5273437,-0.52734375 z m 0,3.98437504 c 0,-0.2929688 -0.234375,-0.5273438 -0.5273437,-0.5273438 -0.28125,0 -0.52734378,0.234375 -0.52734378,0.5273438 0,0.2929687 0.24609378,0.5273437 0.52734378,0.5273437 0.2929687,0 0.5273437,-0.234375 0.5273437,-0.5273437 z m 0,3.984375 c 0,-0.2929688 -0.234375,-0.5273438 -0.5273437,-0.5273438 -0.28125,0 -0.52734378,0.234375 -0.52734378,0.5273438 0,0.2929687 0.24609378,0.5273437 0.52734378,0.5273437 0.2929687,0 0.5273437,-0.234375 0.5273437,-0.5273437 z m 0,0"
       style="fill:#ffffff;fill-opacity:1;fill-rule:nonzero;stroke:none"
       aria-label=".&#10;.&#10;."
       transform="matrix(1.3333333,0,0,1.3333333,29.350667,108.088)" />
    <path
       id="path9"
       d="M 16.55585,-34.01608 0,-17.46022 -16.55585,-34.01608 0,-50.57193 Z"
       style="fill:none;stroke:#ffffff;stroke-width:0.3985;stroke-linecap:butt;stroke-linejoin:miter;stroke-miterlimit:10;stroke-dasharray:none;stroke-opacity:1"
       transform="matrix(1.3333333,0,0,-1.3333333,31.196,116.27467)" />
    <g
       id="g9"
       aria-label="x&#10;n−1"
       transform="matrix(1.3333333,0,0,1.3333333,16.985333,162.93867)">
      <path
         id="path10"
         d="m 3.3274062,-3.0125938 c 0.058594,-0.2578125 0.2929688,-1.171875 0.984375,-1.171875 0.046875,0 0.2929688,0 0.5039063,0.1289063 -0.28125,0.046875 -0.4804688,0.3046875 -0.4804688,0.5390625 0,0.1640625 0.1054688,0.3515625 0.375,0.3515625 0.2226563,0 0.5390625,-0.1875 0.5390625,-0.5859375 0,-0.515625 -0.5859375,-0.65625 -0.9257812,-0.65625 -0.5742188,0 -0.9257813,0.5273437 -1.0429688,0.7617187 -0.2578125,-0.65625 -0.7851562,-0.7617187 -1.078125,-0.7617187 -1.0429687,0 -1.6054687,1.2890625 -1.6054687,1.5351562 0,0.1054688 0.10546875,0.1054688 0.1171875,0.1054688 0.0820313,0 0.1171875,-0.023437 0.12890625,-0.1171875 C 1.182875,-3.938375 1.839125,-4.1844688 2.1789687,-4.1844688 c 0.1875,0 0.5390625,0.09375 0.5390625,0.6679688 0,0.3046875 -0.1640625,0.9726562 -0.5390625,2.3671875 -0.1523437,0.62109375 -0.5039062,1.04296875 -0.9492187,1.04296875 -0.058594,0 -0.28125,0 -0.4921875,-0.12890625 0.24609375,-0.0585938 0.46875,-0.26953125 0.46875,-0.5390625 0,-0.2695313 -0.22265625,-0.3515625 -0.375,-0.3515625 -0.29296875,0 -0.5390625,0.2578125 -0.5390625,0.57421875 0,0.45703125 0.4921875,0.65625 0.9375,0.65625 0.65625,0 1.0078125,-0.69140625 1.0429687,-0.75 0.1171875,0.36328125 0.4804688,0.75 1.078125,0.75 1.0195313,0 1.59375,-1.27734375 1.59375,-1.53515625 0,-0.09375 -0.09375,-0.09375 -0.1289062,-0.09375 -0.082031,0 -0.1054688,0.035156 -0.1289063,0.1054687 -0.328125,1.0664063 -0.9960937,1.31250005 -1.3242187,1.31250005 -0.3867188,0 -0.5390625,-0.328125 -0.5390625,-0.65625 C 2.8235,-0.98525 2.882094,-1.2079063 2.9875625,-1.6415 Z m 0,0"
         style="fill:#ffffff;fill-opacity:1;fill-rule:nonzero;stroke:none" />
      <path
         id="path11"
         d="m 6.5500625,1.0626016 c -0.035156,0.082031 -0.070312,0.2578125 -0.070312,0.28125 0,0.1523437 0.1171875,0.2226562 0.234375,0.2226562 0.1289062,0 0.234375,-0.09375 0.2695312,-0.1523437 0.035156,-0.058594 0.09375,-0.2929688 0.1289063,-0.43359379 0.035156,-0.12890625 0.1054687,-0.45703125 0.1523437,-0.6328125 0.035156,-0.15234375 0.082031,-0.3046875 0.1171875,-0.45703125 0.082031,-0.29296875 0.09375,-0.3515625 0.2929688,-0.6328125 0.1992187,-0.28124996 0.5273437,-0.64453126 1.0429687,-0.64453126 0.4101563,0 0.4101563,0.3632813 0.4101563,0.49218751 0,0.421875 -0.2929688,1.1953125 -0.4101563,1.48828125 -0.070312,0.1875 -0.1054687,0.2578125 -0.1054687,0.375 0,0.36328124 0.3046875,0.59765624 0.6679687,0.59765624 0.6914063,0 1.0078123,-0.96093749 1.0078123,-1.06640624 0,-0.09375 -0.09375,-0.09375 -0.117188,-0.09375 -0.09375,0 -0.105469,0.046875 -0.128906,0.1171875 C 9.8781875,1.0860391 9.5735,1.3672891 9.3039687,1.3672891 c -0.1523437,0 -0.1757812,-0.09375 -0.1757812,-0.2460938 0,-0.15234374 0.035156,-0.24609374 0.1523437,-0.56249999 0.09375,-0.2109375 0.375,-0.94921875 0.375,-1.34765625 0,-0.66796876 -0.5390625,-0.78515626 -0.9023437,-0.78515626 -0.5859375,0 -0.9726563,0.3515625 -1.1835938,0.63281251 -0.046875,-0.48046871 -0.4570312,-0.63281251 -0.75,-0.63281251 -0.2929687,0 -0.4570312,0.2109375 -0.5507812,0.375 -0.1523438,0.25781251 -0.2460938,0.65625001 -0.2460938,0.69140626 0,0.0820313 0.09375,0.0820313 0.1171875,0.0820313 0.09375,0 0.1054688,-0.0117188 0.1523438,-0.19921875 0.1054687,-0.42187491 0.234375,-0.76171871 0.515625,-0.76171871 0.1757812,0 0.2226562,0.1523438 0.2226562,0.3398438 0,0.14062491 -0.058594,0.39843741 -0.1054687,0.58593741 -0.046875,0.1875 -0.1171875,0.46875 -0.1523438,0.62109375 z m 0,0"
         style="fill:#ffffff;fill-opacity:1;fill-rule:nonzero;stroke:none" />
      <path
         id="path12"
         d="m 15.810805,-0.07411719 c 0.105468,0 0.269531,0 0.269531,-0.17578125 0,-0.17578125 -0.152344,-0.17578125 -0.269531,-0.17578125 h -4.160157 c -0.105468,0 -0.28125,0 -0.28125,0.17578125 0,0.17578125 0.164063,0.17578125 0.28125,0.17578125 z m 0,0"
         style="fill:#ffffff;fill-opacity:1;fill-rule:nonzero;stroke:none" />
      <path
         id="path13"
         d="m 19.177016,-2.9334922 c 0,-0.1875 -0.01172,-0.1992187 -0.210938,-0.1992187 -0.445312,0.4335937 -1.078125,0.4453125 -1.359375,0.4453125 v 0.2460937 c 0.164063,0 0.621094,0 1.007813,-0.1875 v 3.55078126 c 0,0.23437504 0,0.32812504 -0.691407,0.32812504 h -0.269531 v 0.2460937 c 0.128906,-0.011719 0.984375,-0.023437 1.242188,-0.023437 0.210937,0 1.089843,0.011719 1.242187,0.023437 V 1.2501016 h -0.257812 c -0.703125,0 -0.703125,-0.09375 -0.703125,-0.32812504 z m 0,0"
         style="fill:#ffffff;fill-opacity:1;fill-rule:nonzero;stroke:none" />
    </g>
    <path
       id="path14"
       d="M 16.14072,-70.867 0,-54.72627 -16.14072,-70.867 0,-87.00774 Z"
       style="fill:none;stroke:#ffffff;stroke-width:0.3985;stroke-linecap:butt;stroke-linejoin:miter;stroke-miterlimit:10;stroke-dasharray:none;stroke-opacity:1"
       transform="matrix(1.3333333,0,0,-1.3333333,31.196,116.27467)" />
    <g
       id="g14"
       aria-label="x&#10;n"
       transform="matrix(1.3333333,0,0,1.3333333,23.784,212.62667)">
      <path
         id="path15"
         d="m 3.3289922,-3.0129687 c 0.058594,-0.2578125 0.2929687,-1.171875 0.984375,-1.171875 0.046875,0 0.2929687,0 0.5039062,0.1289062 -0.28125,0.046875 -0.4804687,0.3046875 -0.4804687,0.5390625 0,0.1640625 0.1054687,0.3515625 0.375,0.3515625 0.2226562,0 0.5390625,-0.1875 0.5390625,-0.5859375 0,-0.515625 -0.5859375,-0.65625 -0.9257813,-0.65625 -0.5742187,0 -0.9257812,0.5273438 -1.0429687,0.7617188 C 3.0243047,-4.3020312 2.4969609,-4.4075 2.2039922,-4.4075 c -1.0429688,0 -1.60546876,1.2890625 -1.60546876,1.5351563 0,0.1054687 0.10546875,0.1054687 0.1171875,0.1054687 0.0820313,0 0.1171875,-0.023437 0.12890625,-0.1171875 C 1.1844609,-3.93875 1.8407109,-4.1848437 2.1805547,-4.1848437 c 0.1875,0 0.5390625,0.09375 0.5390625,0.6679687 0,0.3046875 -0.1640625,0.9726563 -0.5390625,2.3671875 -0.1523438,0.62109375 -0.5039063,1.04296875 -0.9492188,1.04296875 -0.058594,0 -0.28124996,0 -0.49218746,-0.12890625 0.24609375,-0.0585937 0.46874996,-0.26953125 0.46874996,-0.5390625 0,-0.2695312 -0.22265621,-0.3515625 -0.37499996,-0.3515625 -0.29296875,0 -0.5390625,0.2578125 -0.5390625,0.57421875 0,0.45703125 0.4921875,0.65625 0.93749996,0.65625 0.65625,0 1.0078125,-0.69140625 1.0429688,-0.75 0.1171875,0.36328125 0.4804687,0.75 1.078125,0.75 1.0195312,0 1.59375,-1.27734375 1.59375,-1.53515625 0,-0.09375 -0.09375,-0.09375 -0.1289063,-0.09375 -0.082031,0 -0.1054687,0.035156 -0.1289062,0.1054688 -0.328125,1.0664062 -0.9960938,1.31249995 -1.3242188,1.31249995 -0.3867187,0 -0.5390625,-0.328125 -0.5390625,-0.65625 0,-0.22265625 0.058594,-0.44531245 0.1640625,-0.87890625 z m 0,0"
         style="fill:#ffffff;fill-opacity:1;fill-rule:nonzero;stroke:none" />
      <path
         id="path16"
         d="m 6.5487187,1.0592969 c -0.035156,0.082031 -0.070312,0.2578125 -0.070312,0.28125 0,0.1523437 0.1171875,0.2226562 0.234375,0.2226562 0.1289063,0 0.234375,-0.09375 0.2695313,-0.1523437 C 7.017469,1.3522654 7.076063,1.1178906 7.1112192,0.97726563 7.1463752,0.84835938 7.216688,0.52023438 7.263563,0.34445313 7.298719,0.19210938 7.345594,0.03976563 7.3807505,-0.11257812 c 0.082031,-0.29296875 0.09375,-0.3515625 0.2929687,-0.6328125 C 7.872938,-1.0266406 8.201063,-1.3899219 8.716688,-1.3899219 c 0.4101562,0 0.4101562,0.3632813 0.4101562,0.49218753 0,0.421875 -0.2929687,1.1953125 -0.4101562,1.48828125 -0.070312,0.1875 -0.1054688,0.2578125 -0.1054688,0.375 0,0.36328122 0.3046875,0.59765622 0.6679688,0.59765622 0.6914062,0 1.007813,-0.96093747 1.007813,-1.06640622 0,-0.09375 -0.09375,-0.09375 -0.117189,-0.09375 -0.09375,0 -0.105468,0.046875 -0.128906,0.1171875 C 9.8768437,1.0827344 9.5721562,1.3639844 9.302625,1.3639844 c -0.1523438,0 -0.1757813,-0.09375 -0.1757813,-0.2460938 0,-0.15234372 0.035156,-0.24609372 0.1523438,-0.56249997 0.09375,-0.2109375 0.375,-0.94921875 0.375,-1.34765625 0,-0.66796878 -0.5390625,-0.78515628 -0.9023438,-0.78515628 -0.5859375,0 -0.9726562,0.3515625 -1.1835937,0.63281253 -0.046875,-0.48046873 -0.4570313,-0.63281253 -0.75,-0.63281253 -0.2929688,0 -0.4570313,0.2109375 -0.5507813,0.375 -0.1523437,0.25781253 -0.2460937,0.65625003 -0.2460937,0.69140628 0,0.0820313 0.09375,0.0820313 0.1171875,0.0820313 0.09375,0 0.1054687,-0.0117188 0.1523437,-0.19921875 0.1054688,-0.42187493 0.234375,-0.76171873 0.515625,-0.76171873 0.1757813,0 0.2226563,0.1523438 0.2226563,0.3398438 0,0.14062493 -0.058594,0.39843743 -0.1054688,0.58593743 -0.046875,0.1875 -0.1171875,0.46875 -0.1523437,0.62109375 z m 0,0"
         style="fill:#ffffff;fill-opacity:1;fill-rule:nonzero;stroke:none" />
    </g>
    <path
       id="path17"
       d="m 71.0663,-17.00804 h 62.36288 v 34.0161 H 71.0663 Z"
       style="fill:none;stroke:#ffffff;stroke-width:0.3985;stroke-linecap:butt;stroke-linejoin:miter;stroke-miterlimit:10;stroke-dasharray:none;stroke-opacity:1"
       transform="matrix(1.3333333,0,0,-1.3333333,31.196,116.27467)" />
    <g
       id="g17"
       aria-label="P&#10;w&#10;i&#10;x&#10;i&#10;+b"
       transform="matrix(1.3333333,0,0,1.3333333,135.46533,109.63333)">
      <path
         id="path18"
         d="M 4.1949453,5.3199219 0.65588281,9.6910156 c -0.0820313,0.1054688 -0.09375,0.1171875 -0.09375,0.1640625 0,0.1054688 0.09375,0.1054688 0.26953125,0.1054688 H 9.0933828 L 9.9488516,7.4761719 H 9.7027578 c -0.2460937,0.75 -0.9140625,1.359375 -1.7695312,1.6523437 -0.1523438,0.046875 -0.84375,0.28125 -2.3085938,0.28125 H 1.3941641 l 3.4570312,-4.265625 c 0.070312,-0.09375 0.09375,-0.1289062 0.09375,-0.1640625 0,-0.035156 -0.011719,-0.046875 -0.070312,-0.140625 L 1.6285391,0.39804688 h 3.9492187 c 1.1367188,0 3.421875,0.0703125 4.125,1.93359372 H 9.9488516 L 9.0933828,-3.90625e-4 H 0.83166406 c -0.26953125,0 -0.26953125,0.011718755 -0.26953125,0.316406255 z m 0,0"
         style="fill:#ffffff;fill-opacity:1;fill-rule:nonzero;stroke:none" />
      <path
         id="path19"
         d="m 16.780883,4.0982422 c 0.04687,-0.2226563 0.140625,-0.5859375 0.140625,-0.6445313 0,-0.1875 -0.128906,-0.2695312 -0.28125,-0.2695312 -0.117188,0 -0.304688,0.070312 -0.375,0.2695312 -0.02344,0.070312 -0.492188,1.9804688 -0.5625,2.2382813 -0.07031,0.2929687 -0.09375,0.4804687 -0.09375,0.65625 0,0.1054687 0,0.1289062 0.01172,0.1757812 -0.222657,0.5273438 -0.527344,0.84375 -0.914063,0.84375 -0.796875,0 -0.796875,-0.7382812 -0.796875,-0.9140625 0,-0.3164062 0.04687,-0.703125 0.515625,-1.9335937 0.105469,-0.2929688 0.175781,-0.4335938 0.175781,-0.6328125 0,-0.4453125 -0.328125,-0.8203125 -0.820312,-0.8203125 -0.949219,0 -1.3125,1.453125 -1.3125,1.5351562 0,0.1054688 0.09375,0.1054688 0.117187,0.1054688 0.09375,0 0.105469,-0.023437 0.152344,-0.1875 0.269531,-0.9257813 0.667969,-1.2304688 1.007813,-1.2304688 0.09375,0 0.257812,0.011719 0.257812,0.328125 0,0.2460938 -0.117187,0.5273438 -0.1875,0.703125 -0.433594,1.171875 -0.550781,1.6289063 -0.550781,2.0039063 0,0.9140625 0.667969,1.2539062 1.40625,1.2539062 0.175781,0 0.644531,0 1.042969,-0.6914062 0.257812,0.6328125 0.949218,0.6914062 1.242187,0.6914062 0.75,0 1.183594,-0.6210937 1.441406,-1.21875 0.339844,-0.7851562 0.65625,-2.109375 0.65625,-2.5898437 0,-0.5507813 -0.269531,-0.703125 -0.433593,-0.703125 -0.246094,0 -0.503907,0.2578125 -0.503907,0.4804687 0,0.1289063 0.07031,0.1875 0.152344,0.2695313 0.117188,0.1054687 0.363281,0.3632812 0.363281,0.84375 0,0.3398437 -0.292968,1.3125 -0.550781,1.828125 -0.257812,0.5273437 -0.609375,0.8789062 -1.089844,0.8789062 -0.46875,0 -0.738281,-0.3046875 -0.738281,-0.8671875 0,-0.28125 0.07031,-0.5859375 0.105469,-0.7265625 z m 0,0"
         style="fill:#ffffff;fill-opacity:1;fill-rule:nonzero;stroke:none" />
      <path
         id="path20"
         d="m 21.570922,4.6080078 c 0,-0.1054687 -0.08203,-0.2578125 -0.28125,-0.2578125 -0.1875,0 -0.386719,0.1757813 -0.386719,0.375 0,0.1171875 0.08203,0.2695313 0.269531,0.2695313 0.210938,0 0.398438,-0.1992188 0.398438,-0.3867188 z m -1.429688,3.5390625 c -0.02344,0.09375 -0.05859,0.1757813 -0.05859,0.2929688 0,0.328125 0.28125,0.5976562 0.667968,0.5976562 0.691407,0 0.996094,-0.9609375 0.996094,-1.0664062 0,-0.09375 -0.08203,-0.09375 -0.105469,-0.09375 -0.105468,0 -0.105468,0.046875 -0.140625,0.1171875 -0.152343,0.5625 -0.457031,0.84375 -0.738281,0.84375 -0.140625,0 -0.175781,-0.082031 -0.175781,-0.2460938 0,-0.1523437 0.05859,-0.2929687 0.117187,-0.4453125 0.07031,-0.1875 0.140625,-0.375 0.222657,-0.5507812 0.05859,-0.1640625 0.316406,-0.8085938 0.339843,-0.890625 0.02344,-0.070312 0.04687,-0.1523438 0.04687,-0.2226563 0,-0.328125 -0.28125,-0.5859375 -0.667968,-0.5859375 -0.691407,0 -1.007813,0.9492188 -1.007813,1.0664063 0,0.082031 0.09375,0.082031 0.117188,0.082031 0.09375,0 0.105468,-0.035156 0.128906,-0.1054687 0.175781,-0.5976563 0.480469,-0.8554688 0.738281,-0.8554688 0.117188,0 0.175781,0.058594 0.175781,0.2460938 0,0.1640625 -0.03516,0.2695312 -0.210937,0.703125 z m 0,0"
         style="fill:#ffffff;fill-opacity:1;fill-rule:nonzero;stroke:none" />
      <path
         id="path21"
         d="m 25.953734,4.4615234 c 0.05859,-0.2578125 0.292969,-1.171875 0.984375,-1.171875 0.04687,0 0.292969,0 0.503907,0.1289063 -0.28125,0.046875 -0.480469,0.3046875 -0.480469,0.5390625 0,0.1640625 0.105469,0.3515625 0.375,0.3515625 0.222656,0 0.539062,-0.1875 0.539062,-0.5859375 0,-0.515625 -0.585937,-0.65625 -0.925781,-0.65625 -0.574219,0 -0.925781,0.5273437 -1.042969,0.7617187 -0.257812,-0.65625 -0.785156,-0.7617187 -1.078125,-0.7617187 -1.042968,0 -1.605468,1.2890625 -1.605468,1.5351562 0,0.1054688 0.105468,0.1054688 0.117187,0.1054688 0.08203,0 0.117188,-0.023437 0.128906,-0.1171875 0.339844,-1.0546875 0.996094,-1.3007813 1.335938,-1.3007813 0.1875,0 0.539062,0.09375 0.539062,0.6679688 0,0.3046875 -0.164062,0.9726562 -0.539062,2.3671875 -0.152344,0.6210937 -0.503906,1.0429687 -0.949219,1.0429687 -0.05859,0 -0.28125,0 -0.492187,-0.1289062 0.246093,-0.058594 0.46875,-0.2695313 0.46875,-0.5390625 0,-0.2695313 -0.222657,-0.3515625 -0.375,-0.3515625 -0.292969,0 -0.539063,0.2578125 -0.539063,0.5742187 0,0.4570313 0.492188,0.65625 0.9375,0.65625 0.65625,0 1.007813,-0.6914062 1.042969,-0.75 0.117187,0.3632813 0.480469,0.75 1.078125,0.75 1.019531,0 1.59375,-1.2773437 1.59375,-1.5351562 0,-0.09375 -0.09375,-0.09375 -0.128906,-0.09375 -0.08203,0 -0.105469,0.035156 -0.128907,0.1054687 -0.328125,1.0664063 -0.996093,1.3125 -1.324218,1.3125 -0.386719,0 -0.539063,-0.328125 -0.539063,-0.65625 0,-0.2226562 0.05859,-0.4453125 0.164063,-0.8789062 z m 0,0"
         style="fill:#ffffff;fill-opacity:1;fill-rule:nonzero;stroke:none" />
      <path
         id="path22"
         d="m 30.579711,4.6080078 c 0,-0.1054687 -0.08203,-0.2578125 -0.28125,-0.2578125 -0.1875,0 -0.386719,0.1757813 -0.386719,0.375 0,0.1171875 0.08203,0.2695313 0.269531,0.2695313 0.210938,0 0.398438,-0.1992188 0.398438,-0.3867188 z m -1.429688,3.5390625 c -0.02344,0.09375 -0.05859,0.1757813 -0.05859,0.2929688 0,0.328125 0.28125,0.5976562 0.667968,0.5976562 0.691407,0 0.996094,-0.9609375 0.996094,-1.0664062 0,-0.09375 -0.08203,-0.09375 -0.105469,-0.09375 -0.105468,0 -0.105468,0.046875 -0.140625,0.1171875 -0.152343,0.5625 -0.457031,0.84375 -0.738281,0.84375 -0.140625,0 -0.175781,-0.082031 -0.175781,-0.2460938 0,-0.1523437 0.05859,-0.2929687 0.117187,-0.4453125 0.07031,-0.1875 0.140625,-0.375 0.222657,-0.5507812 0.05859,-0.1640625 0.316406,-0.8085938 0.339843,-0.890625 0.02344,-0.070312 0.04687,-0.1523438 0.04687,-0.2226563 0,-0.328125 -0.28125,-0.5859375 -0.667968,-0.5859375 -0.691407,0 -1.007813,0.9492188 -1.007813,1.0664063 0,0.082031 0.09375,0.082031 0.117188,0.082031 0.09375,0 0.105468,-0.035156 0.128906,-0.1054687 0.175781,-0.5976563 0.480469,-0.8554688 0.738281,-0.8554688 0.117188,0 0.175781,0.058594 0.175781,0.2460938 0,0.1640625 -0.03516,0.2695312 -0.210937,0.703125 z m 0,0"
         style="fill:#ffffff;fill-opacity:1;fill-rule:nonzero;stroke:none" />
      <path
         id="path23"
         d="m 37.927367,5.1763672 h 2.777344 c 0.140625,0 0.328125,0 0.328125,-0.1992188 0,-0.1992187 -0.1875,-0.1992187 -0.328125,-0.1992187 H 37.927367 V 1.9888672 c 0,-0.1289063 0,-0.328125 -0.199219,-0.328125 -0.199218,0 -0.199218,0.1992187 -0.199218,0.328125 v 2.7890625 h -2.789063 c -0.140625,0 -0.328125,0 -0.328125,0.1992187 0,0.1992188 0.1875,0.1992188 0.328125,0.1992188 h 2.789063 v 2.8007812 c 0,0.1289063 0,0.328125 0.199218,0.328125 0.199219,0 0.199219,-0.1992187 0.199219,-0.328125 z m 0,0"
         style="fill:#ffffff;fill-opacity:1;fill-rule:nonzero;stroke:none" />
      <path
         id="path24"
         d="m 46.192016,0.66464844 c 0,0 0,-0.10546875 -0.128907,-0.10546875 -0.222656,0 -0.949218,0.0820313 -1.21875,0.10546875 -0.07031,0 -0.1875,0.0117188 -0.1875,0.19921875 0,0.1171875 0.09375,0.1171875 0.246094,0.1171875 0.46875,0 0.492188,0.0703125 0.492188,0.16406251 0,0.070312 -0.08203,0.4101562 -0.140625,0.6210937 l -0.808594,3.2460938 c -0.128906,0.5039062 -0.164063,0.65625 -0.164063,1.0078125 0,0.9492187 0.527344,1.5585937 1.265625,1.5585937 1.171875,0 2.402344,-1.4765625 2.402344,-2.9179687 0,-0.9023438 -0.527344,-1.59375 -1.324219,-1.59375 -0.457031,0 -0.867187,0.2929687 -1.171875,0.5976562 z m -0.9375,3.77343746 c 0.05859,-0.2226562 0.05859,-0.2460937 0.152343,-0.3515625 0.492188,-0.6445312 0.9375,-0.796875 1.195313,-0.796875 0.363281,0 0.632812,0.2929688 0.632812,0.9375 0,0.5859375 -0.328125,1.734375 -0.515625,2.109375 -0.328125,0.6679688 -0.785156,1.03125 -1.171875,1.03125 -0.339843,0 -0.667968,-0.2695312 -0.667968,-1.0078125 0,-0.1875 0,-0.3867187 0.164062,-1.0078125 z m 0,0"
         style="fill:#ffffff;fill-opacity:1;fill-rule:nonzero;stroke:none" />
    </g>
    <path
       id="path25"
       d="m 219.71878,0 c 0,14.32504 -11.61244,25.93748 -25.9375,25.93748 -14.32504,0 -25.93748,-11.61244 -25.93748,-25.93748 0,-14.32504 11.61244,-25.93748 25.93748,-25.93748 14.32506,0 25.9375,11.61244 25.9375,25.93748 z"
       style="fill:none;stroke:#ffffff;stroke-width:0.3985;stroke-linecap:butt;stroke-linejoin:miter;stroke-miterlimit:10;stroke-dasharray:none;stroke-opacity:1"
       transform="matrix(1.3333333,0,0,-1.3333333,31.196,116.27467)" />
    <path
       id="path26"
       d="M -5.66925,0 H 13.2077"
       style="fill:none;stroke:#ffffff;stroke-width:0.3985;stroke-linecap:butt;stroke-linejoin:miter;stroke-miterlimit:10;stroke-dasharray:none;stroke-opacity:1"
       transform="matrix(1.3333333,0,0,-1.3333333,288.512,123.436)" />
    <path
       id="path27"
       d="M -2.07224,2.39104 C -1.69365,0.95639 -0.84999,0.27895 0,0 -0.84999,-0.27895 -1.69365,-0.95639 -2.07224,-2.39104"
       style="fill:none;stroke:#ffffff;stroke-width:0.3985;stroke-linecap:round;stroke-linejoin:round;stroke-miterlimit:10;stroke-dasharray:none;stroke-opacity:1"
       transform="matrix(1.3333333,0,0,-1.3333333,306.38793,123.436)" />
    <path
       id="path28"
       d="M 0,-2.26765 V 17.74323"
       style="fill:none;stroke:#ffffff;stroke-width:0.3985;stroke-linecap:butt;stroke-linejoin:miter;stroke-miterlimit:10;stroke-dasharray:none;stroke-opacity:1"
       transform="matrix(1.3333333,0,0,-1.3333333,288.512,123.436)" />
    <path
       id="path29"
       d="M -2.07224,2.39104 C -1.69365,0.95639 -0.84999,0.27895 0,0 -0.84999,-0.27895 -1.69365,-0.95639 -2.07224,-2.39104"
       style="fill:none;stroke:#ffffff;stroke-width:0.3985;stroke-linecap:round;stroke-linejoin:round;stroke-miterlimit:10;stroke-dasharray:none;stroke-opacity:1"
       transform="matrix(0,-1.3333333,-1.3333333,0,288.512,99.512707)" />
    <path
       id="path30"
       d="M -11.33855,0 H 0"
       style="fill:none;stroke:#ff0000;stroke-width:0.79701;stroke-linecap:butt;stroke-linejoin:miter;stroke-miterlimit:10;stroke-dasharray:none;stroke-opacity:1"
       transform="matrix(1.3333333,0,0,-1.3333333,288.512,123.436)" />
    <path
       id="path31"
       d="M 0,11.33855 H 11.33855"
       style="fill:none;stroke:#ff0000;stroke-width:0.79701;stroke-linecap:butt;stroke-linejoin:miter;stroke-miterlimit:10;stroke-dasharray:none;stroke-opacity:1"
       transform="matrix(1.3333333,0,0,-1.3333333,288.512,123.436)" />
    <path
       id="path32"
       d="m 2.3322969,-4.4283828 c 0,-0.1875 -0.011719,-0.1992188 -0.2109375,-0.1992188 -0.4453125,0.4335938 -1.078125,0.4453125 -1.35937502,0.4453125 v 0.2460938 c 0.1640625,0 0.62109372,0 1.00781252,-0.1875 v 3.55078124 c 0,0.234375 0,0.328125 -0.6914063,0.328125 H 0.80885938 v 0.24609375 c 0.12890625,-0.01171875 0.98437502,-0.0234375 1.24218752,-0.0234375 0.2109375,0 1.0898437,0.01171875 1.2421875,0.0234375 V -0.24478906 H 3.0354219 c -0.703125,0 -0.703125,-0.09375 -0.703125,-0.328125 z m 0,0"
       style="fill:#ffffff;fill-opacity:1;fill-rule:nonzero;stroke:none"
       aria-label="1"
       transform="matrix(1.3333333,0,0,1.3333333,281.42933,111.31467)" />
    <path
       id="path33"
       d="m 4.8385469,-3.7960625 c 0.046875,-0.140625 0.046875,-0.1523437 0.046875,-0.2226562 0,-0.1875 -0.140625,-0.2695313 -0.2929688,-0.2695313 -0.1054687,0 -0.2578125,0.058594 -0.3515625,0.1992188 -0.023437,0.058594 -0.09375,0.3632812 -0.140625,0.5390625 -0.070312,0.2578125 -0.140625,0.5273437 -0.1992187,0.796875 L 3.4557344,-0.960125 c -0.035156,0.15234375 -0.46875,0.85546875 -1.125,0.85546875 -0.5039063,0 -0.6210938,-0.4453125 -0.6210938,-0.80859375 0,-0.4570312 0.1757813,-1.078125 0.515625,-1.9570312 0.1523438,-0.4101563 0.1992188,-0.515625 0.1992188,-0.7148438 0,-0.4453125 -0.328125,-0.8203125 -0.8203125,-0.8203125 -0.94921877,0 -1.31250002,1.453125 -1.31250002,1.5351563 0,0.1054687 0.09375,0.1054687 0.1171875,0.1054687 0.09375,0 0.10546875,-0.023437 0.15234375,-0.1875 0.26953125,-0.9375 0.66796877,-1.2304687 1.00781247,-1.2304687 0.082031,0 0.2578125,0 0.2578125,0.3164062 0,0.2460938 -0.1054687,0.515625 -0.1757812,0.703125 -0.3984375,1.0546875 -0.5742188,1.6171875 -0.5742188,2.0859375 0,0.890625 0.6210938,1.18359375 1.21875,1.18359375 0.3867188,0 0.7265625,-0.1640625 0.9960938,-0.4453125 C 3.1627656,0.17659375 3.0455781,0.66878125 2.6471406,1.196125 2.3893281,1.5359688 2.0143281,1.8289375 1.5572969,1.8289375 c -0.140625,0 -0.59765627,-0.035156 -0.76171877,-0.421875 0.1640625,0 0.29296877,0 0.43359377,-0.1171875 0.09375,-0.09375 0.1992187,-0.2226562 0.1992187,-0.41015625 0,-0.31640625 -0.2695312,-0.3515625 -0.375,-0.3515625 -0.22265622,0 -0.55078122,0.1640625 -0.55078122,0.64453125 0,0.5039063 0.43359375,0.8671875 1.05468752,0.8671875 1.0195312,0 2.0507812,-0.9023437 2.3320312,-2.02734375 z m 0,0"
       style="fill:#ffffff;fill-opacity:1;fill-rule:nonzero;stroke:none"
       aria-label="y"
       transform="matrix(1.3333333,0,0,1.3333333,374.46267,117.84267)" />
    <path
       id="path34"
       d="M 9.70122,64.144 72.35309,20.72545"
       style="fill:none;stroke:#ffffff;stroke-width:0.79701;stroke-linecap:butt;stroke-linejoin:miter;stroke-miterlimit:10;stroke-dasharray:none;stroke-opacity:1"
       transform="matrix(1.3333333,0,0,-1.3333333,31.196,116.27467)" />
    <path
       id="path35"
       d="M 4.53381,0 C 3.97704,0.13808 1.52963,0.92049 0,1.77196 V -1.77196 C 1.52963,-0.92049 3.97704,-0.13808 4.53381,0 Z"
       style="fill:#ffffff;fill-opacity:1;fill-rule:nonzero;stroke:#ffffff;stroke-width:0.79701;stroke-linecap:butt;stroke-linejoin:miter;stroke-miterlimit:10;stroke-dasharray:none;stroke-opacity:1"
       transform="matrix(1.09584,0.75941333,0.75941333,-1.09584,127.66676,88.64072)" />
    <path
       id="path36"
       d="m 37.74333,41.07416 h 11.64435 v 5.99149 H 37.74333 Z"
       style="fill:#121212;fill-opacity:1;fill-rule:nonzero;stroke:none"
       transform="matrix(1.3333333,0,0,-1.3333333,31.196,116.27467)" />
    <g
       id="g36"
       aria-label="w&#10;1"
       transform="matrix(1.3333333,0,0,1.3333333,82.848,58.853333)">
      <path
         id="path37"
         d="m 3.6677109,-2.2278906 c 0.046875,-0.1875 0.1289063,-0.515625 0.1289063,-0.5507813 0,-0.140625 -0.1054688,-0.2226562 -0.2226563,-0.2226562 -0.140625,0 -0.2578125,0.082031 -0.3046875,0.1992187 -0.023437,0.058594 -0.09375,0.3515625 -0.140625,0.515625 -0.09375,0.3984375 -0.09375,0.421875 -0.1992187,0.8085938 -0.09375,0.3867187 -0.1054688,0.4335937 -0.1171875,0.64453123 0.035156,0.12890625 -0.023437,0.26953125 -0.1875,0.48046875 -0.09375,0.10546875 -0.234375,0.22265625 -0.46875,0.22265625 -0.2695313,0 -0.6328125,-0.09375 -0.6328125,-0.6328125 0,-0.36328123 0.1992187,-0.87890623 0.3398437,-1.23046873 0.1171875,-0.3046875 0.140625,-0.375 0.140625,-0.4921875 0,-0.328125 -0.28125,-0.5859375 -0.65625,-0.5859375 -0.70312496,0 -1.01953121,0.9492187 -1.01953121,1.0664062 0,0.082031 0.09375,0.082031 0.1171875,0.082031 0.09375,0 0.10546875,-0.035156 0.12890625,-0.1054688 0.17578125,-0.5859375 0.46874996,-0.8554687 0.74999996,-0.8554687 0.1171875,0 0.1757813,0.082031 0.1757813,0.2460937 0,0.1640625 -0.058594,0.3164063 -0.09375,0.4101563 -0.3984375,1.0078125 -0.3984375,1.1484375 -0.3984375,1.37109373 0,0.8203125 0.7382812,0.92578125 1.1132812,0.92578125 0.140625,0 0.4804688,0 0.796875,-0.46875 0.1523438,0.31640625 0.5390625,0.46875 0.9609375,0.46875 0.6210938,0 0.9375,-0.5390625 1.0664063,-0.8203125 0.3046875,-0.58593748 0.4921875,-1.46484378 0.4921875,-1.78124998 0,-0.5273438 -0.2929688,-0.5507813 -0.3515625,-0.5507813 -0.1757813,0 -0.375,0.1875 -0.375,0.375 0,0.1171875 0.070312,0.1640625 0.1171875,0.2109375 0.1757812,0.140625 0.2578125,0.3398438 0.2578125,0.5625 0,0.082031 -0.2929688,1.80468753 -1.171875,1.80468753 -0.5625,0 -0.5625,-0.50390625 -0.5625,-0.62109375 0,-0.1875 0.023437,-0.29296878 0.1171875,-0.69140628 z m 0,0"
         style="fill:#ffffff;fill-opacity:1;fill-rule:nonzero;stroke:none" />
      <path
         id="path38"
         d="m 7.7429063,-2.1692969 c 0,-0.1523437 -0.011719,-0.1523437 -0.1757813,-0.1523437 -0.3515625,0.3164062 -0.9023437,0.3164062 -1.0078125,0.3164062 h -0.082031 v 0.2226563 h 0.082031 c 0.1171875,0 0.4335938,-0.011719 0.7265625,-0.140625 v 2.48437498 c 0,0.1640625 0,0.2109375 -0.5273437,0.2109375 H 6.5124375 v 0.22265625 c 0.2695313,-0.0234375 0.7148438,-0.0234375 1.0078125,-0.0234375 0.28125,0 0.7265625,0 0.9960938,0.0234375 V 0.77210938 H 8.27025 c -0.5273437,0 -0.5273437,-0.046875 -0.5273437,-0.2109375 z m 0,0"
         style="fill:#ffffff;fill-opacity:1;fill-rule:nonzero;stroke:none" />
    </g>
    <path
       id="path39"
       d="M 12.32288,29.91486 65.00644,12.38083"
       style="fill:none;stroke:#ffffff;stroke-width:0.79701;stroke-linecap:butt;stroke-linejoin:miter;stroke-miterlimit:10;stroke-dasharray:none;stroke-opacity:1"
       transform="matrix(1.3333333,0,0,-1.3333333,31.196,116.27467)" />
    <path
       id="path40"
       d="M 4.53381,0 C 3.97704,0.13808 1.52963,0.92049 0,1.77196 V -1.77196 C 1.52963,-0.92049 3.97704,-0.13808 4.53381,0 Z"
       style="fill:#ffffff;fill-opacity:1;fill-rule:nonzero;stroke:#ffffff;stroke-width:0.79701;stroke-linecap:butt;stroke-linejoin:miter;stroke-miterlimit:10;stroke-dasharray:none;stroke-opacity:1"
       transform="matrix(1.2650533,0.42102667,0.42102667,-1.2650533,117.87123,99.766893)" />
    <path
       id="path41"
       d="m 35.77278,20.57112 h 11.64435 v 5.99149 H 35.77278 Z"
       style="fill:#121212;fill-opacity:1;fill-rule:nonzero;stroke:none"
       transform="matrix(1.3333333,0,0,-1.3333333,31.196,116.27467)" />
    <g
       id="g41"
       aria-label="w&#10;2"
       transform="matrix(1.3333333,0,0,1.3333333,80.22,86.190667)">
      <path
         id="path42"
         d="m 3.6670312,-2.2260078 c 0.046875,-0.1875 0.1289063,-0.515625 0.1289063,-0.5507813 0,-0.140625 -0.1054688,-0.2226562 -0.2226563,-0.2226562 -0.140625,0 -0.2578125,0.082031 -0.3046875,0.1992187 -0.023437,0.058594 -0.09375,0.3515625 -0.140625,0.515625 -0.09375,0.3984375 -0.09375,0.421875 -0.1992187,0.8085938 -0.09375,0.3867187 -0.1054688,0.4335937 -0.1171875,0.64453124 0.035156,0.12890625 -0.023437,0.26953125 -0.1875,0.48046875 -0.09375,0.10546875 -0.234375,0.22265625 -0.46875,0.22265625 -0.2695313,0 -0.6328125,-0.09375 -0.6328125,-0.6328125 0,-0.36328124 0.1992187,-0.87890624 0.3398437,-1.23046874 0.1171875,-0.3046875 0.140625,-0.375 0.140625,-0.4921875 0,-0.328125 -0.28125,-0.5859375 -0.65625,-0.5859375 -0.70312495,0 -1.0195312,0.9492187 -1.0195312,1.0664062 0,0.082031 0.09375,0.082031 0.1171875,0.082031 0.09375,0 0.10546875,-0.035156 0.12890625,-0.1054688 0.17578125,-0.5859375 0.46874995,-0.8554687 0.74999995,-0.8554687 0.1171875,0 0.1757813,0.082031 0.1757813,0.2460937 0,0.1640625 -0.058594,0.3164063 -0.09375,0.4101563 -0.3984375,1.0078125 -0.3984375,1.1484375 -0.3984375,1.37109374 0,0.8203125 0.7382812,0.92578125 1.1132812,0.92578125 0.140625,0 0.4804688,0 0.796875,-0.46875 0.1523438,0.31640625 0.5390625,0.46875 0.9609375,0.46875 0.6210938,0 0.9375,-0.5390625 1.0664063,-0.8203125 0.3046875,-0.58593749 0.4921875,-1.46484379 0.4921875,-1.78124999 0,-0.5273438 -0.2929688,-0.5507813 -0.3515625,-0.5507813 -0.1757813,0 -0.375,0.1875 -0.375,0.375 0,0.1171875 0.070312,0.1640625 0.1171875,0.2109375 0.1757812,0.140625 0.2578125,0.3398438 0.2578125,0.5625 0,0.082031 -0.2929688,1.80468754 -1.171875,1.80468754 -0.5625,0 -0.5625,-0.50390625 -0.5625,-0.62109375 0,-0.1875 0.023437,-0.29296879 0.1171875,-0.69140629 z m 0,0"
         style="fill:#ffffff;fill-opacity:1;fill-rule:nonzero;stroke:none" />
      <path
         id="path43"
         d="M 8.694375,0.03571094 H 8.4834375 c -0.011719,0.09375 -0.058594,0.3984375 -0.140625,0.45703125 -0.035156,0.0234375 -0.4570313,0.0234375 -0.5273438,0.0234375 H 6.8310937 C 7.1592187,0.27008594 7.5342187,5.546875e-4 7.8271875,-0.19866406 8.2842187,-0.51507031 8.694375,-0.79632031 8.694375,-1.3236641 c 0,-0.6445312 -0.5976563,-0.9960937 -1.3125,-0.9960937 -0.6679688,0 -1.1601563,0.3867187 -1.1601563,0.8789062 0,0.2578125 0.2109375,0.3046875 0.28125,0.3046875 0.140625,0 0.2929688,-0.09375 0.2929688,-0.2929687 0,-0.1875 -0.1289063,-0.28125 -0.28125,-0.2929688 0.140625,-0.234375 0.4335937,-0.375 0.7617187,-0.375 0.4804688,0 0.890625,0.28125 0.890625,0.7734375 0,0.42187504 -0.2929687,0.73828129 -0.6796875,1.05468754 l -1.2070312,1.03125 c -0.046875,0.046875 -0.058594,0.046875 -0.058594,0.0820313 v 0.15234375 h 2.3085938 z m 0,0"
         style="fill:#ffffff;fill-opacity:1;fill-rule:nonzero;stroke:none" />
    </g>
    <path
       id="path44"
       d="m 12.63484,-29.81099 52.3716,17.43016"
       style="fill:none;stroke:#ffffff;stroke-width:0.79701;stroke-linecap:butt;stroke-linejoin:miter;stroke-miterlimit:10;stroke-dasharray:none;stroke-opacity:1"
       transform="matrix(1.3333333,0,0,-1.3333333,31.196,116.27467)" />
    <path
       id="path45"
       d="M 4.53381,0 C 3.97704,0.13808 1.52963,0.92049 0,1.77196 V -1.77196 C 1.52963,-0.92049 3.97704,-0.13808 4.53381,0 Z"
       style="fill:#ffffff;fill-opacity:1;fill-rule:nonzero;stroke:#ffffff;stroke-width:0.79701;stroke-linecap:butt;stroke-linejoin:miter;stroke-miterlimit:10;stroke-dasharray:none;stroke-opacity:1"
       transform="matrix(1.2650533,-0.42102667,-0.42102667,-1.2650533,117.87123,132.78244)" />
    <path
       id="path46"
       d="m 31.03667,-27.34093 h 21.42851 v 6.82173 H 31.03667 Z"
       style="fill:#121212;fill-opacity:1;fill-rule:nonzero;stroke:none"
       transform="matrix(1.3333333,0,0,-1.3333333,31.196,116.27467)" />
    <g
       id="g46"
       aria-label="w&#10;n−1"
       transform="matrix(1.3333333,0,0,1.3333333,73.905333,148.96533)">
      <path
         id="path47"
         d="m 3.6686562,-2.2269297 c 0.046875,-0.1875 0.1289063,-0.515625 0.1289063,-0.5507812 0,-0.140625 -0.1054688,-0.2226563 -0.2226563,-0.2226563 -0.140625,0 -0.2578125,0.082031 -0.3046875,0.1992188 -0.023437,0.058594 -0.09375,0.3515625 -0.140625,0.515625 -0.09375,0.3984375 -0.09375,0.421875 -0.1992187,0.8085937 -0.09375,0.3867188 -0.1054688,0.4335938 -0.1171875,0.64453126 0.035156,0.12890625 -0.023437,0.26953125 -0.1875,0.48046875 -0.09375,0.10546875 -0.234375,0.22265625 -0.46875,0.22265625 -0.2695313,0 -0.6328125,-0.09375 -0.6328125,-0.6328125 0,-0.36328126 0.1992187,-0.87890626 0.3398437,-1.23046876 0.1171875,-0.3046875 0.140625,-0.375 0.140625,-0.4921875 0,-0.328125 -0.28125,-0.5859375 -0.65625,-0.5859375 -0.70312495,0 -1.0195312,0.9492188 -1.0195312,1.0664063 0,0.082031 0.09375,0.082031 0.1171875,0.082031 0.09375,0 0.10546875,-0.035156 0.12890625,-0.1054687 0.17578125,-0.5859375 0.46874995,-0.8554688 0.74999995,-0.8554688 0.1171875,0 0.1757813,0.082031 0.1757813,0.2460938 0,0.1640625 -0.058594,0.3164062 -0.09375,0.4101562 C 1.0085,-1.2191172 1.0085,-1.0784922 1.0085,-0.85583594 c 0,0.8203125 0.7382812,0.92578125 1.1132812,0.92578125 0.140625,0 0.4804688,0 0.796875,-0.46875 0.1523438,0.31640625 0.5390625,0.46875 0.9609375,0.46875 0.6210938,0 0.9375,-0.5390625 1.0664063,-0.8203125 0.3046875,-0.58593751 0.4921875,-1.46484371 0.4921875,-1.78125001 0,-0.5273437 -0.2929688,-0.5507812 -0.3515625,-0.5507812 -0.1757813,0 -0.375,0.1875 -0.375,0.375 0,0.1171875 0.070312,0.1640625 0.1171875,0.2109375 0.1757812,0.140625 0.2578125,0.3398437 0.2578125,0.5625 0,0.082031 -0.2929688,1.80468746 -1.171875,1.80468746 -0.5625,0 -0.5625,-0.50390625 -0.5625,-0.62109375 0,-0.1875 0.023437,-0.29296871 0.1171875,-0.69140621 z m 0,0"
         style="fill:#ffffff;fill-opacity:1;fill-rule:nonzero;stroke:none" />
      <path
         id="path48"
         d="m 6.7360391,0.50353906 c -0.035156,0.12890625 -0.082031,0.3515625 -0.082031,0.375 0,0.10546875 0.082031,0.17578124 0.1757813,0.17578124 0.082031,0 0.1875,-0.046875 0.2460937,-0.16406249 0,-0.0234375 0.058594,-0.2578125 0.09375,-0.3984375 0.1640625,-0.66796875 0.1640625,-0.6796875 0.1757813,-0.69140625 0.070312,-0.140625 0.421875,-0.83203126 1.03125,-0.83203126 0.2460937,0 0.3515625,0.12890626 0.3515625,0.35156251 0,0.28125 -0.2109375,0.796875 -0.328125,1.078125 -0.023437,0.0703125 -0.046875,0.12890625 -0.046875,0.2109375 0,0.2578125 0.2460937,0.44531249 0.5390625,0.44531249 0.5390625,0 0.8085937,-0.65624999 0.8085937,-0.77343749 0,-0.0703125 -0.082031,-0.0703125 -0.1054687,-0.0703125 -0.082031,0 -0.082031,0.0234375 -0.1171875,0.1171875 -0.09375,0.29296875 -0.328125,0.55078125 -0.5625,0.55078125 -0.1171875,0 -0.1523438,-0.0820313 -0.1523438,-0.1875 0,-0.10546875 0.023437,-0.15234375 0.070312,-0.2578125 0.082031,-0.19921875 0.3164063,-0.7734375 0.3164063,-1.04296875 0,-0.375 -0.2695313,-0.59765621 -0.7382813,-0.59765621 -0.4570312,0 -0.7734375,0.28124996 -0.9492187,0.49218746 -0.023437,-0.41015626 -0.421875,-0.49218746 -0.5976563,-0.49218746 -0.5039062,0 -0.6445312,0.76171871 -0.6445312,0.77343746 0,0.0703125 0.070312,0.0703125 0.1054687,0.0703125 0.082031,0 0.09375,-0.0351563 0.1054688,-0.09375 0.082031,-0.29296875 0.1992187,-0.57421876 0.3984375,-0.57421876 0.1757812,0 0.2109375,0.15234376 0.2109375,0.25781251 0,0.0703125 -0.046875,0.2578125 -0.082031,0.38671875 -0.035156,0.140625 -0.082031,0.33984375 -0.1054687,0.45703125 z m 0,0"
         style="fill:#ffffff;fill-opacity:1;fill-rule:nonzero;stroke:none" />
      <path
         id="path49"
         d="m 14.534867,-0.10583594 c 0.08203,0 0.210938,0 0.210938,-0.140625 0,-0.140625 -0.128907,-0.140625 -0.210938,-0.140625 h -3.375 c -0.08203,0 -0.210937,0 -0.210937,0.140625 0,0.140625 0.128906,0.140625 0.210937,0.140625 z m 0,0"
         style="fill:#ffffff;fill-opacity:1;fill-rule:nonzero;stroke:none" />
      <path
         id="path50"
         d="m 17.529008,-2.1683359 c 0,-0.1523438 -0.01172,-0.1523438 -0.175781,-0.1523438 -0.351563,0.3164063 -0.902344,0.3164063 -1.007813,0.3164063 h -0.08203 v 0.2226562 h 0.08203 c 0.117188,0 0.433594,-0.011719 0.726563,-0.140625 v 2.48437501 c 0,0.1640625 0,0.2109375 -0.527344,0.2109375 h -0.246094 v 0.22265625 c 0.269531,-0.0234375 0.714844,-0.0234375 1.007813,-0.0234375 0.28125,0 0.726562,0 0.996093,0.0234375 V 0.77307031 h -0.246093 c -0.527344,0 -0.527344,-0.046875 -0.527344,-0.2109375 z m 0,0"
         style="fill:#ffffff;fill-opacity:1;fill-rule:nonzero;stroke:none" />
    </g>
    <path
       id="path51"
       d="m 9.70122,-64.144 62.65187,43.41855"
       style="fill:none;stroke:#ffffff;stroke-width:0.79701;stroke-linecap:butt;stroke-linejoin:miter;stroke-miterlimit:10;stroke-dasharray:none;stroke-opacity:1"
       transform="matrix(1.3333333,0,0,-1.3333333,31.196,116.27467)" />
    <path
       id="path52"
       d="M 4.53381,0 C 3.97704,0.13808 1.52963,0.92049 0,1.77196 V -1.77196 C 1.52963,-0.92049 3.97704,-0.13808 4.53381,0 Z"
       style="fill:#ffffff;fill-opacity:1;fill-rule:nonzero;stroke:#ffffff;stroke-width:0.79701;stroke-linecap:butt;stroke-linejoin:miter;stroke-miterlimit:10;stroke-dasharray:none;stroke-opacity:1"
       transform="matrix(1.09584,-0.75941333,-0.75941333,-1.09584,127.66676,143.90861)" />
    <path
       id="path53"
       d="m 37.24461,-47.06566 h 12.64177 v 5.99149 H 37.24461 Z"
       style="fill:#121212;fill-opacity:1;fill-rule:nonzero;stroke:none"
       transform="matrix(1.3333333,0,0,-1.3333333,31.196,116.27467)" />
    <g
       id="g53"
       aria-label="w&#10;n"
       transform="matrix(1.3333333,0,0,1.3333333,82.182667,176.372)">
      <path
         id="path54"
         d="m 3.6686641,-2.2272422 c 0.046875,-0.1875 0.1289062,-0.515625 0.1289062,-0.5507812 0,-0.140625 -0.1054687,-0.2226563 -0.2226562,-0.2226563 -0.140625,0 -0.2578125,0.082031 -0.3046875,0.1992188 -0.023437,0.058594 -0.09375,0.3515625 -0.140625,0.515625 -0.09375,0.3984375 -0.09375,0.421875 -0.1992188,0.8085937 -0.09375,0.3867188 -0.1054687,0.4335938 -0.1171875,0.64453126 0.035156,0.12890625 -0.023437,0.26953125 -0.1875,0.48046875 -0.09375,0.10546875 -0.234375,0.22265625 -0.46875,0.22265625 -0.2695312,0 -0.6328125,-0.09375 -0.6328125,-0.6328125 0,-0.36328126 0.1992188,-0.87890626 0.3398438,-1.23046876 0.1171875,-0.3046875 0.140625,-0.375 0.140625,-0.4921875 0,-0.328125 -0.28125,-0.5859375 -0.65625,-0.5859375 -0.70312504,0 -1.01953129,0.9492188 -1.01953129,1.0664063 0,0.082031 0.09375,0.082031 0.1171875,0.082031 0.09375,0 0.10546875,-0.035156 0.12890625,-0.1054687 0.17578125,-0.5859375 0.46875004,-0.8554688 0.75000004,-0.8554688 0.1171875,0 0.1757812,0.082031 0.1757812,0.2460938 0,0.1640625 -0.058594,0.3164062 -0.09375,0.4101562 -0.3984375,1.0078125 -0.3984375,1.1484375 -0.3984375,1.37109376 0,0.8203125 0.7382813,0.92578125 1.1132813,0.92578125 0.140625,0 0.4804687,0 0.796875,-0.46875 0.1523437,0.31640625 0.5390625,0.46875 0.9609375,0.46875 0.6210937,0 0.9375,-0.5390625 1.0664062,-0.8203125 0.3046875,-0.58593751 0.4921875,-1.46484371 0.4921875,-1.78125001 0,-0.5273437 -0.2929687,-0.5507812 -0.3515625,-0.5507812 -0.1757812,0 -0.375,0.1875 -0.375,0.375 0,0.1171875 0.070312,0.1640625 0.1171875,0.2109375 0.1757813,0.140625 0.2578125,0.3398437 0.2578125,0.5625 0,0.082031 -0.2929687,1.80468746 -1.171875,1.80468746 -0.5625,0 -0.5625,-0.50390625 -0.5625,-0.62109375 0,-0.1875 0.023437,-0.29296871 0.1171875,-0.69140621 z m 0,0"
         style="fill:#ffffff;fill-opacity:1;fill-rule:nonzero;stroke:none" />
      <path
         id="path55"
         d="m 6.7360469,0.50322656 c -0.035156,0.12890625 -0.082031,0.3515625 -0.082031,0.375 0,0.10546875 0.082031,0.17578124 0.1757813,0.17578124 0.082031,0 0.1875,-0.046875 0.2460937,-0.16406249 0,-0.0234375 0.058594,-0.2578125 0.09375,-0.3984375 0.1640625,-0.66796875 0.1640625,-0.6796875 0.1757813,-0.69140625 0.070312,-0.140625 0.421875,-0.83203126 1.03125,-0.83203126 0.2460937,0 0.3515625,0.12890626 0.3515625,0.35156251 0,0.28125 -0.2109375,0.796875 -0.328125,1.078125 -0.023437,0.0703125 -0.046875,0.12890625 -0.046875,0.2109375 0,0.2578125 0.2460937,0.44531249 0.5390625,0.44531249 0.5390625,0 0.8085937,-0.65624999 0.8085937,-0.77343749 0,-0.0703125 -0.082031,-0.0703125 -0.1054687,-0.0703125 -0.082031,0 -0.082031,0.0234375 -0.1171875,0.1171875 -0.09375,0.29296875 -0.328125,0.55078125 -0.5625,0.55078125 -0.1171875,0 -0.1523438,-0.0820313 -0.1523438,-0.1875 0,-0.10546875 0.023437,-0.15234375 0.070312,-0.2578125 0.082031,-0.19921875 0.3164063,-0.7734375 0.3164063,-1.04296875 0,-0.375 -0.2695313,-0.59765621 -0.7382813,-0.59765621 -0.4570312,0 -0.7734375,0.28124996 -0.9492187,0.49218746 -0.023437,-0.41015626 -0.421875,-0.49218746 -0.5976563,-0.49218746 -0.5039062,0 -0.6445312,0.76171871 -0.6445312,0.77343746 0,0.0703125 0.070312,0.0703125 0.1054687,0.0703125 0.082031,0 0.09375,-0.0351563 0.1054688,-0.09375 0.082031,-0.29296875 0.1992187,-0.57421876 0.3984375,-0.57421876 0.1757812,0 0.2109375,0.15234376 0.2109375,0.25781251 0,0.0703125 -0.046875,0.2578125 -0.082031,0.38671875 -0.035156,0.140625 -0.082031,0.33984375 -0.1054687,0.45703125 z m 0,0"
         style="fill:#ffffff;fill-opacity:1;fill-rule:nonzero;stroke:none" />
    </g>
    <path
       id="path56"
       d="M 133.62843,0 H 161.4676"
       style="fill:none;stroke:#ffffff;stroke-width:0.79701;stroke-linecap:butt;stroke-linejoin:miter;stroke-miterlimit:10;stroke-dasharray:none;stroke-opacity:1"
       transform="matrix(1.3333333,0,0,-1.3333333,31.196,116.27467)" />
    <path
       id="path57"
       d="M 4.53381,0 C 3.97704,0.13808 1.52963,0.92049 0,1.77196 V -1.77196 C 1.52963,-0.92049 3.97704,-0.13808 4.53381,0 Z"
       style="fill:#ffffff;fill-opacity:1;fill-rule:nonzero;stroke:#ffffff;stroke-width:0.79701;stroke-linecap:butt;stroke-linejoin:miter;stroke-miterlimit:10;stroke-dasharray:none;stroke-opacity:1"
       transform="matrix(1.3333333,0,0,-1.3333333,246.48613,116.27467)" />
    <path
       id="path58"
       d="M 219.91803,0 H 247.7572"
       style="fill:none;stroke:#ffffff;stroke-width:0.79701;stroke-linecap:butt;stroke-linejoin:miter;stroke-miterlimit:10;stroke-dasharray:none;stroke-opacity:1"
       transform="matrix(1.3333333,0,0,-1.3333333,31.196,116.27467)" />
    <path
       id="path59"
       d="M 4.53381,0 C 3.97704,0.13808 1.52963,0.92049 0,1.77196 V -1.77196 C 1.52963,-0.92049 3.97704,-0.13808 4.53381,0 Z"
       style="fill:#ffffff;fill-opacity:1;fill-rule:nonzero;stroke:#ffffff;stroke-width:0.79701;stroke-linecap:butt;stroke-linejoin:miter;stroke-miterlimit:10;stroke-dasharray:none;stroke-opacity:1"
       transform="matrix(1.3333333,0,0,-1.3333333,361.53893,116.27467)" />
  </g>
</svg>
