<?xml version="1.0" encoding="UTF-8" standalone="no"?>
<!-- Created with Inkscape (http://www.inkscape.org/) -->

<svg
   version="1.1"
   id="svg1"
   width="350.01334"
   height="156.95866"
   viewBox="0 0 350.01334 156.95866"
   xmlns="http://www.w3.org/2000/svg"
   xmlns:svg="http://www.w3.org/2000/svg">
  <defs
     id="defs1" />
  <g
     id="g1">
    <path
       id="path1"
       d="M 0,0 H 262.51 V 117.719 H 0 Z"
       style="fill:#121212;fill-opacity:1;fill-rule:nonzero;stroke:none"
       transform="matrix(1.3333333,0,0,-1.3333333,0,156.95867)" />
    <path
       id="path2"
       d="M 16.14072,42.5202 0,58.66093 -16.14072,42.5202 0,26.37947 Z"
       style="fill:none;stroke:#ffffff;stroke-width:0.3985;stroke-linecap:butt;stroke-linejoin:miter;stroke-miterlimit:10;stroke-dasharray:none;stroke-opacity:1"
       transform="matrix(1.3333333,0,0,-1.3333333,21.786667,78.48)" />
    <g
       id="g2"
       aria-label="x&#10;1"
       transform="matrix(1.3333333,0,0,1.3333333,15.010667,23.649333)">
      <path
         id="path3"
         d="m 3.3289141,-3.0123906 c 0.058594,-0.2578125 0.2929687,-1.171875 0.984375,-1.171875 0.046875,0 0.2929687,0 0.5039062,0.1289062 -0.28125,0.046875 -0.4804687,0.3046875 -0.4804687,0.5390625 0,0.1640625 0.1054687,0.3515625 0.375,0.3515625 0.2226562,0 0.5390625,-0.1875 0.5390625,-0.5859375 0,-0.515625 -0.5859375,-0.65625 -0.9257813,-0.65625 -0.5742187,0 -0.9257812,0.5273438 -1.0429687,0.7617188 -0.2578125,-0.65625 -0.7851563,-0.7617188 -1.078125,-0.7617188 -1.0429688,0 -1.60546879,1.2890625 -1.60546879,1.5351563 0,0.1054687 0.10546875,0.1054687 0.1171875,0.1054687 0.0820313,0 0.1171875,-0.023437 0.12890625,-0.1171875 0.33984374,-1.0546875 0.99609374,-1.3007812 1.33593754,-1.3007812 0.1875,0 0.5390625,0.09375 0.5390625,0.6679687 0,0.3046875 -0.1640625,0.9726563 -0.5390625,2.3671875 -0.1523438,0.62109377 -0.5039063,1.04296877 -0.9492188,1.04296877 -0.058594,0 -0.28124999,0 -0.49218749,-0.12890625 0.24609375,-0.0585938 0.46874999,-0.26953125 0.46874999,-0.5390625 0,-0.26953122 -0.22265624,-0.35156252 -0.37499999,-0.35156252 -0.29296875,0 -0.5390625,0.25781252 -0.5390625,0.57421877 0,0.45703125 0.4921875,0.65625 0.93749999,0.65625 0.65625,0 1.0078125,-0.69140625 1.0429688,-0.75 0.1171875,0.36328125 0.4804687,0.75 1.078125,0.75 1.0195312,0 1.59375,-1.27734377 1.59375,-1.53515627 0,-0.09375 -0.09375,-0.09375 -0.1289063,-0.09375 -0.082031,0 -0.1054687,0.035156 -0.1289062,0.1054688 -0.328125,1.06640622 -0.9960938,1.31249997 -1.3242188,1.31249997 -0.3867187,0 -0.5390625,-0.328125 -0.5390625,-0.65625 0,-0.22265625 0.058594,-0.44531247 0.1640625,-0.87890627 z m 0,0"
         style="fill:#ffffff;fill-opacity:1;fill-rule:nonzero;stroke:none" />
      <path
         id="path4"
         d="m 8.0252031,-2.9332891 c 0,-0.1875 -0.011719,-0.1992187 -0.2109375,-0.1992187 -0.4453125,0.4335937 -1.078125,0.4453125 -1.359375,0.4453125 v 0.2460937 c 0.1640625,0 0.6210938,0 1.0078125,-0.1875 v 3.55078129 c 0,0.23437501 0,0.32812501 -0.6914062,0.32812501 H 6.5017656 v 0.2460937 c 0.1289063,-0.011719 0.984375,-0.023437 1.2421875,-0.023437 0.2109375,0 1.0898438,0.011719 1.2421875,0.023437 V 1.2503047 H 8.7283281 c -0.703125,0 -0.703125,-0.09375 -0.703125,-0.32812501 z m 0,0"
         style="fill:#ffffff;fill-opacity:1;fill-rule:nonzero;stroke:none" />
    </g>
    <path
       id="path5"
       d="M 16.14072,-42.5202 0,-26.37947 -16.14072,-42.5202 0,-58.66093 Z"
       style="fill:none;stroke:#ffffff;stroke-width:0.3985;stroke-linecap:butt;stroke-linejoin:miter;stroke-miterlimit:10;stroke-dasharray:none;stroke-opacity:1"
       transform="matrix(1.3333333,0,0,-1.3333333,21.786667,78.48)" />
    <g
       id="g5"
       aria-label="x&#10;2"
       transform="matrix(1.3333333,0,0,1.3333333,15.010667,137.036)">
      <path
         id="path6"
         d="m 3.3289141,-3.0123516 c 0.058594,-0.2578125 0.2929687,-1.171875 0.984375,-1.171875 0.046875,0 0.2929687,0 0.5039062,0.1289063 -0.28125,0.046875 -0.4804687,0.3046875 -0.4804687,0.5390625 0,0.1640625 0.1054687,0.3515625 0.375,0.3515625 0.2226562,0 0.5390625,-0.1875 0.5390625,-0.5859375 0,-0.515625 -0.5859375,-0.65625 -0.9257813,-0.65625 -0.5742187,0 -0.9257812,0.5273437 -1.0429687,0.7617187 -0.2578125,-0.65625 -0.7851563,-0.7617187 -1.078125,-0.7617187 -1.0429688,0 -1.60546879,1.2890625 -1.60546879,1.5351562 0,0.1054688 0.10546875,0.1054688 0.1171875,0.1054688 0.0820313,0 0.1171875,-0.023437 0.12890625,-0.1171875 0.33984374,-1.0546875 0.99609374,-1.3007813 1.33593754,-1.3007813 0.1875,0 0.5390625,0.09375 0.5390625,0.6679688 0,0.3046875 -0.1640625,0.9726562 -0.5390625,2.3671875 -0.1523438,0.62109374 -0.5039063,1.04296874 -0.9492188,1.04296874 -0.058594,0 -0.28124999,0 -0.49218749,-0.12890625 0.24609375,-0.0585937 0.46874999,-0.26953125 0.46874999,-0.5390625 0,-0.26953129 -0.22265624,-0.35156249 -0.37499999,-0.35156249 -0.29296875,0 -0.5390625,0.25781249 -0.5390625,0.57421874 0,0.45703125 0.4921875,0.65625 0.93749999,0.65625 0.65625,0 1.0078125,-0.69140625 1.0429688,-0.75 0.1171875,0.36328125 0.4804687,0.75 1.078125,0.75 1.0195312,0 1.59375,-1.27734374 1.59375,-1.53515624 0,-0.09375 -0.09375,-0.09375 -0.1289063,-0.09375 -0.082031,0 -0.1054687,0.035156 -0.1289062,0.1054687 -0.328125,1.06640629 -0.9960938,1.31250004 -1.3242188,1.31250004 -0.3867187,0 -0.5390625,-0.328125 -0.5390625,-0.65625 0,-0.22265625 0.058594,-0.44531254 0.1640625,-0.87890624 z m 0,0"
         style="fill:#ffffff;fill-opacity:1;fill-rule:nonzero;stroke:none" />
      <path
         id="path7"
         d="m 9.2087969,0.22788281 h -0.234375 c -0.023437,0.15234375 -0.082031,0.5625 -0.1757813,0.6328125 -0.058594,0.0351563 -0.5976562,0.0351563 -0.6914062,0.0351563 H 6.8181719 c 0.7382812,-0.64453125 0.984375,-0.84375 1.3945312,-1.171875 0.515625,-0.41015625 0.9960938,-0.84374991 0.9960938,-1.49999991 0,-0.8437501 -0.7382813,-1.3593751 -1.6289063,-1.3593751 -0.8671875,0 -1.453125,0.609375 -1.453125,1.2421876 0,0.3632812 0.3046875,0.3984375 0.375,0.3984375 0.1640625,0 0.375,-0.1171875 0.375,-0.375 0,-0.1289063 -0.058594,-0.3632814 -0.421875,-0.3632814 0.2226563,-0.5039062 0.6914063,-0.65625 1.0195313,-0.65625 0.703125,0 1.0664062,0.5507813 1.0664062,1.1132813 0,0.609375 -0.4335937,1.08984376 -0.65625,1.33593751 l -1.6875,1.66406249 c -0.070312,0.058594 -0.070312,0.070312 -0.070312,0.2695312 h 2.8828125 z m 0,0"
         style="fill:#ffffff;fill-opacity:1;fill-rule:nonzero;stroke:none" />
    </g>
    <path
       id="path8"
       d="m 56.89288,-17.00804 h 62.36288 v 34.0161 H 56.89288 Z"
       style="fill:none;stroke:#ffffff;stroke-width:0.3985;stroke-linecap:butt;stroke-linejoin:miter;stroke-miterlimit:10;stroke-dasharray:none;stroke-opacity:1"
       transform="matrix(1.3333333,0,0,-1.3333333,21.786667,78.48)" />
    <g
       id="g8"
       aria-label="P&#10;w&#10;i&#10;x&#10;i&#10;+b"
       transform="matrix(1.3333333,0,0,1.3333333,107.15867,71.837333)">
      <path
         id="path9"
         d="M 4.1964297,5.3192656 0.65736719,9.6903594 c -0.0820313,0.1054687 -0.09375,0.1171875 -0.09375,0.1640625 0,0.1054687 0.09375,0.1054687 0.26953125,0.1054687 H 9.0948672 L 9.9503359,7.4755156 H 9.7042422 c -0.2460938,0.75 -0.9140625,1.359375 -1.7695313,1.6523438 -0.1523437,0.046875 -0.84375,0.28125 -2.3085937,0.28125 H 1.3956484 l 3.4570313,-4.265625 c 0.070312,-0.09375 0.09375,-0.1289063 0.09375,-0.1640625 0,-0.035156 -0.011719,-0.046875 -0.070312,-0.140625 L 1.6300234,0.39739062 h 3.9492188 c 1.1367187,0 3.421875,0.0703125 4.125,1.93359378 H 9.9503359 L 9.0948672,-0.00104688 H 0.83314844 c -0.26953125,0 -0.26953125,0.01171875 -0.26953125,0.31640625 z m 0,0"
         style="fill:#ffffff;fill-opacity:1;fill-rule:nonzero;stroke:none" />
      <path
         id="path10"
         d="m 16.782367,4.0975859 c 0.04687,-0.2226562 0.140625,-0.5859375 0.140625,-0.6445312 0,-0.1875 -0.128906,-0.2695313 -0.28125,-0.2695313 -0.117187,0 -0.304687,0.070312 -0.375,0.2695313 -0.02344,0.070312 -0.492187,1.9804687 -0.5625,2.2382812 -0.07031,0.2929688 -0.09375,0.4804688 -0.09375,0.65625 0,0.1054688 0,0.1289063 0.01172,0.1757813 -0.222656,0.5273437 -0.527344,0.84375 -0.914063,0.84375 -0.796875,0 -0.796875,-0.7382813 -0.796875,-0.9140625 0,-0.3164063 0.04687,-0.703125 0.515625,-1.9335938 0.105469,-0.2929687 0.175782,-0.4335937 0.175782,-0.6328125 0,-0.4453125 -0.328125,-0.8203125 -0.820313,-0.8203125 -0.949219,0 -1.3125,1.453125 -1.3125,1.5351563 0,0.1054687 0.09375,0.1054687 0.117188,0.1054687 0.09375,0 0.105468,-0.023437 0.152343,-0.1875 0.269532,-0.9257812 0.667969,-1.2304687 1.007813,-1.2304687 0.09375,0 0.257812,0.011719 0.257812,0.328125 0,0.2460937 -0.117187,0.5273437 -0.1875,0.703125 -0.433593,1.171875 -0.550781,1.6289062 -0.550781,2.0039062 0,0.9140625 0.667969,1.2539063 1.40625,1.2539063 0.175781,0 0.644531,0 1.042969,-0.6914063 0.257812,0.6328125 0.949219,0.6914063 1.242187,0.6914063 0.75,0 1.183594,-0.6210938 1.441407,-1.21875 0.339843,-0.7851563 0.65625,-2.109375 0.65625,-2.5898438 0,-0.5507812 -0.269532,-0.703125 -0.433594,-0.703125 -0.246094,0 -0.503906,0.2578125 -0.503906,0.4804688 0,0.1289062 0.07031,0.1875 0.152343,0.2695312 0.117188,0.1054688 0.363282,0.3632813 0.363282,0.84375 0,0.3398438 -0.292969,1.3125 -0.550782,1.828125 -0.257812,0.5273438 -0.609375,0.8789063 -1.089843,0.8789063 -0.46875,0 -0.738282,-0.3046875 -0.738282,-0.8671875 0,-0.28125 0.07031,-0.5859375 0.105469,-0.7265625 z m 0,0"
         style="fill:#ffffff;fill-opacity:1;fill-rule:nonzero;stroke:none" />
      <path
         id="path11"
         d="m 21.569477,4.6073516 c 0,-0.1054688 -0.08203,-0.2578125 -0.28125,-0.2578125 -0.1875,0 -0.386719,0.1757812 -0.386719,0.375 0,0.1171875 0.08203,0.2695312 0.269531,0.2695312 0.210938,0 0.398438,-0.1992187 0.398438,-0.3867187 z m -1.429688,3.5390625 c -0.02344,0.09375 -0.05859,0.1757812 -0.05859,0.2929687 0,0.328125 0.28125,0.5976563 0.667969,0.5976563 0.691406,0 0.996094,-0.9609375 0.996094,-1.0664063 0,-0.09375 -0.08203,-0.09375 -0.105469,-0.09375 -0.105469,0 -0.105469,0.046875 -0.140625,0.1171875 -0.152344,0.5625 -0.457031,0.84375 -0.738281,0.84375 -0.140625,0 -0.175781,-0.082031 -0.175781,-0.2460937 0,-0.1523438 0.05859,-0.2929688 0.117187,-0.4453125 0.07031,-0.1875 0.140625,-0.375 0.222656,-0.5507813 0.05859,-0.1640625 0.316407,-0.8085937 0.339844,-0.890625 0.02344,-0.070312 0.04687,-0.1523437 0.04687,-0.2226562 0,-0.328125 -0.28125,-0.5859375 -0.667969,-0.5859375 -0.691406,0 -1.007812,0.9492187 -1.007812,1.0664062 0,0.082031 0.09375,0.082031 0.117187,0.082031 0.09375,0 0.105469,-0.035156 0.128907,-0.1054688 0.175781,-0.5976562 0.480468,-0.8554687 0.738281,-0.8554687 0.117187,0 0.175781,0.058594 0.175781,0.2460937 0,0.1640625 -0.03516,0.2695313 -0.210937,0.703125 z m 0,0"
         style="fill:#ffffff;fill-opacity:1;fill-rule:nonzero;stroke:none" />
      <path
         id="path12"
         d="m 25.952289,4.4608672 c 0.05859,-0.2578125 0.292969,-1.171875 0.984375,-1.171875 0.04687,0 0.292969,0 0.503906,0.1289062 -0.28125,0.046875 -0.480468,0.3046875 -0.480468,0.5390625 0,0.1640625 0.105468,0.3515625 0.375,0.3515625 0.222656,0 0.539062,-0.1875 0.539062,-0.5859375 0,-0.515625 -0.585937,-0.65625 -0.925781,-0.65625 -0.574219,0 -0.925781,0.5273438 -1.042969,0.7617188 -0.257812,-0.65625 -0.785156,-0.7617188 -1.078125,-0.7617188 -1.042969,0 -1.605469,1.2890625 -1.605469,1.5351563 0,0.1054687 0.105469,0.1054687 0.117188,0.1054687 0.08203,0 0.117187,-0.023437 0.128906,-0.1171875 0.339844,-1.0546875 0.996094,-1.3007812 1.335938,-1.3007812 0.1875,0 0.539062,0.09375 0.539062,0.6679687 0,0.3046875 -0.164062,0.9726563 -0.539062,2.3671875 -0.152344,0.6210938 -0.503907,1.0429688 -0.949219,1.0429688 -0.05859,0 -0.28125,0 -0.492188,-0.1289063 0.246094,-0.058594 0.46875,-0.2695312 0.46875,-0.5390625 0,-0.2695312 -0.222656,-0.3515625 -0.375,-0.3515625 -0.292968,0 -0.539062,0.2578125 -0.539062,0.5742188 0,0.4570312 0.492187,0.65625 0.9375,0.65625 0.65625,0 1.007812,-0.6914063 1.042969,-0.75 0.117187,0.3632812 0.480468,0.75 1.078125,0.75 1.019531,0 1.59375,-1.2773438 1.59375,-1.5351563 0,-0.09375 -0.09375,-0.09375 -0.128907,-0.09375 -0.08203,0 -0.105468,0.035156 -0.128906,0.1054688 -0.328125,1.0664062 -0.996094,1.3125 -1.324219,1.3125 -0.386718,0 -0.539062,-0.328125 -0.539062,-0.65625 0,-0.2226563 0.05859,-0.4453125 0.164062,-0.8789063 z m 0,0"
         style="fill:#ffffff;fill-opacity:1;fill-rule:nonzero;stroke:none" />
      <path
         id="path13"
         d="m 30.581195,4.6073516 c 0,-0.1054688 -0.08203,-0.2578125 -0.28125,-0.2578125 -0.1875,0 -0.386718,0.1757812 -0.386718,0.375 0,0.1171875 0.08203,0.2695312 0.269531,0.2695312 0.210937,0 0.398437,-0.1992187 0.398437,-0.3867187 z m -1.429687,3.5390625 c -0.02344,0.09375 -0.05859,0.1757812 -0.05859,0.2929687 0,0.328125 0.28125,0.5976563 0.667969,0.5976563 0.691406,0 0.996094,-0.9609375 0.996094,-1.0664063 0,-0.09375 -0.08203,-0.09375 -0.105469,-0.09375 -0.105469,0 -0.105469,0.046875 -0.140625,0.1171875 -0.152344,0.5625 -0.457031,0.84375 -0.738281,0.84375 -0.140625,0 -0.175782,-0.082031 -0.175782,-0.2460937 0,-0.1523438 0.05859,-0.2929688 0.117188,-0.4453125 0.07031,-0.1875 0.140625,-0.375 0.222656,-0.5507813 0.05859,-0.1640625 0.316406,-0.8085937 0.339844,-0.890625 0.02344,-0.070312 0.04687,-0.1523437 0.04687,-0.2226562 0,-0.328125 -0.28125,-0.5859375 -0.667969,-0.5859375 -0.691406,0 -1.007812,0.9492187 -1.007812,1.0664062 0,0.082031 0.09375,0.082031 0.117187,0.082031 0.09375,0 0.105469,-0.035156 0.128906,-0.1054688 0.175782,-0.5976562 0.480469,-0.8554687 0.738282,-0.8554687 0.117187,0 0.175781,0.058594 0.175781,0.2460937 0,0.1640625 -0.03516,0.2695313 -0.210938,0.703125 z m 0,0"
         style="fill:#ffffff;fill-opacity:1;fill-rule:nonzero;stroke:none" />
      <path
         id="path14"
         d="m 37.928852,5.1757109 h 2.777343 c 0.140625,0 0.328125,0 0.328125,-0.1992187 0,-0.1992188 -0.1875,-0.1992188 -0.328125,-0.1992188 H 37.928852 V 1.9882109 c 0,-0.1289062 0,-0.328125 -0.199219,-0.328125 -0.199219,0 -0.199219,0.1992188 -0.199219,0.328125 v 2.7890625 h -2.789062 c -0.140625,0 -0.328125,0 -0.328125,0.1992188 0,0.1992187 0.1875,0.1992187 0.328125,0.1992187 h 2.789062 v 2.8007813 c 0,0.1289062 0,0.328125 0.199219,0.328125 0.199219,0 0.199219,-0.1992188 0.199219,-0.328125 z m 0,0"
         style="fill:#ffffff;fill-opacity:1;fill-rule:nonzero;stroke:none" />
      <path
         id="path15"
         d="m 46.19057,0.66399219 c 0,0 0,-0.10546875 -0.128906,-0.10546875 -0.222656,0 -0.949219,0.0820313 -1.21875,0.10546875 -0.07031,0 -0.1875,0.0117188 -0.1875,0.19921875 0,0.1171875 0.09375,0.1171875 0.246094,0.1171875 0.46875,0 0.492187,0.0703125 0.492187,0.16406246 0,0.070312 -0.08203,0.4101563 -0.140625,0.6210938 l -0.808593,3.2460937 c -0.128907,0.5039063 -0.164063,0.65625 -0.164063,1.0078125 0,0.9492188 0.527344,1.5585938 1.265625,1.5585938 1.171875,0 2.402344,-1.4765625 2.402344,-2.9179688 0,-0.9023437 -0.527344,-1.59375 -1.324219,-1.59375 -0.457031,0 -0.867187,0.2929688 -1.171875,0.5976563 z m -0.9375,3.77343751 c 0.05859,-0.2226563 0.05859,-0.2460938 0.152344,-0.3515625 0.492188,-0.6445313 0.9375,-0.796875 1.195313,-0.796875 0.363281,0 0.632812,0.2929687 0.632812,0.9375 0,0.5859375 -0.328125,1.734375 -0.515625,2.109375 -0.328125,0.6679687 -0.785156,1.03125 -1.171875,1.03125 -0.339844,0 -0.667969,-0.2695313 -0.667969,-1.0078125 0,-0.1875 0,-0.3867188 0.164063,-1.0078125 z m 0,0"
         style="fill:#ffffff;fill-opacity:1;fill-rule:nonzero;stroke:none" />
    </g>
    <path
       id="path16"
       d="m 205.54536,0 c 0,14.32504 -11.61244,25.93748 -25.9375,25.93748 -14.32504,0 -25.93748,-11.61244 -25.93748,-25.93748 0,-14.32504 11.61244,-25.93748 25.93748,-25.93748 14.32506,0 25.9375,11.61244 25.9375,25.93748 z"
       style="fill:none;stroke:#ffffff;stroke-width:0.3985;stroke-linecap:butt;stroke-linejoin:miter;stroke-miterlimit:10;stroke-dasharray:none;stroke-opacity:1"
       transform="matrix(1.3333333,0,0,-1.3333333,21.786667,78.48)" />
    <path
       id="path17"
       d="M -5.66925,0 H 13.2077"
       style="fill:none;stroke:#ffffff;stroke-width:0.3985;stroke-linecap:butt;stroke-linejoin:miter;stroke-miterlimit:10;stroke-dasharray:none;stroke-opacity:1"
       transform="matrix(1.3333333,0,0,-1.3333333,260.20533,85.64)" />
    <path
       id="path18"
       d="M -2.07224,2.39104 C -1.69365,0.95639 -0.84999,0.27895 0,0 -0.84999,-0.27895 -1.69365,-0.95639 -2.07224,-2.39104"
       style="fill:none;stroke:#ffffff;stroke-width:0.3985;stroke-linecap:round;stroke-linejoin:round;stroke-miterlimit:10;stroke-dasharray:none;stroke-opacity:1"
       transform="matrix(1.3333333,0,0,-1.3333333,278.08127,85.64)" />
    <path
       id="path19"
       d="M 0,-2.26765 V 17.74323"
       style="fill:none;stroke:#ffffff;stroke-width:0.3985;stroke-linecap:butt;stroke-linejoin:miter;stroke-miterlimit:10;stroke-dasharray:none;stroke-opacity:1"
       transform="matrix(1.3333333,0,0,-1.3333333,260.20533,85.64)" />
    <path
       id="path20"
       d="M -2.07224,2.39104 C -1.69365,0.95639 -0.84999,0.27895 0,0 -0.84999,-0.27895 -1.69365,-0.95639 -2.07224,-2.39104"
       style="fill:none;stroke:#ffffff;stroke-width:0.3985;stroke-linecap:round;stroke-linejoin:round;stroke-miterlimit:10;stroke-dasharray:none;stroke-opacity:1"
       transform="matrix(0,-1.3333333,-1.3333333,0,260.20533,61.716707)" />
    <path
       id="path21"
       d="M -11.33855,0 H 0"
       style="fill:none;stroke:#ff0000;stroke-width:0.79701;stroke-linecap:butt;stroke-linejoin:miter;stroke-miterlimit:10;stroke-dasharray:none;stroke-opacity:1"
       transform="matrix(1.3333333,0,0,-1.3333333,260.20533,85.64)" />
    <path
       id="path22"
       d="M 0,11.33855 H 11.33855"
       style="fill:none;stroke:#ff0000;stroke-width:0.79701;stroke-linecap:butt;stroke-linejoin:miter;stroke-miterlimit:10;stroke-dasharray:none;stroke-opacity:1"
       transform="matrix(1.3333333,0,0,-1.3333333,260.20533,85.64)" />
    <path
       id="path23"
       d="m 2.3308516,-4.4290391 c 0,-0.1875 -0.011719,-0.1992187 -0.2109375,-0.1992187 -0.4453125,0.4335937 -1.078125,0.4453125 -1.35937504,0.4453125 v 0.2460937 c 0.1640625,0 0.62109374,0 1.00781254,-0.1875 v 3.55078129 c 0,0.234375 0,0.328125 -0.6914063,0.328125 H 0.80741406 V 6.484375e-4 C 0.93632031,-0.01107031 1.7917891,-0.02278906 2.0496016,-0.02278906 c 0.2109375,0 1.0898437,0.01171875 1.2421875,0.0234374975 V -0.24544531 H 3.0339766 c -0.703125,0 -0.703125,-0.09375 -0.703125,-0.328125 z m 0,0"
       style="fill:#ffffff;fill-opacity:1;fill-rule:nonzero;stroke:none"
       aria-label="1"
       transform="matrix(1.3333333,0,0,1.3333333,253.12267,73.518667)" />
    <path
       id="path24"
       d="m 4.8400859,-3.7977188 c 0.046875,-0.140625 0.046875,-0.1523437 0.046875,-0.2226562 0,-0.1875 -0.140625,-0.2695313 -0.2929687,-0.2695313 -0.1054688,0 -0.2578125,0.058594 -0.3515625,0.1992188 -0.023437,0.058594 -0.09375,0.3632812 -0.140625,0.5390625 -0.070312,0.2578125 -0.140625,0.5273437 -0.1992188,0.796875 l -0.4453125,1.79296875 c -0.035156,0.15234375 -0.46875,0.85546875 -1.125,0.85546875 -0.5039062,0 -0.6210937,-0.4453125 -0.6210937,-0.80859375 0,-0.45703125 0.1757812,-1.07812505 0.515625,-1.95703125 0.1523437,-0.4101563 0.1992187,-0.515625 0.1992187,-0.7148438 0,-0.4453125 -0.328125,-0.8203125 -0.8203125,-0.8203125 -0.94921871,0 -1.31249996,1.453125 -1.31249996,1.5351563 0,0.1054687 0.09375,0.1054687 0.1171875,0.1054687 0.09375,0 0.10546875,-0.023437 0.15234375,-0.1875 0.26953125,-0.9375 0.66796871,-1.2304687 1.00781251,-1.2304687 0.082031,0 0.2578125,0 0.2578125,0.3164062 0,0.2460938 -0.1054688,0.515625 -0.1757813,0.703125 -0.3984375,1.0546875 -0.5742187,1.6171875 -0.5742187,2.0859375 0,0.89062505 0.6210937,1.1835938 1.21875,1.1835938 0.3867187,0 0.7265625,-0.1640625 0.9960937,-0.4453125 C 3.1643047,0.1749375 3.0471172,0.667125 2.6486797,1.1944687 2.3908672,1.5343125 2.0158672,1.8272812 1.5588359,1.8272812 c -0.140625,0 -0.59765621,-0.035156 -0.76171871,-0.421875 0.1640625,0 0.29296871,0 0.43359371,-0.1171875 0.09375,-0.09375 0.1992188,-0.2226562 0.1992188,-0.4101562 0,-0.31640625 -0.2695313,-0.3515625 -0.375,-0.3515625 -0.22265626,0 -0.55078126,0.1640625 -0.55078126,0.6445312 0,0.5039063 0.43359375,0.8671875 1.05468746,0.8671875 1.0195313,0 2.0507813,-0.9023437 2.3320313,-2.0273437 z m 0,0"
       style="fill:#ffffff;fill-opacity:1;fill-rule:nonzero;stroke:none"
       aria-label="y"
       transform="matrix(1.3333333,0,0,1.3333333,338.59733,80.048)" />
    <path
       id="path25"
       d="M 11.35426,37.45059 51.05357,19.72551"
       style="fill:none;stroke:#ffffff;stroke-width:0.79701;stroke-linecap:butt;stroke-linejoin:miter;stroke-miterlimit:10;stroke-dasharray:none;stroke-opacity:1"
       transform="matrix(1.3333333,0,0,-1.3333333,21.786667,78.48)" />
    <path
       id="path26"
       d="M 4.53381,0 C 3.97704,0.13808 1.52963,0.92049 0,1.77196 V -1.77196 C 1.52963,-0.92049 3.97704,-0.13808 4.53381,0 Z"
       style="fill:#ffffff;fill-opacity:1;fill-rule:nonzero;stroke:#ffffff;stroke-width:0.79701;stroke-linecap:butt;stroke-linejoin:miter;stroke-miterlimit:10;stroke-dasharray:none;stroke-opacity:1"
       transform="matrix(1.2174533,0.54357333,0.54357333,-1.2174533,89.85808,52.17932)" />
    <path
       id="path27"
       d="m 28.20177,27.72746 h 11.64435 v 5.99149 H 28.20177 Z"
       style="fill:#121212;fill-opacity:1;fill-rule:nonzero;stroke:none"
       transform="matrix(1.3333333,0,0,-1.3333333,21.786667,78.48)" />
    <g
       id="g27"
       aria-label="w&#10;1"
       transform="matrix(1.3333333,0,0,1.3333333,60.716,38.853333)">
      <path
         id="path28"
         d="m 3.6671016,-2.2278906 c 0.046875,-0.1875 0.1289062,-0.515625 0.1289062,-0.5507813 0,-0.140625 -0.1054687,-0.2226562 -0.2226562,-0.2226562 -0.140625,0 -0.2578125,0.082031 -0.3046875,0.1992187 -0.023437,0.058594 -0.09375,0.3515625 -0.140625,0.515625 -0.09375,0.3984375 -0.09375,0.421875 -0.1992188,0.8085938 -0.09375,0.3867187 -0.1054687,0.4335937 -0.1171875,0.64453122 0.035156,0.12890625 -0.023437,0.26953125 -0.1875,0.48046875 -0.09375,0.10546875 -0.234375,0.22265625 -0.46875,0.22265625 -0.2695312,0 -0.6328125,-0.09375 -0.6328125,-0.6328125 0,-0.36328122 0.1992188,-0.87890622 0.3398438,-1.23046872 0.1171875,-0.3046875 0.140625,-0.375 0.140625,-0.4921875 0,-0.328125 -0.28125,-0.5859375 -0.65625,-0.5859375 -0.70312504,0 -1.01953129,0.9492187 -1.01953129,1.0664062 0,0.082031 0.09375,0.082031 0.1171875,0.082031 0.09375,0 0.10546875,-0.035156 0.12890625,-0.1054688 0.17578125,-0.5859375 0.46875004,-0.8554687 0.75000004,-0.8554687 0.1171875,0 0.1757812,0.082031 0.1757812,0.2460937 0,0.1640625 -0.058594,0.3164063 -0.09375,0.4101563 -0.3984375,1.0078125 -0.3984375,1.1484375 -0.3984375,1.37109372 0,0.8203125 0.7382813,0.92578125 1.1132813,0.92578125 0.140625,0 0.4804687,0 0.796875,-0.46875 0.1523437,0.31640625 0.5390625,0.46875 0.9609375,0.46875 0.6210937,0 0.9375,-0.5390625 1.0664062,-0.8203125 0.3046875,-0.58593747 0.4921875,-1.46484377 0.4921875,-1.78124997 0,-0.5273438 -0.2929687,-0.5507813 -0.3515625,-0.5507813 -0.1757812,0 -0.375,0.1875 -0.375,0.375 0,0.1171875 0.070312,0.1640625 0.1171875,0.2109375 0.1757813,0.140625 0.2578125,0.3398438 0.2578125,0.5625 0,0.082031 -0.2929687,1.80468752 -1.171875,1.80468752 -0.5625,0 -0.5625,-0.50390625 -0.5625,-0.62109375 0,-0.1875 0.023437,-0.29296877 0.1171875,-0.69140627 z m 0,0"
         style="fill:#ffffff;fill-opacity:1;fill-rule:nonzero;stroke:none" />
      <path
         id="path29"
         d="m 7.7452266,-2.1692969 c 0,-0.1523437 -0.011719,-0.1523437 -0.1757813,-0.1523437 -0.3515625,0.3164062 -0.9023437,0.3164062 -1.0078125,0.3164062 h -0.082031 v 0.2226563 h 0.082031 c 0.1171875,0 0.4335938,-0.011719 0.7265625,-0.140625 v 2.48437497 c 0,0.1640625 0,0.2109375 -0.5273437,0.2109375 H 6.5147578 v 0.22265625 c 0.2695313,-0.0234375 0.7148438,-0.0234375 1.0078125,-0.0234375 0.28125,0 0.7265625,0 0.9960938,0.0234375 V 0.77210937 H 8.2725703 c -0.5273437,0 -0.5273437,-0.046875 -0.5273437,-0.2109375 z m 0,0"
         style="fill:#ffffff;fill-opacity:1;fill-rule:nonzero;stroke:none" />
    </g>
    <path
       id="path30"
       d="m 11.35426,-37.45059 39.69931,17.72508"
       style="fill:none;stroke:#ffffff;stroke-width:0.79701;stroke-linecap:butt;stroke-linejoin:miter;stroke-miterlimit:10;stroke-dasharray:none;stroke-opacity:1"
       transform="matrix(1.3333333,0,0,-1.3333333,21.786667,78.48)" />
    <path
       id="path31"
       d="M 4.53381,0 C 3.97704,0.13808 1.52963,0.92049 0,1.77196 V -1.77196 C 1.52963,-0.92049 3.97704,-0.13808 4.53381,0 Z"
       style="fill:#ffffff;fill-opacity:1;fill-rule:nonzero;stroke:#ffffff;stroke-width:0.79701;stroke-linecap:butt;stroke-linejoin:miter;stroke-miterlimit:10;stroke-dasharray:none;stroke-opacity:1"
       transform="matrix(1.2174533,-0.54357333,-0.54357333,-1.2174533,89.85808,104.78068)" />
    <path
       id="path32"
       d="m 28.20177,-33.71895 h 11.64435 v 5.99149 H 28.20177 Z"
       style="fill:#121212;fill-opacity:1;fill-rule:nonzero;stroke:none"
       transform="matrix(1.3333333,0,0,-1.3333333,21.786667,78.48)" />
    <g
       id="g32"
       aria-label="w&#10;2"
       transform="matrix(1.3333333,0,0,1.3333333,60.716,120.78133)">
      <path
         id="path33"
         d="m 3.6671016,-2.226625 c 0.046875,-0.1875 0.1289062,-0.515625 0.1289062,-0.5507812 0,-0.140625 -0.1054687,-0.2226563 -0.2226562,-0.2226563 -0.140625,0 -0.2578125,0.082031 -0.3046875,0.1992188 -0.023437,0.058594 -0.09375,0.3515625 -0.140625,0.515625 -0.09375,0.3984375 -0.09375,0.421875 -0.1992188,0.8085937 -0.09375,0.3867188 -0.1054687,0.4335938 -0.1171875,0.64453125 0.035156,0.12890625 -0.023437,0.26953125 -0.1875,0.48046875 -0.09375,0.10546875 -0.234375,0.22265625 -0.46875,0.22265625 -0.2695312,0 -0.6328125,-0.09375 -0.6328125,-0.6328125 0,-0.36328125 0.1992188,-0.87890625 0.3398438,-1.23046875 0.1171875,-0.3046875 0.140625,-0.375 0.140625,-0.4921875 0,-0.328125 -0.28125,-0.5859375 -0.65625,-0.5859375 -0.70312504,0 -1.01953129,0.9492188 -1.01953129,1.0664063 0,0.082031 0.09375,0.082031 0.1171875,0.082031 0.09375,0 0.10546875,-0.035156 0.12890625,-0.1054687 0.17578125,-0.5859375 0.46875004,-0.8554688 0.75000004,-0.8554688 0.1171875,0 0.1757812,0.082031 0.1757812,0.2460938 0,0.1640625 -0.058594,0.3164062 -0.09375,0.4101562 -0.3984375,1.0078125 -0.3984375,1.1484375 -0.3984375,1.37109375 0,0.8203125 0.7382813,0.92578125 1.1132813,0.92578125 0.140625,0 0.4804687,0 0.796875,-0.46875 0.1523437,0.31640625 0.5390625,0.46875 0.9609375,0.46875 0.6210937,0 0.9375,-0.5390625 1.0664062,-0.8203125 0.3046875,-0.5859375 0.4921875,-1.4648437 0.4921875,-1.78125 0,-0.5273437 -0.2929687,-0.5507812 -0.3515625,-0.5507812 -0.1757812,0 -0.375,0.1875 -0.375,0.375 0,0.1171875 0.070312,0.1640625 0.1171875,0.2109375 0.1757813,0.140625 0.2578125,0.3398437 0.2578125,0.5625 0,0.082031 -0.2929687,1.80468745 -1.171875,1.80468745 -0.5625,0 -0.5625,-0.50390625 -0.5625,-0.62109375 0,-0.1875 0.023437,-0.2929687 0.1171875,-0.6914062 z m 0,0"
         style="fill:#ffffff;fill-opacity:1;fill-rule:nonzero;stroke:none" />
      <path
         id="path34"
         d="M 8.6944453,0.03509375 H 8.4835078 C 8.4717891,0.12884375 8.4249141,0.43353125 8.3428828,0.492125 8.3077266,0.5155625 7.8858516,0.5155625 7.8155391,0.5155625 H 6.8311641 C 7.1592891,0.26946875 7.5342891,-6.25e-5 7.8272578,-0.19928125 8.2842891,-0.5156875 8.6944453,-0.7969375 8.6944453,-1.3242812 c 0,-0.6445313 -0.5976562,-0.9960938 -1.3125,-0.9960938 -0.6679687,0 -1.1601562,0.3867188 -1.1601562,0.8789063 0,0.2578125 0.2109375,0.3046875 0.28125,0.3046875 0.140625,0 0.2929687,-0.09375 0.2929687,-0.2929688 0,-0.1875 -0.1289062,-0.28125 -0.28125,-0.2929687 0.140625,-0.234375 0.4335938,-0.375 0.7617188,-0.375 0.4804687,0 0.890625,0.28125 0.890625,0.7734375 0,0.42187495 -0.2929688,0.7382812 -0.6796875,1.05468745 l -1.2070313,1.03125 c -0.046875,0.046875 -0.058594,0.046875 -0.058594,0.0820313 V 0.9960313 h 2.3085937 z m 0,0"
         style="fill:#ffffff;fill-opacity:1;fill-rule:nonzero;stroke:none" />
    </g>
    <path
       id="path35"
       d="m 119.45503,0 h 27.83916"
       style="fill:none;stroke:#ffffff;stroke-width:0.79701;stroke-linecap:butt;stroke-linejoin:miter;stroke-miterlimit:10;stroke-dasharray:none;stroke-opacity:1"
       transform="matrix(1.3333333,0,0,-1.3333333,21.786667,78.48)" />
    <path
       id="path36"
       d="M 4.53381,0 C 3.97704,0.13808 1.52963,0.92049 0,1.77196 V -1.77196 C 1.52963,-0.92049 3.97704,-0.13808 4.53381,0 Z"
       style="fill:#ffffff;fill-opacity:1;fill-rule:nonzero;stroke:#ffffff;stroke-width:0.79701;stroke-linecap:butt;stroke-linejoin:miter;stroke-miterlimit:10;stroke-dasharray:none;stroke-opacity:1"
       transform="matrix(1.3333333,0,0,-1.3333333,218.17892,78.48)" />
    <path
       id="path37"
       d="M 205.74461,0 H 227.9145"
       style="fill:none;stroke:#ffffff;stroke-width:0.79701;stroke-linecap:butt;stroke-linejoin:miter;stroke-miterlimit:10;stroke-dasharray:none;stroke-opacity:1"
       transform="matrix(1.3333333,0,0,-1.3333333,21.786667,78.48)" />
    <path
       id="path38"
       d="M 4.53381,0 C 3.97704,0.13808 1.52963,0.92049 0,1.77196 V -1.77196 C 1.52963,-0.92049 3.97704,-0.13808 4.53381,0 Z"
       style="fill:#ffffff;fill-opacity:1;fill-rule:nonzero;stroke:#ffffff;stroke-width:0.79701;stroke-linecap:butt;stroke-linejoin:miter;stroke-miterlimit:10;stroke-dasharray:none;stroke-opacity:1"
       transform="matrix(1.3333333,0,0,-1.3333333,325.67267,78.48)" />
  </g>
</svg>
