<?xml version="1.0" encoding="utf-8" standalone="no"?>
<!DOCTYPE svg PUBLIC "-//W3C//DTD SVG 1.1//EN"
  "http://www.w3.org/Graphics/SVG/1.1/DTD/svg11.dtd">
<svg xmlns:xlink="http://www.w3.org/1999/xlink" width="432pt" height="288pt" viewBox="0 0 432 288" xmlns="http://www.w3.org/2000/svg" version="1.1">
 <metadata>
  <rdf:RDF xmlns:dc="http://purl.org/dc/elements/1.1/" xmlns:cc="http://creativecommons.org/ns#" xmlns:rdf="http://www.w3.org/1999/02/22-rdf-syntax-ns#">
   <cc:Work>
    <dc:type rdf:resource="http://purl.org/dc/dcmitype/StillImage"/>
    <dc:date>2025-06-20T12:16:13.436960</dc:date>
    <dc:format>image/svg+xml</dc:format>
    <dc:creator>
     <cc:Agent>
      <dc:title>Matplotlib v3.9.2, https://matplotlib.org/</dc:title>
     </cc:Agent>
    </dc:creator>
   </cc:Work>
  </rdf:RDF>
 </metadata>
 <defs>
  <style type="text/css">*{stroke-linejoin: round; stroke-linecap: butt}</style>
 </defs>
 <g id="figure_1">
  <g id="patch_1">
   <path d="M 0 288 
L 432 288 
L 432 0 
L 0 0 
z
" style="fill: #121212"/>
  </g>
  <g id="axes_1">
   <g id="patch_2">
    <path d="M 27.939467 255.798759 
L 419.04 255.798759 
L 419.04 27.26218 
L 27.939467 27.26218 
z
" style="fill: #121212"/>
   </g>
   <g id="matplotlib.axis_1">
    <g id="xtick_1">
     <g id="line2d_1">
      <path d="M 81.271358 255.798759 
L 81.271358 27.26218 
" clip-path="url(#pe92089a728)" style="fill: none; stroke: #333333; stroke-linecap: round"/>
     </g>
     <g id="text_1">
      <!-- $\mathdefault{−4}$ -->
      <g style="fill: #ffffff" transform="translate(74.26982 272.909105) scale(0.11 -0.11)">
       <defs>
        <path id="CMSY10-0" d="M 4218 1472 
C 4326 1472 4442 1472 4442 1600 
C 4442 1728 4326 1728 4218 1728 
L 755 1728 
C 646 1728 531 1728 531 1600 
C 531 1472 646 1472 755 1472 
L 4218 1472 
z
" transform="scale(0.015625)"/>
        <path id="CMR17-34" d="M 2150 4147 
C 2150 4281 2144 4288 2029 4288 
L 128 1254 
L 128 1088 
L 1779 1088 
L 1779 460 
C 1779 230 1766 166 1318 166 
L 1197 166 
L 1197 0 
C 1402 12 1747 12 1965 12 
C 2182 12 2528 12 2733 0 
L 2733 166 
L 2611 166 
C 2163 166 2150 230 2150 460 
L 2150 1088 
L 2803 1088 
L 2803 1254 
L 2150 1254 
L 2150 4147 
z
M 1798 3723 
L 1798 1254 
L 256 1254 
L 1798 3723 
z
" transform="scale(0.015625)"/>
       </defs>
       <use xlink:href="#CMSY10-0" transform="scale(0.996264)"/>
       <use xlink:href="#CMR17-34" transform="translate(77.487468 0) scale(0.996264)"/>
      </g>
     </g>
    </g>
    <g id="xtick_2">
     <g id="line2d_2">
      <path d="M 152.380546 255.798759 
L 152.380546 27.26218 
" clip-path="url(#pe92089a728)" style="fill: none; stroke: #333333; stroke-linecap: round"/>
     </g>
     <g id="text_2">
      <!-- $\mathdefault{−2}$ -->
      <g style="fill: #ffffff" transform="translate(145.379008 272.909105) scale(0.11 -0.11)">
       <defs>
        <path id="CMR17-32" d="M 2669 990 
L 2554 990 
C 2490 537 2438 460 2413 422 
C 2381 371 1920 371 1830 371 
L 602 371 
C 832 620 1280 1073 1824 1596 
C 2214 1966 2669 2400 2669 3033 
C 2669 3788 2067 4224 1395 4224 
C 691 4224 262 3603 262 3027 
C 262 2777 448 2745 525 2745 
C 589 2745 781 2783 781 3007 
C 781 3206 614 3264 525 3264 
C 486 3264 448 3257 422 3244 
C 544 3788 915 4057 1306 4057 
C 1862 4057 2227 3616 2227 3033 
C 2227 2477 1901 1998 1536 1583 
L 262 147 
L 262 0 
L 2515 0 
L 2669 990 
z
" transform="scale(0.015625)"/>
       </defs>
       <use xlink:href="#CMSY10-0" transform="scale(0.996264)"/>
       <use xlink:href="#CMR17-32" transform="translate(77.487468 0) scale(0.996264)"/>
      </g>
     </g>
    </g>
    <g id="xtick_3">
     <g id="line2d_3">
      <path d="M 223.489734 255.798759 
L 223.489734 27.26218 
" clip-path="url(#pe92089a728)" style="fill: none; stroke: #333333; stroke-linecap: round"/>
     </g>
     <g id="text_3">
      <!-- $\mathdefault{0}$ -->
      <g style="fill: #ffffff" transform="translate(220.75 272.909105) scale(0.11 -0.11)">
       <defs>
        <path id="CMR17-30" d="M 2688 2038 
C 2688 2430 2682 3099 2413 3613 
C 2176 4063 1798 4224 1466 4224 
C 1158 4224 768 4082 525 3620 
C 269 3137 243 2539 243 2038 
C 243 1671 250 1112 448 623 
C 723 -39 1216 -128 1466 -128 
C 1760 -128 2208 -7 2470 604 
C 2662 1048 2688 1568 2688 2038 
z
M 1466 -26 
C 1056 -26 813 328 723 816 
C 653 1196 653 1749 653 2109 
C 653 2604 653 3015 736 3407 
C 858 3954 1216 4121 1466 4121 
C 1728 4121 2067 3947 2189 3420 
C 2272 3054 2278 2623 2278 2109 
C 2278 1691 2278 1176 2202 797 
C 2067 96 1690 -26 1466 -26 
z
" transform="scale(0.015625)"/>
       </defs>
       <use xlink:href="#CMR17-30" transform="scale(0.996264)"/>
      </g>
     </g>
    </g>
    <g id="xtick_4">
     <g id="line2d_4">
      <path d="M 294.598921 255.798759 
L 294.598921 27.26218 
" clip-path="url(#pe92089a728)" style="fill: none; stroke: #333333; stroke-linecap: round"/>
     </g>
     <g id="text_4">
      <!-- $\mathdefault{2}$ -->
      <g style="fill: #ffffff" transform="translate(291.859188 272.909105) scale(0.11 -0.11)">
       <use xlink:href="#CMR17-32" transform="scale(0.996264)"/>
      </g>
     </g>
    </g>
    <g id="xtick_5">
     <g id="line2d_5">
      <path d="M 365.708109 255.798759 
L 365.708109 27.26218 
" clip-path="url(#pe92089a728)" style="fill: none; stroke: #333333; stroke-linecap: round"/>
     </g>
     <g id="text_5">
      <!-- $\mathdefault{4}$ -->
      <g style="fill: #ffffff" transform="translate(362.968376 272.909105) scale(0.11 -0.11)">
       <use xlink:href="#CMR17-34" transform="scale(0.996264)"/>
      </g>
     </g>
    </g>
   </g>
   <g id="matplotlib.axis_2">
    <g id="ytick_1">
     <g id="line2d_6">
      <path d="M 27.939467 245.410732 
L 419.04 245.410732 
" clip-path="url(#pe92089a728)" style="fill: none; stroke: #333333; stroke-linecap: round"/>
     </g>
     <g id="text_6">
      <!-- $\mathdefault{0}$ -->
      <g style="fill: #ffffff" transform="translate(12.96 249.215906) scale(0.11 -0.11)">
       <use xlink:href="#CMR17-30" transform="scale(0.996264)"/>
      </g>
     </g>
    </g>
    <g id="ytick_2">
     <g id="line2d_7">
      <path d="M 27.939467 203.858627 
L 419.04 203.858627 
" clip-path="url(#pe92089a728)" style="fill: none; stroke: #333333; stroke-linecap: round"/>
     </g>
     <g id="text_7">
      <!-- $\mathdefault{1}$ -->
      <g style="fill: #ffffff" transform="translate(12.96 207.6638) scale(0.11 -0.11)">
       <defs>
        <path id="CMR17-31" d="M 1702 4083 
C 1702 4217 1696 4224 1606 4224 
C 1357 3927 979 3833 621 3820 
C 602 3820 570 3820 563 3808 
C 557 3795 557 3782 557 3648 
C 755 3648 1088 3686 1344 3839 
L 1344 467 
C 1344 243 1331 166 781 166 
L 589 166 
L 589 0 
C 896 6 1216 12 1523 12 
C 1830 12 2150 6 2458 0 
L 2458 166 
L 2266 166 
C 1715 166 1702 236 1702 467 
L 1702 4083 
z
" transform="scale(0.015625)"/>
       </defs>
       <use xlink:href="#CMR17-31" transform="scale(0.996264)"/>
      </g>
     </g>
    </g>
    <g id="ytick_3">
     <g id="line2d_8">
      <path d="M 27.939467 162.306522 
L 419.04 162.306522 
" clip-path="url(#pe92089a728)" style="fill: none; stroke: #333333; stroke-linecap: round"/>
     </g>
     <g id="text_8">
      <!-- $\mathdefault{2}$ -->
      <g style="fill: #ffffff" transform="translate(12.96 166.111695) scale(0.11 -0.11)">
       <use xlink:href="#CMR17-32" transform="scale(0.996264)"/>
      </g>
     </g>
    </g>
    <g id="ytick_4">
     <g id="line2d_9">
      <path d="M 27.939467 120.754417 
L 419.04 120.754417 
" clip-path="url(#pe92089a728)" style="fill: none; stroke: #333333; stroke-linecap: round"/>
     </g>
     <g id="text_9">
      <!-- $\mathdefault{3}$ -->
      <g style="fill: #ffffff" transform="translate(12.96 124.55959) scale(0.11 -0.11)">
       <defs>
        <path id="CMR17-33" d="M 1414 2176 
C 1984 2176 2234 1673 2234 1094 
C 2234 322 1824 25 1453 25 
C 1114 25 563 193 390 691 
C 422 678 454 678 486 678 
C 640 678 755 780 755 947 
C 755 1132 614 1216 486 1216 
C 378 1216 211 1164 211 927 
C 211 335 787 -128 1466 -128 
C 2176 -128 2720 432 2720 1087 
C 2720 1718 2208 2176 1600 2246 
C 2086 2347 2554 2776 2554 3353 
C 2554 3856 2048 4224 1472 4224 
C 890 4224 378 3862 378 3347 
C 378 3123 544 3084 627 3084 
C 762 3084 877 3167 877 3334 
C 877 3500 762 3584 627 3584 
C 602 3584 570 3584 544 3571 
C 730 3999 1235 4076 1459 4076 
C 1683 4076 2106 3966 2106 3347 
C 2106 3167 2080 2851 1862 2574 
C 1670 2329 1453 2316 1242 2297 
C 1210 2297 1062 2284 1037 2284 
C 992 2278 966 2272 966 2227 
C 966 2182 973 2176 1101 2176 
L 1414 2176 
z
" transform="scale(0.015625)"/>
       </defs>
       <use xlink:href="#CMR17-33" transform="scale(0.996264)"/>
      </g>
     </g>
    </g>
    <g id="ytick_5">
     <g id="line2d_10">
      <path d="M 27.939467 79.202311 
L 419.04 79.202311 
" clip-path="url(#pe92089a728)" style="fill: none; stroke: #333333; stroke-linecap: round"/>
     </g>
     <g id="text_10">
      <!-- $\mathdefault{4}$ -->
      <g style="fill: #ffffff" transform="translate(12.96 83.007485) scale(0.11 -0.11)">
       <use xlink:href="#CMR17-34" transform="scale(0.996264)"/>
      </g>
     </g>
    </g>
    <g id="ytick_6">
     <g id="line2d_11">
      <path d="M 27.939467 37.650206 
L 419.04 37.650206 
" clip-path="url(#pe92089a728)" style="fill: none; stroke: #333333; stroke-linecap: round"/>
     </g>
     <g id="text_11">
      <!-- $\mathdefault{5}$ -->
      <g style="fill: #ffffff" transform="translate(12.96 41.455379) scale(0.11 -0.11)">
       <defs>
        <path id="CMR17-35" d="M 730 3750 
C 794 3724 1056 3641 1325 3641 
C 1920 3641 2246 3961 2432 4140 
C 2432 4191 2432 4224 2394 4224 
C 2387 4224 2374 4224 2323 4198 
C 2099 4102 1837 4032 1517 4032 
C 1325 4032 1037 4055 723 4191 
C 653 4224 640 4224 634 4224 
C 602 4224 595 4217 595 4090 
L 595 2231 
C 595 2113 595 2080 659 2080 
C 691 2080 704 2093 736 2139 
C 941 2435 1222 2560 1542 2560 
C 1766 2560 2246 2415 2246 1293 
C 2246 1087 2246 716 2054 422 
C 1894 159 1645 25 1370 25 
C 947 25 518 319 403 812 
C 429 806 480 793 506 793 
C 589 793 749 838 749 1036 
C 749 1209 627 1280 506 1280 
C 358 1280 262 1190 262 1011 
C 262 454 704 -128 1382 -128 
C 2042 -128 2669 441 2669 1267 
C 2669 2054 2170 2662 1549 2662 
C 1222 2662 947 2540 730 2304 
L 730 3750 
z
" transform="scale(0.015625)"/>
       </defs>
       <use xlink:href="#CMR17-35" transform="scale(0.996264)"/>
      </g>
     </g>
    </g>
   </g>
   <g id="line2d_12">
    <path d="M 45.716764 245.410732 
L 223.133475 245.410732 
L 223.845992 244.994379 
L 401.262703 37.650206 
L 401.262703 37.650206 
" clip-path="url(#pe92089a728)" style="fill: none; stroke: #4c72b0; stroke-width: 2; stroke-linecap: round"/>
   </g>
   <g id="line2d_13">
    <path d="M 27.939467 245.410732 
L 419.04 245.410732 
" clip-path="url(#pe92089a728)" style="fill: none; stroke-dasharray: 1.85,0.8; stroke-dashoffset: 0; stroke: #808080; stroke-width: 0.5"/>
   </g>
   <g id="line2d_14">
    <path d="M 223.489734 255.798759 
L 223.489734 27.26218 
" clip-path="url(#pe92089a728)" style="fill: none; stroke-dasharray: 1.85,0.8; stroke-dashoffset: 0; stroke: #808080; stroke-width: 0.5"/>
   </g>
   <g id="patch_3">
    <path d="M 27.939467 255.798759 
L 27.939467 27.26218 
" style="fill: none; stroke: #ffffff; stroke-width: 1.25; stroke-linejoin: miter; stroke-linecap: square"/>
   </g>
   <g id="patch_4">
    <path d="M 419.04 255.798759 
L 419.04 27.26218 
" style="fill: none; stroke: #ffffff; stroke-width: 1.25; stroke-linejoin: miter; stroke-linecap: square"/>
   </g>
   <g id="patch_5">
    <path d="M 27.939467 255.798759 
L 419.04 255.798759 
" style="fill: none; stroke: #ffffff; stroke-width: 1.25; stroke-linejoin: miter; stroke-linecap: square"/>
   </g>
   <g id="patch_6">
    <path d="M 27.939467 27.26218 
L 419.04 27.26218 
" style="fill: none; stroke: #ffffff; stroke-width: 1.25; stroke-linejoin: miter; stroke-linecap: square"/>
   </g>
   <g id="text_12">
    <!-- ReLU -->
    <g style="fill: #ffffff" transform="translate(208.536234 21.26218) scale(0.12 -0.12)">
     <defs>
      <path id="CMR17-52" d="M 2509 2156 
C 3117 2278 3629 2689 3629 3203 
C 3629 3806 2950 4352 2054 4352 
L 333 4352 
L 333 4185 
C 774 4185 845 4185 845 3896 
L 845 428 
C 845 140 774 140 333 140 
L 333 -26 
C 518 -13 851 -13 1050 -13 
C 1248 -13 1581 -13 1766 -26 
L 1766 140 
C 1325 140 1254 140 1254 428 
L 1254 2112 
L 2003 2112 
C 2368 2112 2573 1964 2662 1881 
C 2918 1632 2918 1459 2918 1024 
C 2918 595 2918 377 3110 160 
C 3354 -103 3680 -128 3821 -128 
C 4294 -128 4365 403 4365 512 
C 4365 550 4365 595 4307 595 
C 4256 595 4250 556 4250 531 
C 4218 115 4032 -26 3834 -26 
C 3482 -26 3443 377 3405 768 
C 3386 902 3373 998 3360 1139 
C 3322 1459 3270 1926 2509 2156 
z
M 1984 2214 
L 1254 2214 
L 1254 3935 
C 1254 4153 1267 4185 1523 4185 
L 1990 4185 
C 2522 4185 3142 3999 3142 3203 
C 3142 2374 2464 2214 1984 2214 
z
" transform="scale(0.015625)"/>
      <path id="CMR17-65" d="M 2438 1503 
C 2464 1529 2464 1542 2464 1606 
C 2464 2251 2118 2816 1389 2816 
C 710 2816 173 2175 173 1394 
C 173 554 781 -64 1459 -64 
C 2176 -64 2458 619 2458 755 
C 2458 800 2419 800 2406 800 
C 2362 800 2355 787 2330 709 
C 2189 270 1837 51 1504 51 
C 1229 51 954 206 781 490 
C 582 819 582 1200 582 1503 
L 2438 1503 
z
M 589 1600 
C 634 2511 1126 2713 1382 2713 
C 1818 2713 2112 2308 2118 1600 
L 589 1600 
z
" transform="scale(0.015625)"/>
      <path id="CMR17-4c" d="M 3469 1612 
L 3354 1612 
C 3302 981 3219 166 2125 166 
L 1530 166 
C 1274 166 1261 198 1261 414 
L 1261 3892 
C 1261 4121 1274 4185 1760 4185 
L 1901 4185 
L 1901 4352 
C 1638 4339 1331 4339 1069 4339 
C 870 4339 512 4339 326 4352 
L 326 4185 
C 768 4185 838 4185 838 3898 
L 838 453 
C 838 166 768 166 326 166 
L 326 0 
L 3315 0 
L 3469 1612 
z
" transform="scale(0.015625)"/>
      <path id="CMR17-55" d="M 3456 1442 
C 3456 583 2899 38 2291 38 
C 1965 38 1670 211 1491 480 
C 1286 788 1261 1185 1261 1410 
L 1261 3897 
C 1261 4185 1331 4185 1773 4185 
L 1773 4352 
C 1587 4339 1248 4339 1050 4339 
C 851 4339 512 4339 326 4352 
L 326 4185 
C 768 4185 838 4185 838 3897 
L 838 1442 
C 838 519 1536 -128 2278 -128 
C 3110 -128 3590 724 3590 1352 
L 3590 3788 
C 3590 4147 3917 4185 4102 4185 
L 4102 4352 
C 3955 4339 3686 4339 3526 4339 
C 3366 4339 3091 4339 2944 4352 
L 2944 4185 
C 3456 4185 3456 3884 3456 3724 
L 3456 1442 
z
" transform="scale(0.015625)"/>
     </defs>
     <use xlink:href="#CMR17-52" transform="scale(0.996264)"/>
     <use xlink:href="#CMR17-65" transform="translate(67.791102 0) scale(0.996264)"/>
     <use xlink:href="#CMR17-4c" transform="translate(108.276762 0) scale(0.996264)"/>
     <use xlink:href="#CMR17-55" transform="translate(165.65817 0) scale(0.996264)"/>
    </g>
   </g>
  </g>
 </g>
 <defs>
  <clipPath id="pe92089a728">
   <rect x="27.939467" y="27.26218" width="391.100533" height="228.536579"/>
  </clipPath>
 </defs>
</svg>
